SplineFontDB: 3.0
FontName: Unna-BoldItalic
FullName: Unna-Bold Italic
FamilyName: Unna
Weight: Bold
Copyright: Copyright (c) 2011-2014, Omnibus-Type (www.omnibus-type.com omnibus.type@gmail.com) with Reserved Font Name 'Unna'

StartChar: .notdef
Encoding: 65536 -1 0
Width: 555
Flags: MW
HStem: 0 50<135 475 135 555> 650 50<135 475 135 135>
LayerCount: 2
Fore
SplineSet
55 0 m 1
 55 700 l 1
 555 700 l 1
 555 0 l 1
 55 0 l 1
305 395 m 1
 475 650 l 1
 135 650 l 1
 305 395 l 1
335 350 m 1
 505 95 l 1
 505 605 l 1
 335 350 l 1
135 50 m 1
 475 50 l 1
 305 305 l 1
 135 50 l 1
105 605 m 1
 105 95 l 1
 275 350 l 1
 105 605 l 1
EndSplineSet
EndChar

StartChar: A
Encoding: 65 65 1
Width: 608
Flags: MW
HStem: 0 35<-9 5.5 -9 133 575 580> 186 35<156 345 156 355 137 345> 587 20G<330 379 379 379>
VStem: -47 653<0 37>
LayerCount: 2
Fore
SplineSet
606 37 m 1
 601 0 l 1
 302 0 l 1
 307 37 l 1
 354 35 l 1
 377 33 385 46 386 63 c 0
 386 74 383 86 380 98 c 2
 355 186 l 1
 137 186 l 1
 93 104 l 2
 82 84 73 63 73 49 c 0
 73 39 78 33 91 34 c 2
 137 37 l 1
 133 0 l 1
 -47 0 l 1
 -43 37 l 1
 -9 35 l 1
 20 35 43 76 62 112 c 2
 330 607 l 1
 379 607 l 1
 521 110 l 2
 534 64 544 35 575 35 c 2
 580 35 l 1
 606 37 l 1
345 221 m 1
 280 451 l 1
 156 221 l 1
 345 221 l 1
EndSplineSet
Substitution2: "Single Substitution lookup 21 subtable" ordfeminine
Substitution2: "'aalt' Access All Alternates lookup 0 subtable" ordfeminine
Position2: "'cpsp' Capital Spacing lookup 0 per glyph data 2" dx=5 dy=0 dh=10 dv=0
EndChar

StartChar: Aacute
Encoding: 193 193 2
Width: 608
Flags: MW
HStem: 0 35<-9 5.5 -9 133 575 580> 186 35<156 345 156 355 137 345> 587 20G<330 379 379 379>
VStem: -47 653<0 37>
LayerCount: 2
Fore
SplineSet
418 802 m 2
 437 820 442 826 457 826 c 0
 480 826 519 804 519 790 c 0
 519 783 515 778 504 772 c 2
 325 669 l 2
 319 665 308 660 300 660 c 0
 293 660 290 663 290 669 c 0
 290 677 295 683 310 697 c 2
 418 802 l 2
601 0 m 1
 302 0 l 1
 307 37 l 1
 354 35 l 1
 377 33 385 46 386 63 c 0
 386 74 383 86 380 98 c 2
 355 186 l 1
 137 186 l 1
 93 104 l 2
 82 84 73 63 73 49 c 0
 73 39 78 33 91 34 c 2
 137 37 l 1
 133 0 l 1
 -47 0 l 1
 -43 37 l 1
 -9 35 l 1
 20 35 43 76 62 112 c 2
 330 607 l 1
 379 607 l 1
 521 110 l 2
 534 64 544 35 575 35 c 2
 580 35 l 1
 606 37 l 1
 601 0 l 1
280 451 m 1
 156 221 l 1
 345 221 l 1
 280 451 l 1
EndSplineSet
Position2: "'cpsp' Capital Spacing lookup 0 per glyph data 2" dx=5 dy=0 dh=10 dv=0
EndChar

StartChar: Abreve
Encoding: 258 258 3
Width: 608
Flags: MW
HStem: 0 35<-9 5.5 -9 133 575 580> 186 35<156 345 156 355 137 345> 587 20G<330 379 379 379> 659 65<340 394.5 340 398.5>
VStem: -47 653<0 37>
LayerCount: 2
Fore
SplineSet
511 790 m 1
 498 713 438 659 359 659 c 0
 286 659 244 704 244 770 c 0
 244 777 244 783 245 790 c 1
 292 790 l 1
 295 758 312 724 368 724 c 0
 421 724 452 758 464 790 c 1
 511 790 l 1
601 0 m 1
 302 0 l 1
 307 37 l 1
 354 35 l 1
 377 33 385 46 386 63 c 0
 386 74 383 86 380 98 c 2
 355 186 l 1
 137 186 l 1
 93 104 l 2
 82 84 73 63 73 49 c 0
 73 39 78 33 91 34 c 2
 137 37 l 1
 133 0 l 1
 -47 0 l 1
 -43 37 l 1
 -9 35 l 1
 20 35 43 76 62 112 c 2
 330 607 l 1
 379 607 l 1
 521 110 l 2
 534 64 544 35 575 35 c 2
 580 35 l 1
 606 37 l 1
 601 0 l 1
280 451 m 1
 156 221 l 1
 345 221 l 1
 280 451 l 1
EndSplineSet
EndChar

StartChar: Acircumflex
Encoding: 194 194 4
Width: 608
Flags: MW
HStem: 0 35<-9 5.5 -9 133 575 580> 186 35<156 345 156 355 137 345> 587 20G<330 379 379 379> 744 60<346 370>
VStem: -47 653<0 37>
LayerCount: 2
Fore
SplineSet
252 678 m 2
 244 673 230 666 218 666 c 0
 209 666 207 670 207 673 c 0
 207 682 245 709 293 756 c 1
 346 804 l 2
 359 816 372 822 382 822 c 0
 392 822 403 816 412 804 c 2
 451 756 l 1
 485 710 515 684 515 675 c 0
 515 672 513 666 501 666 c 0
 490 666 477 673 470 678 c 2
 370 744 l 1
 252 678 l 2
601 0 m 1
 302 0 l 1
 307 37 l 1
 354 35 l 1
 377 33 385 46 386 63 c 0
 386 74 383 86 380 98 c 2
 355 186 l 1
 137 186 l 1
 93 104 l 2
 82 84 73 63 73 49 c 0
 73 39 78 33 91 34 c 2
 137 37 l 1
 133 0 l 1
 -47 0 l 1
 -43 37 l 1
 -9 35 l 1
 20 35 43 76 62 112 c 2
 330 607 l 1
 379 607 l 1
 521 110 l 2
 534 64 544 35 575 35 c 2
 580 35 l 1
 606 37 l 1
 601 0 l 1
280 451 m 1
 156 221 l 1
 345 221 l 1
 280 451 l 1
EndSplineSet
Position2: "'cpsp' Capital Spacing lookup 0 per glyph data 2" dx=5 dy=0 dh=10 dv=0
EndChar

StartChar: Adieresis
Encoding: 196 196 5
Width: 608
Flags: MW
HStem: 0 35<-9 5.5 -9 133 575 580> 186 35<156 345 156 355 137 345> 587 20G<330 379 379 379> 677 125<259 291 452 484>
VStem: 197 156<726 752> 390 156<726 752>
LayerCount: 2
Fore
SplineSet
283 802 m 0
 325 802 353 781 353 749 c 0
 353 703 316 677 266 677 c 0
 225 677 197 698 197 730 c 0
 197 774 235 802 283 802 c 0
476 802 m 0
 518 802 546 781 546 749 c 0
 546 703 509 677 459 677 c 0
 418 677 390 698 390 730 c 0
 390 774 428 802 476 802 c 0
601 0 m 1
 302 0 l 1
 307 37 l 1
 354 35 l 1
 377 33 385 46 386 63 c 0
 386 74 383 86 380 98 c 2
 355 186 l 1
 137 186 l 1
 93 104 l 2
 82 84 73 63 73 49 c 0
 73 39 78 33 91 34 c 2
 137 37 l 1
 133 0 l 1
 -47 0 l 1
 -43 37 l 1
 -9 35 l 1
 20 35 43 76 62 112 c 2
 330 607 l 1
 379 607 l 1
 521 110 l 2
 534 64 544 35 575 35 c 2
 580 35 l 1
 606 37 l 1
 601 0 l 1
280 451 m 1
 156 221 l 1
 345 221 l 1
 280 451 l 1
EndSplineSet
Position2: "'cpsp' Capital Spacing lookup 0 per glyph data 2" dx=5 dy=0 dh=10 dv=0
EndChar

StartChar: Agrave
Encoding: 192 192 6
Width: 608
Flags: MW
HStem: 0 35<-9 5.5 -9 133 575 580> 186 35<156 345 156 355 137 345> 587 20G<330 379 379 379>
VStem: -47 653<0 37>
LayerCount: 2
Fore
SplineSet
244 772 m 2
 237 777 234 782 234 789 c 0
 236 803 283 826 307 826 c 0
 322 826 324 821 338 802 c 2
 420 696 l 1
 428 684 432 678 431 670 c 0
 430 664 425 660 417 660 c 0
 409 660 400 665 394 669 c 2
 244 772 l 2
601 0 m 1
 302 0 l 1
 307 37 l 1
 354 35 l 1
 377 33 385 46 386 63 c 0
 386 74 383 86 380 98 c 2
 355 186 l 1
 137 186 l 1
 93 104 l 2
 82 84 73 63 73 49 c 0
 73 39 78 33 91 34 c 2
 137 37 l 1
 133 0 l 1
 -47 0 l 1
 -43 37 l 1
 -9 35 l 1
 20 35 43 76 62 112 c 2
 330 607 l 1
 379 607 l 1
 521 110 l 2
 534 64 544 35 575 35 c 2
 580 35 l 1
 606 37 l 1
 601 0 l 1
280 451 m 1
 156 221 l 1
 345 221 l 1
 280 451 l 1
EndSplineSet
Position2: "'cpsp' Capital Spacing lookup 0 per glyph data 2" dx=5 dy=0 dh=10 dv=0
EndChar

StartChar: Amacron
Encoding: 256 256 7
Width: 608
Flags: MW
HStem: 0 35<-9 5.5 -9 133 575 580> 186 35<156 345 156 355 137 345> 587 20G<330 379 379 379> 677 47<247 480 240 487>
VStem: -47 653<0 37>
LayerCount: 2
Fore
SplineSet
480 677 m 1
 240 677 l 1
 247 724 l 1
 487 724 l 1
 480 677 l 1
601 0 m 1
 302 0 l 1
 307 37 l 1
 354 35 l 1
 377 33 385 46 386 63 c 0
 386 74 383 86 380 98 c 2
 355 186 l 1
 137 186 l 1
 93 104 l 2
 82 84 73 63 73 49 c 0
 73 39 78 33 91 34 c 2
 137 37 l 1
 133 0 l 1
 -47 0 l 1
 -43 37 l 1
 -9 35 l 1
 20 35 43 76 62 112 c 2
 330 607 l 1
 379 607 l 1
 521 110 l 2
 534 64 544 35 575 35 c 2
 580 35 l 1
 606 37 l 1
 601 0 l 1
280 451 m 1
 156 221 l 1
 345 221 l 1
 280 451 l 1
EndSplineSet
EndChar

StartChar: Aogonek
Encoding: 260 260 8
Width: 608
Flags: MW
HStem: -159 58<492.5 566.5> 0 35<-9 5.5 -9 133 575 580> 186 35<156 345 156 355 137 345> 587 20G<330 379 379 379>
VStem: 439 72<-117 -49.5>
LayerCount: 2
Fore
SplineSet
636 -99 m 1
 598 -137 554 -159 511 -159 c 0
 474 -159 439 -138 439 -96 c 0
 439 -61 461 -26 502 0 c 1
 302 0 l 1
 307 37 l 1
 354 35 l 1
 377 33 385 46 386 63 c 0
 386 74 383 86 380 98 c 2
 355 186 l 1
 137 186 l 1
 93 104 l 2
 82 84 73 63 73 49 c 0
 73 39 78 33 91 34 c 2
 137 37 l 1
 133 0 l 1
 -47 0 l 1
 -43 37 l 1
 -9 35 l 1
 20 35 43 76 62 112 c 2
 330 607 l 1
 379 607 l 1
 521 110 l 2
 534 64 544 35 575 35 c 2
 580 35 l 1
 606 37 l 1
 601 0 l 1
 542 0 l 1
 522 -16 511 -38 511 -61 c 0
 511 -83 524 -101 555 -101 c 0
 578 -101 602 -93 626 -79 c 1
 636 -99 l 1
345 221 m 1
 280 451 l 1
 156 221 l 1
 345 221 l 1
EndSplineSet
EndChar

StartChar: Aring
Encoding: 197 197 9
Width: 608
Flags: MW
HStem: 0 35<-9 5.5 -9 133 575 580> 186 35<156 345 156 355 137 345> 587 20G<330 379 379 379> 665 41<356.5 378.5 356.5 388> 789 42<365 387.5>
VStem: 285 50<730.5 755 730.5 763.5> 409 51<740 764.5>
LayerCount: 2
Fore
SplineSet
285 737 m 0
 285 790 330 831 383 831 c 0
 430 831 460 801 460 759 c 0
 460 704 416 665 360 665 c 0
 314 665 285 694 285 737 c 0
335 741 m 0
 335 720 347 706 366 706 c 0
 391 706 409 726 409 754 c 0
 409 775 398 789 377 789 c 0
 353 789 335 769 335 741 c 0
601 0 m 1
 302 0 l 1
 307 37 l 1
 354 35 l 1
 377 33 385 46 386 63 c 0
 386 74 383 86 380 98 c 2
 355 186 l 1
 137 186 l 1
 93 104 l 2
 82 84 73 63 73 49 c 0
 73 39 78 33 91 34 c 2
 137 37 l 1
 133 0 l 1
 -47 0 l 1
 -43 37 l 1
 -9 35 l 1
 20 35 43 76 62 112 c 2
 330 607 l 1
 379 607 l 1
 521 110 l 2
 534 64 544 35 575 35 c 2
 580 35 l 1
 606 37 l 1
 601 0 l 1
280 451 m 1
 156 221 l 1
 345 221 l 1
 280 451 l 1
EndSplineSet
Position2: "'cpsp' Capital Spacing lookup 0 per glyph data 2" dx=5 dy=0 dh=10 dv=0
EndChar

StartChar: Atilde
Encoding: 195 195 10
Width: 608
Flags: MW
HStem: 0 35<-9 5.5 -9 133 575 580> 186 35<156 345 156 355 137 345> 587 20G<330 379 379 379> 671 61<432 460.5 432 461> 711 60<274.5 303>
VStem: 218 28<672 672> 489 28<770 770>
LayerCount: 2
Fore
SplineSet
218 672 m 1xee
 226 729 251 771 296 771 c 0xee
 344 771 413 732 451 732 c 0
 470 732 486 747 489 770 c 1
 517 770 l 1
 509 713 483 671 439 671 c 0xf6
 390 671 322 711 284 711 c 0
 265 711 249 696 246 672 c 1
 218 672 l 1xee
601 0 m 1
 302 0 l 1
 307 37 l 1
 354 35 l 1
 377 33 385 46 386 63 c 0
 386 74 383 86 380 98 c 2
 355 186 l 1
 137 186 l 1
 93 104 l 2
 82 84 73 63 73 49 c 0
 73 39 78 33 91 34 c 2
 137 37 l 1
 133 0 l 1
 -47 0 l 1
 -43 37 l 1
 -9 35 l 1
 20 35 43 76 62 112 c 2
 330 607 l 1
 379 607 l 1
 521 110 l 2
 534 64 544 35 575 35 c 2
 580 35 l 1
 606 37 l 1
 601 0 l 1
280 451 m 1
 156 221 l 1
 345 221 l 1
 280 451 l 1
EndSplineSet
Position2: "'cpsp' Capital Spacing lookup 0 per glyph data 2" dx=5 dy=0 dh=10 dv=0
EndChar

StartChar: AE
Encoding: 198 198 11
Width: 846
Flags: MW
HStem: 0 34<560 603 603 649.5> 186 35<192 390 192 392 165 390> 289 35<529 585 529 589> 406 20G<677 713 713 713> 443 154<781 795 795 804 329 815 781 781> 562 35<519 657 519 519>
VStem: 384.5 139.5 398 137.5 677 36<426 426>
LayerCount: 2
Fore
SplineSet
815 443 m 1xfa80
 781 443 l 1xfa80
 782 452 783 461 783 469 c 0
 783 534 741 562 657 562 c 2
 519 562 l 1
 529 324 l 1xf680
 589 324 l 2
 631 324 668 365 677 426 c 1
 713 426 l 1
 680 191 l 1
 646 191 l 1
 647 197 647 203 647 209 c 0
 647 256 622 289 585 289 c 2
 529 289 l 1
 542 53 l 2
 543 42 549 34 560 34 c 2
 603 34 l 2
 696 34 749 82 761 171 c 1
 796 171 l 1
 772 -3 l 1
 733 0 694 0 677 0 c 2
 311 0 l 1
 317 38 l 1
 373 35 l 2
 389 34 398 47 398 58 c 2
 392 186 l 1
 165 186 l 1
 94 88 l 2
 85 76 75 58 75 46 c 0
 75 39 79 34 91 35 c 2
 143 38 l 1
 138 0 l 1
 -47 0 l 1
 -42 38 l 1
 -11 35 l 1
 7 32 26 52 57 94 c 2
 386 536 l 2
 388 539 390 542 390 545 c 0
 390 553 382 560 375 560 c 2
 324 558 l 1
 329 597 l 1
 795 597 l 2
 813 597 828 598 837 599 c 1xf580
 815 443 l 1xfa80
192 221 m 1
 390 221 l 1
 379 472 l 1
 192 221 l 1
EndSplineSet
Position2: "'cpsp' Capital Spacing lookup 0 per glyph data 2" dx=5 dy=0 dh=10 dv=0
EndChar

StartChar: B
Encoding: 66 66 12
Width: 577
Flags: MW
HStem: 0 36<228 277 277 302> 294 35<251 307 256 307 307 326> 562 35<135 139.5 297.5 301 301 338>
VStem: 405 141<141.5 219 121.5 231> 415 140<433 504.5>
LayerCount: 2
Fore
SplineSet
401 597 m 2xe8
 501 597 555 556 555 476 c 0xe8
 555 390 489 333 397 317 c 1
 483 317 546 259 546 179 c 0xf0
 546 64 465 0 302 0 c 2
 8 0 l 1
 13 37 l 1
 61 35 l 2
 72 35 78 42 80 57 c 2
 148 542 l 2
 148 543 148 544 148 545 c 0
 148 553 144 562 135 562 c 2
 87 560 l 1
 92 597 l 1
 401 597 l 2xe8
301 562 m 2
 294 562 289 558 287 550 c 2
 256 329 l 1
 307 329 l 2
 384 329 415 382 415 475 c 0
 415 534 387 562 338 562 c 2
 301 562 l 2
251 294 m 1xf0
 217 49 l 2
 217 47 216 46 216 45 c 0
 216 39 221 36 228 36 c 2
 277 36 l 2
 351 36 405 86 405 197 c 0
 405 265 378 294 326 294 c 2
 251 294 l 1xf0
EndSplineSet
Position2: "'cpsp' Capital Spacing lookup 0 per glyph data 2" dx=5 dy=0 dh=10 dv=0
EndChar

StartChar: C
Encoding: 67 67 13
Width: 593
Flags: MW
HStem: -10 35<288.5 354.5> 35 132<522 532 532 538> 413 20G<551 583 551 551> 433 131<560.5 583 551 599> 575 32<335.5 440>
VStem: 39 149<170 340.5 170 361>
LayerCount: 2
Fore
SplineSet
532 35 m 2xac
 468 35 401 -10 308 -10 c 0
 138 -10 39 89 39 251 c 0
 39 471 174 607 391 607 c 0xac
 506 607 522 564 599 564 c 1x9c
 588 519 582 469 582 450 c 0xac
 582 442 582 434 583 433 c 1x9c
 551 433 l 1
 544 511 480 575 400 575 c 0
 271 575 188 443 188 238 c 0
 188 102 243 25 334 25 c 0xac
 418 25 494 87 522 167 c 1
 558 167 l 1xec
 543 107 538 80 538 49 c 2
 538 35 l 1
 532 35 l 2xac
EndSplineSet
Position2: "'cpsp' Capital Spacing lookup 0 per glyph data 2" dx=5 dy=0 dh=10 dv=0
EndChar

StartChar: Cacute
Encoding: 262 262 14
Width: 593
Flags: MW
HStem: -10 35<288.5 354.5> 35 132<522 532 532 538> 413 20G<551 583 551 551> 433 131<560.5 583 551 599> 575 32<335.5 440>
VStem: 39 149<170 340.5 170 361>
LayerCount: 2
Fore
SplineSet
459 802 m 2xac
 478 820 483 826 498 826 c 0
 521 826 560 804 560 790 c 0
 560 783 556 778 545 772 c 2
 366 669 l 2
 360 665 349 660 341 660 c 0
 334 660 331 663 331 669 c 0
 331 677 336 683 351 697 c 2
 459 802 l 2xac
532 35 m 2
 468 35 401 -10 308 -10 c 0
 138 -10 39 89 39 251 c 0
 39 471 174 607 391 607 c 0xac
 506 607 522 564 599 564 c 1x9c
 588 519 582 469 582 450 c 0xac
 582 442 582 434 583 433 c 1x9c
 551 433 l 1
 544 511 480 575 400 575 c 0
 271 575 188 443 188 238 c 0
 188 102 243 25 334 25 c 0xac
 418 25 494 87 522 167 c 1
 558 167 l 1xec
 543 107 538 80 538 49 c 2
 538 35 l 1
 532 35 l 2
EndSplineSet
EndChar

StartChar: Ccaron
Encoding: 268 268 15
Width: 593
Flags: MW
HStem: -10 35<288.5 354.5> 35 132<522 532 532 538> 413 20G<551 583 551 551> 433 131<560.5 583 551 599> 575 32<335.5 440> 686 60<369 411 411 435>
VStem: 39 149<170 340.5 170 361>
LayerCount: 2
Fore
SplineSet
529 812 m 2xae
 537 817 551 824 563 824 c 0
 572 824 574 820 574 817 c 0
 574 808 536 781 488 734 c 1
 435 686 l 2
 422 674 409 668 399 668 c 0
 389 668 378 674 369 686 c 2
 330 734 l 1
 296 780 266 806 266 815 c 0
 266 818 268 824 280 824 c 0
 291 824 304 817 311 812 c 2
 411 746 l 1
 529 812 l 2xae
532 35 m 2
 468 35 401 -10 308 -10 c 0
 138 -10 39 89 39 251 c 0
 39 471 174 607 391 607 c 0xae
 506 607 522 564 599 564 c 1x9e
 588 519 582 469 582 450 c 0xae
 582 442 582 434 583 433 c 1x9e
 551 433 l 1
 544 511 480 575 400 575 c 0
 271 575 188 443 188 238 c 0
 188 102 243 25 334 25 c 0xae
 418 25 494 87 522 167 c 1
 558 167 l 1xee
 543 107 538 80 538 49 c 2
 538 35 l 1
 532 35 l 2
EndSplineSet
EndChar

StartChar: Ccedilla
Encoding: 199 199 16
Width: 593
Flags: MW
HStem: -214 35<246.5 253 232 284> -9 34<284 376 327 327> 35 132<522 532 532 538> 413 20G<551 551 551 583> 433 131<551 599 560.5 583> 575 32<335.5 440>
VStem: 39 149<174 340.5> 237 61<-67.5 -63.5> 295 89<-142.5 -122.5>
LayerCount: 2
Fore
SplineSet
551 433 m 1xd680
 544 511 480 575 400 575 c 0
 271 575 188 443 188 238 c 0
 188 102 243 25 334 25 c 0xd680
 418 25 494 87 522 167 c 1
 558 167 l 1
 543 107 538 80 538 49 c 2
 538 35 l 1
 532 35 l 2
 472 35 410 -4 327 -9 c 1
 306 -36 l 2
 301 -44 298 -52 298 -56 c 0xf7
 298 -79 384 -63 384 -116 c 0
 384 -181 313 -214 255 -214 c 0
 238 -214 209 -213 188 -198 c 1
 206 -165 l 1
 213 -175 225 -179 239 -179 c 0
 267 -179 295 -155 295 -130 c 0
 295 -115 281 -102 267 -94 c 1xd680
 246 -80 l 2
 240 -75 237 -71 237 -66 c 0
 237 -61 239 -57 245 -52 c 1
 284 -9 l 1
 129 -1 39 97 39 251 c 0
 39 471 174 607 391 607 c 0xd7
 506 607 522 564 599 564 c 1xce80
 588 519 582 469 582 450 c 0xd680
 582 442 582 434 583 433 c 1xce80
 551 433 l 1xd680
EndSplineSet
Position2: "'cpsp' Capital Spacing lookup 0 per glyph data 2" dx=5 dy=0 dh=10 dv=0
EndChar

StartChar: D
Encoding: 68 68 17
Width: 636
Flags: MW
HStem: 0 36<216 238 238 262> 562 35<123 128.5 287 291 291 313>
VStem: 476 144<333.5 423 247.5 432.5>
LayerCount: 2
Fore
SplineSet
334 597 m 2
 528 597 620 506 620 340 c 0
 620 155 510 0 262 0 c 2
 8 0 l 1
 13 37 l 1
 52 35 l 1
 53 35 l 2
 64 35 69 46 70 57 c 2
 138 541 l 2
 138 542 138 544 138 545 c 0
 138 554 134 562 123 562 c 2
 87 560 l 1
 92 597 l 1
 334 597 l 2
291 562 m 2
 283 562 278 558 277 549 c 2
 207 49 l 2
 207 47 206 46 206 45 c 0
 206 39 210 36 216 36 c 2
 238 36 l 2
 365 36 424 107 454 202 c 0
 469 251 476 307 476 360 c 0
 476 505 428 562 313 562 c 2
 291 562 l 2
EndSplineSet
Position2: "'cpsp' Capital Spacing lookup 0 per glyph data 2" dx=5 dy=0 dh=10 dv=0
EndChar

StartChar: Eth
Encoding: 208 208 18
Width: 636
Flags: MW
HStem: 0 36<216 238 238 262> 286 43<56 102 50 108 246 390> 562 35<123 128.5 287 291 291 313>
VStem: 476 144<333.5 423 247.5 432.5>
LayerCount: 2
Fore
SplineSet
334 597 m 2
 528 597 620 506 620 340 c 0
 620 155 510 0 262 0 c 2
 8 0 l 1
 13 37 l 1
 53 35 l 2
 64 35 69 46 70 57 c 2
 102 286 l 1
 50 286 l 1
 56 329 l 1
 108 329 l 1
 138 541 l 1
 138 545 l 2
 138 554 134 562 123 562 c 2
 87 560 l 1
 92 597 l 1
 334 597 l 2
238 36 m 2
 365 36 424 107 454 202 c 0
 469 251 476 307 476 360 c 0
 476 505 428 562 313 562 c 2
 291 562 l 2
 283 562 278 558 277 549 c 2
 246 329 l 1
 396 329 l 1
 390 286 l 1
 240 286 l 1
 207 49 l 2
 207 47 206 46 206 45 c 0
 206 39 210 36 216 36 c 2
 238 36 l 2
EndSplineSet
Position2: "'cpsp' Capital Spacing lookup 0 per glyph data 2" dx=5 dy=0 dh=10 dv=0
EndChar

StartChar: Dcaron
Encoding: 270 270 19
Width: 636
Flags: MW
HStem: 0 36<216 238 238 262> 562 35<123 128.5 287 291 291 313> 686 60<323 365 365 389>
VStem: 476 144<333.5 423 247.5 432.5>
LayerCount: 2
Fore
SplineSet
483 812 m 2
 491 817 505 824 517 824 c 0
 526 824 528 820 528 817 c 0
 528 808 490 781 442 734 c 1
 389 686 l 2
 376 674 363 668 353 668 c 0
 343 668 332 674 323 686 c 2
 284 734 l 1
 250 780 220 806 220 815 c 0
 220 818 222 824 234 824 c 0
 245 824 258 817 265 812 c 2
 365 746 l 1
 483 812 l 2
334 597 m 2
 528 597 620 506 620 340 c 0
 620 155 510 0 262 0 c 2
 8 0 l 1
 13 37 l 1
 53 35 l 2
 64 35 69 46 70 57 c 2
 138 541 l 1
 138 545 l 2
 138 554 134 562 123 562 c 2
 87 560 l 1
 92 597 l 1
 334 597 l 2
291 562 m 2
 283 562 278 558 277 549 c 2
 207 49 l 2
 207 47 206 46 206 45 c 0
 206 39 210 36 216 36 c 2
 238 36 l 2
 365 36 424 107 454 202 c 0
 469 251 476 307 476 360 c 0
 476 505 428 562 313 562 c 2
 291 562 l 2
EndSplineSet
EndChar

StartChar: Dcroat
Encoding: 272 272 20
Width: 636
Flags: MW
HStem: 0 36<216 238 238 262> 286 43<56 102 50 108 246 390> 562 35<123 128.5 287 291 291 313>
VStem: 476 144<333.5 423 247.5 432.5>
LayerCount: 2
Fore
SplineSet
334 597 m 2
 528 597 620 506 620 340 c 0
 620 155 510 0 262 0 c 2
 8 0 l 1
 13 37 l 1
 53 35 l 2
 64 35 69 46 70 57 c 2
 102 286 l 1
 50 286 l 1
 56 329 l 1
 108 329 l 1
 138 541 l 1
 138 545 l 2
 138 554 134 562 123 562 c 2
 87 560 l 1
 92 597 l 1
 334 597 l 2
238 36 m 2
 365 36 424 107 454 202 c 0
 469 251 476 307 476 360 c 0
 476 505 428 562 313 562 c 2
 291 562 l 2
 283 562 278 558 277 549 c 2
 246 329 l 1
 396 329 l 1
 390 286 l 1
 240 286 l 1
 207 49 l 2
 207 47 206 46 206 45 c 0
 206 39 210 36 216 36 c 2
 238 36 l 2
EndSplineSet
EndChar

StartChar: E
Encoding: 69 69 21
Width: 566
Flags: MW
HStem: 0 36<216 325 325 370> 290 35<246 311 240 316> 406 20G<405 440 440 440> 443 154<490 525 490 490> 562 35<122 127 287 291 291 367>
VStem: 405 35<426 426>
LayerCount: 2
Fore
SplineSet
525 443 m 1xf4
 490 443 l 1xf4
 491 453 492 463 492 471 c 0
 492 535 453 562 367 562 c 2
 291 562 l 2
 283 562 278 557 277 548 c 2
 246 325 l 1
 316 325 l 2
 360 325 396 362 405 426 c 1
 440 426 l 1
 407 191 l 1
 372 191 l 1
 373 197 373 204 373 210 c 0
 373 257 346 290 311 290 c 2
 240 290 l 1
 207 49 l 2
 207 48 207 47 207 46 c 0
 207 39 210 36 216 36 c 2
 325 36 l 2
 415 36 470 87 483 179 c 1
 518 179 l 1
 493 -3 l 1
 478 -1 440 0 398 0 c 2
 8 0 l 1
 14 38 l 1
 49 35 l 1
 61 35 68 42 70 57 c 2
 138 541 l 2
 138 543 138 544 138 545 c 0
 138 555 132 562 122 562 c 2
 87 560 l 1
 92 597 l 1
 530 597 l 2
 538 597 543 597 547 598 c 1xec
 525 443 l 1xf4
EndSplineSet
Position2: "'cpsp' Capital Spacing lookup 0 per glyph data 2" dx=5 dy=0 dh=10 dv=0
EndChar

StartChar: Eacute
Encoding: 201 201 22
Width: 566
Flags: MW
HStem: 0 36<216 325 325 370> 290 35<246 311 240 316> 406 20G<405 440 440 440> 443 154<490 490 490 525> 562 35<122 127 287 291 291 367>
VStem: 405 35<426 426>
LayerCount: 2
Fore
SplineSet
406 802 m 2xec
 425 820 430 826 445 826 c 0
 468 826 507 804 507 790 c 0
 507 783 503 778 492 772 c 2
 313 669 l 2
 307 665 296 660 288 660 c 0
 281 660 278 663 278 669 c 0
 278 677 283 683 298 697 c 2
 406 802 l 2xec
490 443 m 1xf4
 491 453 492 463 492 471 c 0
 492 535 453 562 367 562 c 2
 291 562 l 2
 283 562 278 557 277 548 c 2
 246 325 l 1
 316 325 l 2
 360 325 396 362 405 426 c 1
 440 426 l 1
 407 191 l 1
 372 191 l 1
 373 197 373 204 373 210 c 0
 373 257 346 290 311 290 c 2
 240 290 l 1
 207 49 l 1
 207 46 l 2
 207 39 210 36 216 36 c 2
 325 36 l 2
 415 36 470 87 483 179 c 1
 518 179 l 1
 493 -3 l 1
 478 -1 440 0 398 0 c 2
 8 0 l 1
 14 38 l 1
 49 35 l 1
 61 35 68 42 70 57 c 2
 138 541 l 1
 138 545 l 2
 138 555 132 562 122 562 c 2
 87 560 l 1
 92 597 l 1
 530 597 l 2
 538 597 543 597 547 598 c 1xec
 525 443 l 1
 490 443 l 1xf4
EndSplineSet
Position2: "'cpsp' Capital Spacing lookup 0 per glyph data 2" dx=5 dy=0 dh=10 dv=0
EndChar

StartChar: Ecaron
Encoding: 282 282 23
Width: 566
Flags: MW
HStem: 0 36<216 325 325 370> 290 35<246 311 240 316> 406 20G<405 440 440 440> 443 154<490 490 490 525> 562 35<122 127 287 291 291 367> 686 60<316 358 358 382>
VStem: 405 35<426 426>
LayerCount: 2
Fore
SplineSet
476 812 m 2xee
 484 817 498 824 510 824 c 0
 519 824 521 820 521 817 c 0
 521 808 483 781 435 734 c 1
 382 686 l 2
 369 674 356 668 346 668 c 0
 336 668 325 674 316 686 c 2
 277 734 l 1
 243 780 213 806 213 815 c 0
 213 818 215 824 227 824 c 0
 238 824 251 817 258 812 c 2
 358 746 l 1
 476 812 l 2xee
490 443 m 1xf6
 491 453 492 463 492 471 c 0
 492 535 453 562 367 562 c 2
 291 562 l 2
 283 562 278 557 277 548 c 2
 246 325 l 1
 316 325 l 2
 360 325 396 362 405 426 c 1
 440 426 l 1
 407 191 l 1
 372 191 l 1
 373 197 373 204 373 210 c 0
 373 257 346 290 311 290 c 2
 240 290 l 1
 207 49 l 1
 207 46 l 2
 207 39 210 36 216 36 c 2
 325 36 l 2
 415 36 470 87 483 179 c 1
 518 179 l 1
 493 -3 l 1
 478 -1 440 0 398 0 c 2
 8 0 l 1
 14 38 l 1
 49 35 l 1
 61 35 68 42 70 57 c 2
 138 541 l 1
 138 545 l 2
 138 555 132 562 122 562 c 2
 87 560 l 1
 92 597 l 1
 530 597 l 2
 538 597 543 597 547 598 c 1xee
 525 443 l 1
 490 443 l 1xf6
EndSplineSet
EndChar

StartChar: Ecircumflex
Encoding: 202 202 24
Width: 566
Flags: MW
HStem: 0 36<216 325 325 370> 290 35<246 311 240 316> 406 20G<405 440 440 440> 443 154<490 490 490 525> 562 35<122 127 287 291 291 367> 744 60<333 357>
VStem: 405 35<426 426>
LayerCount: 2
Fore
SplineSet
239 678 m 2xee
 231 673 217 666 205 666 c 0
 196 666 194 670 194 673 c 0
 194 682 232 709 280 756 c 1
 333 804 l 2
 346 816 359 822 369 822 c 0
 379 822 390 816 399 804 c 2
 438 756 l 1
 472 710 502 684 502 675 c 0
 502 672 500 666 488 666 c 0
 477 666 464 673 457 678 c 2
 357 744 l 1
 239 678 l 2xee
490 443 m 1xf6
 491 453 492 463 492 471 c 0
 492 535 453 562 367 562 c 2
 291 562 l 2
 283 562 278 557 277 548 c 2
 246 325 l 1
 316 325 l 2
 360 325 396 362 405 426 c 1
 440 426 l 1
 407 191 l 1
 372 191 l 1
 373 197 373 204 373 210 c 0
 373 257 346 290 311 290 c 2
 240 290 l 1
 207 49 l 1
 207 46 l 2
 207 39 210 36 216 36 c 2
 325 36 l 2
 415 36 470 87 483 179 c 1
 518 179 l 1
 493 -3 l 1
 478 -1 440 0 398 0 c 2
 8 0 l 1
 14 38 l 1
 49 35 l 1
 61 35 68 42 70 57 c 2
 138 541 l 1
 138 545 l 2
 138 555 132 562 122 562 c 2
 87 560 l 1
 92 597 l 1
 530 597 l 2
 538 597 543 597 547 598 c 1xee
 525 443 l 1
 490 443 l 1xf6
EndSplineSet
Position2: "'cpsp' Capital Spacing lookup 0 per glyph data 2" dx=5 dy=0 dh=10 dv=0
EndChar

StartChar: Edieresis
Encoding: 203 203 25
Width: 566
Flags: MW
HStem: 0 36<216 325 325 370> 290 35<246 311 240 316> 406 20G<405 440 440 440> 443 154<490 490 490 525> 562 35<122 127 287 291 291 367> 677 125<246 278 439 471>
VStem: 184 156<726 752> 377 156<726 752> 405 35<426 426>
LayerCount: 2
Fore
SplineSet
270 802 m 0xee80
 312 802 340 781 340 749 c 0
 340 703 303 677 253 677 c 0
 212 677 184 698 184 730 c 0
 184 774 222 802 270 802 c 0xee80
463 802 m 0xf7
 505 802 533 781 533 749 c 0
 533 703 496 677 446 677 c 0
 405 677 377 698 377 730 c 0
 377 774 415 802 463 802 c 0xf7
490 443 m 1
 491 453 492 463 492 471 c 0
 492 535 453 562 367 562 c 2
 291 562 l 2
 283 562 278 557 277 548 c 2
 246 325 l 1
 316 325 l 2
 360 325 396 362 405 426 c 1
 440 426 l 1
 407 191 l 1
 372 191 l 1
 373 197 373 204 373 210 c 0xee80
 373 257 346 290 311 290 c 2
 240 290 l 1
 207 49 l 1
 207 46 l 2
 207 39 210 36 216 36 c 2
 325 36 l 2
 415 36 470 87 483 179 c 1
 518 179 l 1
 493 -3 l 1
 478 -1 440 0 398 0 c 2
 8 0 l 1
 14 38 l 1
 49 35 l 1
 61 35 68 42 70 57 c 2
 138 541 l 1
 138 545 l 2
 138 555 132 562 122 562 c 2
 87 560 l 1
 92 597 l 1
 530 597 l 2
 538 597 543 597 547 598 c 1xef
 525 443 l 1
 490 443 l 1
EndSplineSet
Position2: "'cpsp' Capital Spacing lookup 0 per glyph data 2" dx=5 dy=0 dh=10 dv=0
EndChar

StartChar: Edotaccent
Encoding: 278 278 26
Width: 566
Flags: MW
HStem: 0 36<216 325 325 370> 290 35<246 311 240 316> 406 20G<405 440 440 440> 443 154<490 490 490 525> 562 35<122 127 287 291 291 367> 679 125<341 373>
VStem: 279 156<728 754> 405 35<426 426>
LayerCount: 2
Fore
SplineSet
365 804 m 0xf6
 407 804 435 783 435 751 c 0
 435 705 398 679 348 679 c 0
 307 679 279 700 279 732 c 0
 279 776 317 804 365 804 c 0xf6
490 443 m 1
 491 453 492 463 492 471 c 0
 492 535 453 562 367 562 c 2
 291 562 l 2
 283 562 278 557 277 548 c 2
 246 325 l 1
 316 325 l 2
 360 325 396 362 405 426 c 1
 440 426 l 1
 407 191 l 1
 372 191 l 1
 373 197 373 204 373 210 c 0
 373 257 346 290 311 290 c 2
 240 290 l 1
 207 49 l 1
 207 46 l 2
 207 39 210 36 216 36 c 2
 325 36 l 2
 415 36 470 87 483 179 c 1
 518 179 l 1
 493 -3 l 1
 478 -1 440 0 398 0 c 2
 8 0 l 1
 14 38 l 1
 49 35 l 1
 61 35 68 42 70 57 c 2
 138 541 l 1
 138 545 l 2
 138 555 132 562 122 562 c 2
 87 560 l 1
 92 597 l 1
 530 597 l 2
 538 597 543 597 547 598 c 1xed
 525 443 l 1
 490 443 l 1
EndSplineSet
EndChar

StartChar: Egrave
Encoding: 200 200 27
Width: 566
Flags: MW
HStem: 0 36<216 325 325 370> 290 35<246 311 240 316> 406 20G<405 440 440 440> 443 154<490 490 490 525> 562 35<122 127 287 291 291 367>
VStem: 405 35<426 426>
LayerCount: 2
Fore
SplineSet
232 772 m 2xec
 225 777 222 782 222 789 c 0
 224 803 271 826 295 826 c 0
 310 826 312 821 326 802 c 2
 408 696 l 1
 416 684 420 678 419 670 c 0
 418 664 413 660 405 660 c 0
 397 660 388 665 382 669 c 2
 232 772 l 2xec
490 443 m 1xf4
 491 453 492 463 492 471 c 0
 492 535 453 562 367 562 c 2
 291 562 l 2
 283 562 278 557 277 548 c 2
 246 325 l 1
 316 325 l 2
 360 325 396 362 405 426 c 1
 440 426 l 1
 407 191 l 1
 372 191 l 1
 373 197 373 204 373 210 c 0
 373 257 346 290 311 290 c 2
 240 290 l 1
 207 49 l 1
 207 46 l 2
 207 39 210 36 216 36 c 2
 325 36 l 2
 415 36 470 87 483 179 c 1
 518 179 l 1
 493 -3 l 1
 478 -1 440 0 398 0 c 2
 8 0 l 1
 14 38 l 1
 49 35 l 1
 61 35 68 42 70 57 c 2
 138 541 l 1
 138 545 l 2
 138 555 132 562 122 562 c 2
 87 560 l 1
 92 597 l 1
 530 597 l 2
 538 597 543 597 547 598 c 1xec
 525 443 l 1
 490 443 l 1xf4
EndSplineSet
Position2: "'cpsp' Capital Spacing lookup 0 per glyph data 2" dx=5 dy=0 dh=10 dv=0
EndChar

StartChar: Emacron
Encoding: 274 274 28
Width: 566
Flags: MW
HStem: 0 36<216 325 325 370> 290 35<246 311 240 316> 406 20G<405 440 440 440> 443 154<490 490 490 525> 562 35<122 127 287 291 291 367> 677 47<234 467 227 474>
VStem: 405 35<426 426>
LayerCount: 2
Fore
SplineSet
467 677 m 1xee
 227 677 l 1
 234 724 l 1
 474 724 l 1
 467 677 l 1xee
490 443 m 1xf6
 491 453 492 463 492 471 c 0
 492 535 453 562 367 562 c 2
 291 562 l 2
 283 562 278 557 277 548 c 2
 246 325 l 1
 316 325 l 2
 360 325 396 362 405 426 c 1
 440 426 l 1
 407 191 l 1
 372 191 l 1
 373 197 373 204 373 210 c 0
 373 257 346 290 311 290 c 2
 240 290 l 1
 207 49 l 1
 207 46 l 2
 207 39 210 36 216 36 c 2
 325 36 l 2
 415 36 470 87 483 179 c 1
 518 179 l 1
 493 -3 l 1
 478 -1 440 0 398 0 c 2
 8 0 l 1
 14 38 l 1
 49 35 l 1
 61 35 68 42 70 57 c 2
 138 541 l 1
 138 545 l 2
 138 555 132 562 122 562 c 2
 87 560 l 1
 92 597 l 1
 530 597 l 2
 538 597 543 597 547 598 c 1xee
 525 443 l 1
 490 443 l 1xf6
EndSplineSet
EndChar

StartChar: Eogonek
Encoding: 280 280 29
Width: 566
Flags: MW
HStem: -159 58<379.5 453.5> 0 36<216 325 325 370> 290 35<246 311 240 316> 406 20G<405 440 440 440> 443 154<490 490 490 525> 562 35<122 127 287 291 291 367>
VStem: 326 72<-117 -49.5> 405 35<426 426>
LayerCount: 2
Fore
SplineSet
490 443 m 1xfa
 491 453 492 463 492 471 c 0
 492 535 453 562 367 562 c 2
 291 562 l 2
 283 562 278 557 277 548 c 2
 246 325 l 1
 316 325 l 2
 360 325 396 362 405 426 c 1
 440 426 l 1
 407 191 l 1
 372 191 l 1
 373 197 373 204 373 210 c 0xf5
 373 257 346 290 311 290 c 2
 240 290 l 1
 207 49 l 1
 207 46 l 2
 207 39 210 36 216 36 c 2
 325 36 l 2
 415 36 470 87 483 179 c 1
 518 179 l 1
 493 -3 l 1
 482 -2 458 -1 429 0 c 1
 409 -16 398 -38 398 -61 c 0
 398 -83 411 -101 442 -101 c 0
 465 -101 489 -93 513 -79 c 1
 523 -99 l 1
 485 -137 441 -159 398 -159 c 0
 361 -159 326 -138 326 -96 c 0
 326 -61 348 -26 389 0 c 1
 8 0 l 1
 14 38 l 1
 49 35 l 1
 61 35 68 42 70 57 c 2
 138 541 l 1
 138 545 l 2
 138 555 132 562 122 562 c 2
 87 560 l 1
 92 597 l 1
 530 597 l 2
 538 597 543 597 547 598 c 1xf6
 525 443 l 1
 490 443 l 1xfa
EndSplineSet
EndChar

StartChar: F
Encoding: 70 70 30
Width: 525
Flags: MW
HStem: 0 35<49 55 218.5 223> 280 35<244 306 239 310> 443 154<500 535 500 500> 562 35<125 129.5 287 291 291 377>
VStem: 403 35<417 417>
LayerCount: 2
Fore
SplineSet
535 443 m 1xe8
 500 443 l 1xe8
 502 454 503 464 503 473 c 0
 503 535 462 562 377 562 c 2
 291 562 l 2
 283 562 278 558 277 549 c 2
 244 315 l 1
 310 315 l 2
 357 315 394 353 403 417 c 1
 438 417 l 1
 405 180 l 1
 370 180 l 1
 371 187 371 194 371 201 c 0
 371 250 346 280 306 280 c 2
 239 280 l 1
 208 56 l 2
 208 55 208 53 208 52 c 0
 208 42 214 35 223 35 c 2
 276 38 l 1
 270 0 l 1
 8 0 l 1
 14 38 l 1
 49 35 l 1
 61 35 68 42 70 57 c 2
 138 541 l 2
 138 543 138 545 138 547 c 0
 138 557 134 562 125 562 c 2
 87 560 l 1
 92 597 l 1
 542 597 l 2
 548 597 553 597 557 598 c 1xd8
 535 443 l 1xe8
EndSplineSet
Position2: "'cpsp' Capital Spacing lookup 0 per glyph data 2" dx=5 dy=0 dh=10 dv=0
EndChar

StartChar: G
Encoding: 71 71 31
Width: 646
Flags: MW
HStem: -10 35<274 335.5 274 367> 238 34<424 429 593 598> 426 138<587.5 591 540 611> 575 32<335.5 451.5>
VStem: 38 147<159.5 324 149.5 361> 544 47<426 449>
LayerCount: 2
Fore
SplineSet
552 35 m 1
 546 36 540 37 533 37 c 0
 484 37 431 -10 303 -10 c 0
 138 -10 38 75 38 244 c 0
 38 478 173 607 397 607 c 0xdc
 508 607 564 564 611 564 c 1
 599 518 594 479 591 426 c 1
 540 426 l 1xfc
 543 433 544 437 544 449 c 0
 550 530 500 575 403 575 c 0
 268 575 185 434 185 214 c 0
 185 85 232 25 316 25 c 0
 355 25 385 35 418 68 c 1
 439 216 l 2
 439 218 439 220 439 222 c 0
 439 233 434 238 424 238 c 2
 365 236 l 1
 370 272 l 1
 636 272 l 1
 631 236 l 1
 598 238 l 2
 588 238 579 228 577 217 c 2
 552 35 l 1
EndSplineSet
Position2: "'cpsp' Capital Spacing lookup 0 per glyph data 2" dx=5 dy=0 dh=10 dv=0
EndChar

StartChar: Gbreve
Encoding: 286 286 32
Width: 646
Flags: MW
HStem: -10 35<274 335.5 274 367> 238 34<424 429 593 598> 426 138<587.5 591 540 611> 575 32<335.5 451.5> 659 65<365 419.5 365 423.5>
VStem: 38 147<159.5 324 149.5 361> 544 47<426 449>
LayerCount: 2
Fore
SplineSet
536 790 m 1
 523 713 463 659 384 659 c 0
 311 659 269 704 269 770 c 0
 269 777 269 783 270 790 c 1
 317 790 l 1
 320 758 337 724 393 724 c 0
 446 724 477 758 489 790 c 1
 536 790 l 1
552 35 m 1
 546 36 540 37 533 37 c 0
 484 37 431 -10 303 -10 c 0
 138 -10 38 75 38 244 c 0
 38 478 173 607 397 607 c 0xde
 508 607 564 564 611 564 c 1
 599 518 594 479 591 426 c 1
 540 426 l 1xfe
 543 433 544 437 544 449 c 0
 550 530 500 575 403 575 c 0
 268 575 185 434 185 214 c 0
 185 85 232 25 316 25 c 0
 355 25 385 35 418 68 c 1
 439 216 l 1
 439 222 l 2
 439 233 434 238 424 238 c 2
 365 236 l 1
 370 272 l 1
 636 272 l 1
 631 236 l 1
 598 238 l 2
 588 238 579 228 577 217 c 2
 552 35 l 1
EndSplineSet
EndChar

StartChar: Gcommaaccent
Encoding: 290 290 33
Width: 646
Flags: MW
HStem: -141 107<250.5 320.5> -10 35<274 335.5 274 367> 238 34<424 429 593 598> 426 138<587.5 591 540 611> 575 32<335.5 451.5>
VStem: 38 147<159.5 324 149.5 361> 227 141<-110 -84.5 -135 -84> 544 47<426 449>
LayerCount: 2
Fore
SplineSet
552 35 m 1
 546 36 540 37 533 37 c 0
 484 37 431 -10 303 -10 c 0
 138 -10 38 75 38 244 c 0
 38 478 173 607 397 607 c 0x6f
 508 607 564 564 611 564 c 1
 599 518 594 479 591 426 c 1
 540 426 l 1x7f
 543 433 544 437 544 449 c 0
 550 530 500 575 403 575 c 0
 268 575 185 434 185 214 c 0
 185 85 232 25 316 25 c 0
 355 25 385 35 418 68 c 1
 439 216 l 1
 439 222 l 2
 439 233 434 238 424 238 c 2
 365 236 l 1
 370 272 l 1
 636 272 l 1
 631 236 l 1
 598 238 l 2
 588 238 579 228 577 217 c 2
 552 35 l 1
231 -229 m 1
 258 -213 286 -187 286 -166 c 1
 287 -146 275 -141 262 -141 c 0
 239 -141 227 -121 227 -99 c 0
 227 -69 250 -34 298 -34 c 0
 343 -34 368 -67 368 -102 c 0xef
 368 -168 307 -224 248 -251 c 1
 231 -229 l 1
EndSplineSet
EndChar

StartChar: H
Encoding: 72 72 34
Width: 691
Flags: MW
HStem: 0 35<48 50 50 56 219 224 417 423.5> 287 35<245 471 240 476> 562 35<123 123 292.5 299 491 497.5 660 666>
VStem: 8 698<0 597>
LayerCount: 2
Fore
SplineSet
701 560 m 1
 666 562 l 2
 654 562 646 553 645 541 c 2
 576 57 l 2
 576 55 576 53 576 51 c 0
 576 40 581 34 592 35 c 2
 627 37 l 1
 622 0 l 1
 363 0 l 1
 368 37 l 1
 417 35 l 2
 430 35 436 42 438 57 c 2
 471 287 l 1
 240 287 l 1
 208 57 l 2
 208 55 208 53 208 52 c 0
 208 40 214 35 224 35 c 2
 273 37 l 1
 268 0 l 1
 8 0 l 1
 13 37 l 1
 48 35 l 2
 49 35 49 35 50 35 c 0
 62 35 68 43 70 57 c 2
 138 541 l 2
 138 543 139 545 139 547 c 0
 139 556 134 563 123 562 c 2
 87 560 l 1
 92 597 l 1
 352 597 l 1
 347 560 l 1
 299 562 l 2
 286 562 277 553 276 541 c 2
 245 322 l 1
 476 322 l 1
 507 541 l 2
 507 542 507 544 507 545 c 0
 507 555 504 562 491 562 c 2
 442 560 l 1
 447 597 l 1
 706 597 l 1
 701 560 l 1
EndSplineSet
Position2: "'cpsp' Capital Spacing lookup 0 per glyph data 2" dx=5 dy=0 dh=10 dv=0
EndChar

StartChar: I
Encoding: 73 73 35
Width: 323
Flags: MW
HStem: 0 35<48 50 50 56> 562 35<123 128 293 299>
VStem: 8 331
LayerCount: 2
Fore
SplineSet
333 560 m 1
 299 562 l 2
 287 562 277 553 276 541 c 2
 208 57 l 2
 208 55 208 53 208 52 c 0
 208 40 214 34 224 35 c 2
 259 37 l 1
 255 0 l 1
 8 0 l 1
 13 37 l 1
 48 35 l 2
 49 35 49 35 50 35 c 0
 62 35 68 43 70 57 c 2
 138 541 l 2
 138 543 138 544 138 546 c 0
 138 555 133 562 123 562 c 2
 87 560 l 1
 92 597 l 1
 339 597 l 1
 333 560 l 1
EndSplineSet
Position2: "'cpsp' Capital Spacing lookup 0 per glyph data 2" dx=5 dy=0 dh=10 dv=0
EndChar

StartChar: IJ
Encoding: 306 306 36
Width: 778
Flags: MW
HStem: -10 34<440 476 422.5 529.5> 0 35<48 50 50 56> 5 167<347 366> 562 35<123 128 293 299 584 589 753.5 760>
VStem: 8 791<0 597>
LayerCount: 2
Fore
SplineSet
299 562 m 2x58
 287 562 277 553 276 541 c 2
 208 57 l 1
 208 52 l 2
 208 40 214 34 224 35 c 2
 259 37 l 1
 255 0 l 1
 8 0 l 1
 13 37 l 1
 48 35 l 1
 50 35 l 2
 62 35 68 43 70 57 c 2
 138 541 l 1
 138 546 l 2
 138 555 133 562 123 562 c 2
 87 560 l 1
 92 597 l 1
 339 597 l 1
 333 560 l 1
 299 562 l 2x58
793 560 m 1
 760 562 l 2
 747 562 739 553 737 542 c 2
 686 179 l 2
 668 51 593 -10 466 -10 c 0x98
 414 -10 379 5 353 5 c 0
 341 5 325 5 316 -2 c 1
 341 172 l 1
 385 172 l 1x38
 383 159 382 145 382 130 c 0
 382 79 397 24 448 24 c 0x98
 504 24 532 64 548 179 c 2
 599 541 l 2
 599 543 599 544 599 545 c 0
 599 555 594 562 584 562 c 2
 514 560 l 1
 520 597 l 1
 799 597 l 1
 793 560 l 1
EndSplineSet
Position2: "'cpsp' Capital Spacing lookup 0 per glyph data 2" dx=5 dy=0 dh=10 dv=0
EndChar

StartChar: Iacute
Encoding: 205 205 37
Width: 323
Flags: MW
HStem: 0 35<48 50 50 56> 562 35<123 128 293 299>
VStem: 8 368
LayerCount: 2
Fore
SplineSet
275 802 m 2
 294 820 299 826 314 826 c 0
 337 826 376 804 376 790 c 0
 376 783 372 778 361 772 c 2
 182 669 l 2
 176 665 165 660 157 660 c 0
 150 660 147 663 147 669 c 0
 147 677 152 683 167 697 c 2
 275 802 l 2
299 562 m 2
 287 562 277 553 276 541 c 2
 208 57 l 1
 208 52 l 2
 208 40 214 34 224 35 c 2
 259 37 l 1
 255 0 l 1
 8 0 l 1
 13 37 l 1
 48 35 l 1
 50 35 l 2
 62 35 68 43 70 57 c 2
 138 541 l 1
 138 546 l 2
 138 555 133 562 123 562 c 2
 87 560 l 1
 92 597 l 1
 339 597 l 1
 333 560 l 1
 299 562 l 2
EndSplineSet
Position2: "'cpsp' Capital Spacing lookup 0 per glyph data 2" dx=5 dy=0 dh=10 dv=0
EndChar

StartChar: Icircumflex
Encoding: 206 206 38
Width: 323
Flags: MW
HStem: 0 35<48 50 50 56> 562 35<123 128 293 299> 744 60<202 226>
VStem: 8 363
LayerCount: 2
Fore
SplineSet
108 678 m 2
 100 673 86 666 74 666 c 0
 65 666 63 670 63 673 c 0
 63 682 101 709 149 756 c 1
 202 804 l 2
 215 816 228 822 238 822 c 0
 248 822 259 816 268 804 c 2
 307 756 l 1
 341 710 371 684 371 675 c 0
 371 672 369 666 357 666 c 0
 346 666 333 673 326 678 c 2
 226 744 l 1
 108 678 l 2
299 562 m 2
 287 562 277 553 276 541 c 2
 208 57 l 1
 208 52 l 2
 208 40 214 34 224 35 c 2
 259 37 l 1
 255 0 l 1
 8 0 l 1
 13 37 l 1
 48 35 l 1
 50 35 l 2
 62 35 68 43 70 57 c 2
 138 541 l 1
 138 546 l 2
 138 555 133 562 123 562 c 2
 87 560 l 1
 92 597 l 1
 339 597 l 1
 333 560 l 1
 299 562 l 2
EndSplineSet
Position2: "'cpsp' Capital Spacing lookup 0 per glyph data 2" dx=5 dy=0 dh=10 dv=0
EndChar

StartChar: Idieresis
Encoding: 207 207 39
Width: 323
Flags: MW
HStem: 0 35<48 50 50 56> 562 35<123 128 293 299> 677 125<115 147 309 341>
VStem: 53 156<726 752> 247 156<726 752>
LayerCount: 2
Fore
SplineSet
139 802 m 0
 181 802 209 781 209 749 c 0
 209 703 172 677 122 677 c 0
 81 677 53 698 53 730 c 0
 53 774 91 802 139 802 c 0
333 802 m 0
 375 802 403 781 403 749 c 0
 403 703 366 677 316 677 c 0
 275 677 247 698 247 730 c 0
 247 774 285 802 333 802 c 0
299 562 m 2
 287 562 277 553 276 541 c 2
 208 57 l 1
 208 52 l 2
 208 40 214 34 224 35 c 2
 259 37 l 1
 255 0 l 1
 8 0 l 1
 13 37 l 1
 48 35 l 1
 50 35 l 2
 62 35 68 43 70 57 c 2
 138 541 l 1
 138 546 l 2
 138 555 133 562 123 562 c 2
 87 560 l 1
 92 597 l 1
 339 597 l 1
 333 560 l 1
 299 562 l 2
EndSplineSet
Position2: "'cpsp' Capital Spacing lookup 0 per glyph data 2" dx=5 dy=0 dh=10 dv=0
EndChar

StartChar: Idotaccent
Encoding: 304 304 40
Width: 323
Flags: MW
HStem: 0 35<48 50 50 56> 562 35<123 128 293 299> 679 125<210 242>
VStem: 148 156<728 754>
LayerCount: 2
Fore
SplineSet
234 804 m 0
 276 804 304 783 304 751 c 0
 304 705 267 679 217 679 c 0
 176 679 148 700 148 732 c 0
 148 776 186 804 234 804 c 0
299 562 m 2
 287 562 277 553 276 541 c 2
 208 57 l 1
 208 52 l 2
 208 40 214 34 224 35 c 2
 259 37 l 1
 255 0 l 1
 8 0 l 1
 13 37 l 1
 48 35 l 1
 50 35 l 2
 62 35 68 43 70 57 c 2
 138 541 l 1
 138 546 l 2
 138 555 133 562 123 562 c 2
 87 560 l 1
 92 597 l 1
 339 597 l 1
 333 560 l 1
 299 562 l 2
EndSplineSet
EndChar

StartChar: Igrave
Encoding: 204 204 41
Width: 323
Flags: MW
HStem: 0 35<48 50 50 56> 562 35<123 128 293 299>
VStem: 8 331
LayerCount: 2
Fore
SplineSet
101 772 m 2
 94 777 91 782 91 789 c 0
 93 803 140 826 164 826 c 0
 179 826 181 821 195 802 c 2
 277 696 l 1
 285 684 289 678 288 670 c 0
 287 664 282 660 274 660 c 0
 266 660 257 665 251 669 c 2
 101 772 l 2
299 562 m 2
 287 562 277 553 276 541 c 2
 208 57 l 1
 208 52 l 2
 208 40 214 34 224 35 c 2
 259 37 l 1
 255 0 l 1
 8 0 l 1
 13 37 l 1
 48 35 l 1
 50 35 l 2
 62 35 68 43 70 57 c 2
 138 541 l 1
 138 546 l 2
 138 555 133 562 123 562 c 2
 87 560 l 1
 92 597 l 1
 339 597 l 1
 333 560 l 1
 299 562 l 2
EndSplineSet
Position2: "'cpsp' Capital Spacing lookup 0 per glyph data 2" dx=5 dy=0 dh=10 dv=0
EndChar

StartChar: Imacron
Encoding: 298 298 42
Width: 323
Flags: MW
HStem: 0 35<48 50 50 56> 562 35<123 128 293 299> 677 47<103 336 96 343>
VStem: 8 335
LayerCount: 2
Fore
SplineSet
336 677 m 1
 96 677 l 1
 103 724 l 1
 343 724 l 1
 336 677 l 1
299 562 m 2
 287 562 277 553 276 541 c 2
 208 57 l 1
 208 52 l 2
 208 40 214 34 224 35 c 2
 259 37 l 1
 255 0 l 1
 8 0 l 1
 13 37 l 1
 48 35 l 1
 50 35 l 2
 62 35 68 43 70 57 c 2
 138 541 l 1
 138 546 l 2
 138 555 133 562 123 562 c 2
 87 560 l 1
 92 597 l 1
 339 597 l 1
 333 560 l 1
 299 562 l 2
EndSplineSet
EndChar

StartChar: Iogonek
Encoding: 302 302 43
Width: 323
Flags: MW
HStem: -159 58<147.5 221.5> 0 35<48 50 50 56 48 157> 562 35<123 128 293 299>
VStem: 94 72<-117 -49.5>
LayerCount: 2
Fore
SplineSet
339 597 m 1
 333 560 l 1
 299 562 l 2
 287 562 277 553 276 541 c 2
 208 57 l 1
 208 52 l 2
 208 40 214 34 224 35 c 2
 259 37 l 1
 255 0 l 1
 197 0 l 1
 177 -16 166 -38 166 -61 c 0
 166 -83 179 -101 210 -101 c 0
 233 -101 257 -93 281 -79 c 1
 291 -99 l 1
 253 -137 209 -159 166 -159 c 0
 129 -159 94 -138 94 -96 c 0
 94 -61 116 -26 157 0 c 1
 8 0 l 1
 13 37 l 1
 48 35 l 1
 50 35 l 2
 62 35 68 43 70 57 c 2
 138 541 l 1
 138 546 l 2
 138 555 133 562 123 562 c 2
 87 560 l 1
 92 597 l 1
 339 597 l 1
EndSplineSet
EndChar

StartChar: J
Encoding: 74 74 44
Width: 455
Flags: MW
HStem: -10 34<117 153 99.5 206.5> 5 167<24 43> 562 35<261 266 430.5 437>
VStem: -7 483
LayerCount: 2
Fore
SplineSet
470 560 m 1xb0
 437 562 l 2
 424 562 416 553 414 542 c 2
 363 179 l 2
 345 51 270 -10 143 -10 c 0xb0
 91 -10 56 5 30 5 c 0
 18 5 2 5 -7 -2 c 1
 18 172 l 1
 62 172 l 1x70
 60 159 59 145 59 130 c 0
 59 79 74 24 125 24 c 0
 181 24 209 64 225 179 c 2
 276 541 l 2
 276 543 276 544 276 545 c 0
 276 555 271 562 261 562 c 2
 191 560 l 1
 197 597 l 1
 476 597 l 1
 470 560 l 1xb0
EndSplineSet
Position2: "'cpsp' Capital Spacing lookup 0 per glyph data 2" dx=5 dy=0 dh=10 dv=0
EndChar

StartChar: K
Encoding: 75 75 45
Width: 634
Flags: MW
HStem: 0 34<363 365 365 373 568.5 577.5> 562 35<123 128 292.5 299 493 496 600 600>
VStem: 8 632<0 597>
LayerCount: 2
Fore
SplineSet
600 562 m 2
 581 563 565 558 540 533 c 2
 380 373 l 1
 551 48 l 2
 556 39 564 34 573 34 c 0
 582 34 593 35 603 37 c 1
 598 0 l 1
 314 0 l 1
 319 37 l 1
 363 34 l 2
 364 34 365 34 365 34 c 2
 381 34 388 43 380 59 c 2
 272 265 l 1
 231 224 l 1
 208 57 l 2
 208 55 208 53 208 52 c 0
 208 40 214 34 224 35 c 2
 269 37 l 1
 265 0 l 1
 8 0 l 1
 13 37 l 1
 48 35 l 2
 49 35 49 35 50 35 c 0
 62 35 68 43 70 57 c 2
 138 541 l 2
 138 543 138 544 138 546 c 0
 138 555 133 562 123 562 c 2
 87 560 l 1
 92 597 l 1
 352 597 l 1
 347 560 l 1
 299 562 l 2
 286 562 278 555 275 540 c 2
 239 279 l 1
 484 529 l 1
 498 545 501 551 501 555 c 0
 501 560 499 562 493 562 c 2
 456 560 l 1
 462 597 l 1
 640 597 l 1
 635 560 l 1
 600 562 l 2
EndSplineSet
Position2: "'cpsp' Capital Spacing lookup 0 per glyph data 2" dx=5 dy=0 dh=10 dv=0
EndChar

StartChar: Kcommaaccent
Encoding: 310 310 46
Width: 634
Flags: MW
HStem: -141 107<243.5 313.5> 0 34<363 365 365 370.5 568.5 577.5> 562 35<123 128 292.5 299 493 496 600 600>
VStem: 220 141<-110 -84.5 -135 -84>
LayerCount: 2
Fore
SplineSet
600 562 m 2
 581 563 565 558 540 533 c 2
 380 373 l 1
 551 48 l 2
 556 39 564 34 573 34 c 0
 582 34 593 35 603 37 c 1
 598 0 l 1
 314 0 l 1
 319 37 l 1
 363 34 l 1
 365 34 l 2
 376 34 383 39 383 47 c 0
 383 51 382 54 380 59 c 2
 272 265 l 1
 231 224 l 1
 208 57 l 1
 208 52 l 2
 208 40 214 34 224 35 c 2
 269 37 l 1
 265 0 l 1
 8 0 l 1
 13 37 l 1
 48 35 l 1
 50 35 l 2
 62 35 68 43 70 57 c 2
 138 541 l 1
 138 546 l 2
 138 555 133 562 123 562 c 2
 87 560 l 1
 92 597 l 1
 352 597 l 1
 347 560 l 1
 299 562 l 2
 286 562 278 555 275 540 c 2
 239 279 l 1
 484 529 l 1
 498 545 501 551 501 555 c 0
 501 560 499 562 493 562 c 2
 456 560 l 1
 462 597 l 1
 640 597 l 1
 635 560 l 1
 600 562 l 2
224 -229 m 1
 251 -213 279 -187 279 -166 c 1
 280 -146 268 -141 255 -141 c 0
 232 -141 220 -121 220 -99 c 0
 220 -69 243 -34 291 -34 c 0
 336 -34 361 -67 361 -102 c 0
 361 -168 300 -224 241 -251 c 1
 224 -229 l 1
EndSplineSet
EndChar

StartChar: L
Encoding: 76 76 47
Width: 510
Flags: MW
HStem: 0 36<216 298 298 335> 562 35<123 128 293 299>
VStem: 8 474<0 171>
LayerCount: 2
Fore
SplineSet
347 560 m 1
 299 562 l 2
 287 562 277 553 276 541 c 2
 207 49 l 2
 207 48 207 47 207 46 c 0
 207 39 210 36 216 36 c 2
 298 36 l 2
 384 36 436 83 448 171 c 1
 482 171 l 1
 458 -3 l 1
 446 -1 405 0 335 0 c 2
 8 0 l 1
 14 38 l 1
 52 35 l 2
 63 35 69 45 70 57 c 2
 138 541 l 2
 138 542 138 544 138 545 c 0
 138 554 133 562 123 562 c 2
 87 560 l 1
 92 597 l 1
 352 597 l 1
 347 560 l 1
EndSplineSet
Position2: "Single Positioning lookup 3 subtable" dx=0 dy=0 dh=-40 dv=0
Position2: "'cpsp' Capital Spacing lookup 0 per glyph data 2" dx=5 dy=0 dh=10 dv=0
EndChar

StartChar: Lacute
Encoding: 313 313 48
Width: 510
Flags: MW
HStem: 0 36<216 298 298 335> 562 35<123 128 293 299>
VStem: 8 474<0 171>
LayerCount: 2
Fore
SplineSet
284 802 m 2
 303 820 308 826 323 826 c 0
 346 826 385 804 385 790 c 0
 385 783 381 778 370 772 c 2
 191 669 l 2
 185 665 174 660 166 660 c 0
 159 660 156 663 156 669 c 0
 156 677 161 683 176 697 c 2
 284 802 l 2
299 562 m 2
 287 562 277 553 276 541 c 2
 207 49 l 1
 207 46 l 2
 207 39 210 36 216 36 c 2
 298 36 l 2
 384 36 436 83 448 171 c 1
 482 171 l 1
 458 -3 l 1
 446 -1 405 0 335 0 c 2
 8 0 l 1
 14 38 l 1
 52 35 l 2
 63 35 69 45 70 57 c 2
 138 541 l 1
 138 545 l 2
 138 554 133 562 123 562 c 2
 87 560 l 1
 92 597 l 1
 352 597 l 1
 347 560 l 1
 299 562 l 2
EndSplineSet
EndChar

StartChar: Lcaron
Encoding: 317 317 49
Width: 510
Flags: MW
HStem: 0 36<216 298 298 335> 534 97<408.5 474> 562 35<123 128 293 299>
VStem: 386 131<559 588 541.5 588.5>
LayerCount: 2
Fore
SplineSet
392 461 m 1xb0
 413 474 437 494 437 515 c 0
 437 516 437 517 437 517 c 2
 437 530 428 534 419 534 c 0
 398 534 386 548 386 570 c 0
 386 607 418 631 456 631 c 0
 492 631 517 606 517 570 c 0xd0
 517 513 460 461 410 439 c 1
 392 461 l 1xb0
299 562 m 2
 287 562 277 553 276 541 c 2
 207 49 l 1
 207 46 l 2
 207 39 210 36 216 36 c 2
 298 36 l 2
 384 36 436 83 448 171 c 1
 482 171 l 1
 458 -3 l 1
 446 -1 405 0 335 0 c 2
 8 0 l 1
 14 38 l 1
 52 35 l 2
 63 35 69 45 70 57 c 2
 138 541 l 1
 138 545 l 2
 138 554 133 562 123 562 c 2
 87 560 l 1
 92 597 l 1
 352 597 l 1
 347 560 l 1
 299 562 l 2
EndSplineSet
EndChar

StartChar: Lcommaaccent
Encoding: 315 315 50
Width: 510
Flags: MW
HStem: -141 107<160.5 230.5> 0 36<216 298 298 335> 562 35<123 128 293 299>
VStem: 137 141<-110 -84.5 -135 -84>
LayerCount: 2
Fore
SplineSet
299 562 m 2
 287 562 277 553 276 541 c 2
 207 49 l 1
 207 46 l 2
 207 39 210 36 216 36 c 2
 298 36 l 2
 384 36 436 83 448 171 c 1
 482 171 l 1
 458 -3 l 1
 446 -1 405 0 335 0 c 2
 8 0 l 1
 14 38 l 1
 52 35 l 2
 63 35 69 45 70 57 c 2
 138 541 l 1
 138 545 l 2
 138 554 133 562 123 562 c 2
 87 560 l 1
 92 597 l 1
 352 597 l 1
 347 560 l 1
 299 562 l 2
141 -229 m 1
 168 -213 196 -187 196 -166 c 1
 197 -146 185 -141 172 -141 c 0
 149 -141 137 -121 137 -99 c 0
 137 -69 160 -34 208 -34 c 0
 253 -34 278 -67 278 -102 c 0
 278 -168 217 -224 158 -251 c 1
 141 -229 l 1
EndSplineSet
EndChar

StartChar: Ldot
Encoding: 319 319 51
Width: 510
Flags: MW
HStem: 0 36<216 298 298 335> 269 150<408 446> 562 35<123 128 293 299>
VStem: 8 512<0 373.5> 335 185<327 360.5>
LayerCount: 2
Fore
SplineSet
299 562 m 2xb0
 287 562 277 553 276 541 c 2
 207 49 l 1
 207 46 l 2
 207 39 210 36 216 36 c 2
 298 36 l 2
 384 36 436 83 448 171 c 1
 482 171 l 1
 458 -3 l 1
 446 -1 405 0 335 0 c 2
 8 0 l 1
 14 38 l 1
 52 35 l 2
 63 35 69 45 70 57 c 2
 138 541 l 1
 138 545 l 2
 138 554 133 562 123 562 c 2
 87 560 l 1
 92 597 l 1
 352 597 l 1
 347 560 l 1
 299 562 l 2xb0
335 335 m 0xe8
 335 386 379 419 437 419 c 0
 487 419 520 394 520 353 c 0
 520 301 475 269 417 269 c 0
 367 269 335 293 335 335 c 0xe8
EndSplineSet
Ligature2: "Ligature Substitution lookup 20 subtable" L periodcentered
Position2: "'cpsp' Capital Spacing lookup 0 per glyph data 2" dx=5 dy=0 dh=10 dv=0
EndChar

StartChar: Lslash
Encoding: 321 321 52
Width: 498
Flags: MW
HStem: 0 36<216 298 298 335> 405 20G<321 321> 562 35<123 128 293 299>
VStem: 8 474<0 171>
LayerCount: 2
Fore
SplineSet
482 171 m 1
 458 -3 l 1
 446 -1 405 0 335 0 c 2
 8 0 l 1
 14 38 l 1
 52 35 l 2
 63 35 69 45 70 57 c 2
 92 211 l 1
 42 173 l 1
 49 220 l 1
 98 258 l 1
 138 541 l 1
 138 545 l 2
 138 554 133 562 123 562 c 2
 87 560 l 1
 92 597 l 1
 352 597 l 1
 347 560 l 1
 299 562 l 2
 287 562 277 553 276 541 c 2
 252 372 l 1
 321 425 l 1
 314 377 l 1
 246 324 l 1
 207 49 l 1
 207 46 l 2
 207 39 210 36 216 36 c 2
 298 36 l 2
 384 36 436 83 448 171 c 1
 482 171 l 1
EndSplineSet
Position2: "'cpsp' Capital Spacing lookup 0 per glyph data 2" dx=5 dy=0 dh=10 dv=0
EndChar

StartChar: M
Encoding: 77 77 53
Width: 877
Flags: MW
HStem: 0 35<47 53.5 121.5 127 603 609> 562 35<132 135 847 853>
VStem: 3 885<0 597>
LayerCount: 2
Fore
SplineSet
883 560 m 1
 853 562 l 2
 841 562 832 553 831 542 c 2
 762 57 l 2
 762 55 762 53 762 52 c 0
 762 40 768 34 779 35 c 2
 814 37 l 1
 809 0 l 1
 549 0 l 1
 554 37 l 1
 603 35 l 2
 615 35 623 42 625 57 c 2
 688 502 l 1
 389 -10 l 1
 357 -10 l 1
 177 525 l 1
 112 57 l 2
 112 55 112 52 112 50 c 0
 112 40 116 35 127 35 c 2
 176 37 l 1
 171 0 l 1
 3 0 l 1
 8 37 l 1
 47 35 l 2
 60 35 68 42 70 57 c 2
 140 556 l 2
 140 560 138 562 132 562 c 2
 89 560 l 1
 94 597 l 1
 300 597 l 1
 445 160 l 1
 702 597 l 1
 888 597 l 1
 883 560 l 1
EndSplineSet
Position2: "'cpsp' Capital Spacing lookup 0 per glyph data 2" dx=5 dy=0 dh=10 dv=0
EndChar

StartChar: N
Encoding: 78 78 54
Width: 672
Flags: MW
HStem: 0 27<46 52.5 121 126> 569 28<122 122 573 577.5 642.5 648>
VStem: 3 690<0 597>
LayerCount: 2
Fore
SplineSet
689 567 m 1
 648 569 l 2
 637 569 630 562 628 548 c 2
 550 -6 l 1
 490 -6 l 1
 177 524 l 1
 111 49 l 2
 111 47 111 45 111 43 c 0
 111 32 116 27 126 27 c 2
 175 29 l 1
 171 0 l 1
 3 0 l 1
 7 29 l 1
 46 27 l 2
 59 27 67 34 69 49 c 2
 139 553 l 1
 139 562 133 570 122 569 c 2
 83 567 l 1
 87 597 l 1
 293 597 l 1
 535 184 l 1
 586 549 l 2
 586 551 586 553 586 554 c 0
 586 564 582 569 573 569 c 2
 521 567 l 1
 525 597 l 1
 693 597 l 1
 689 567 l 1
EndSplineSet
Position2: "'cpsp' Capital Spacing lookup 0 per glyph data 2" dx=5 dy=0 dh=10 dv=0
EndChar

StartChar: Nacute
Encoding: 323 323 55
Width: 672
Flags: MW
HStem: 0 27<46 52.5 121 126> 569 28<122 122 573 577.5 642.5 648>
VStem: 3 690<0 597>
LayerCount: 2
Fore
SplineSet
444 802 m 2
 463 820 468 826 483 826 c 0
 506 826 545 804 545 790 c 0
 545 783 541 778 530 772 c 2
 351 669 l 2
 345 665 334 660 326 660 c 0
 319 660 316 663 316 669 c 0
 316 677 321 683 336 697 c 2
 444 802 l 2
648 569 m 2
 637 569 630 562 628 548 c 2
 550 -6 l 1
 490 -6 l 1
 177 524 l 1
 111 49 l 1
 111 43 l 2
 111 32 116 27 126 27 c 2
 175 29 l 1
 171 0 l 1
 3 0 l 1
 7 29 l 1
 46 27 l 2
 59 27 67 34 69 49 c 2
 139 553 l 1
 139 562 133 570 122 569 c 2
 83 567 l 1
 87 597 l 1
 293 597 l 1
 535 184 l 1
 586 549 l 1
 586 554 l 2
 586 564 582 569 573 569 c 2
 521 567 l 1
 525 597 l 1
 693 597 l 1
 689 567 l 1
 648 569 l 2
EndSplineSet
EndChar

StartChar: Ncaron
Encoding: 327 327 56
Width: 672
Flags: MW
HStem: 0 27<46 52.5 121 126> 569 28<122 122 573 577.5 642.5 648> 686 60<354 396 396 420>
VStem: 3 690<0 597>
LayerCount: 2
Fore
SplineSet
514 812 m 2
 522 817 536 824 548 824 c 0
 557 824 559 820 559 817 c 0
 559 808 521 781 473 734 c 1
 420 686 l 2
 407 674 394 668 384 668 c 0
 374 668 363 674 354 686 c 2
 315 734 l 1
 281 780 251 806 251 815 c 0
 251 818 253 824 265 824 c 0
 276 824 289 817 296 812 c 2
 396 746 l 1
 514 812 l 2
648 569 m 2
 637 569 630 562 628 548 c 2
 550 -6 l 1
 490 -6 l 1
 177 524 l 1
 111 49 l 1
 111 43 l 2
 111 32 116 27 126 27 c 2
 175 29 l 1
 171 0 l 1
 3 0 l 1
 7 29 l 1
 46 27 l 2
 59 27 67 34 69 49 c 2
 139 553 l 1
 139 562 133 570 122 569 c 2
 83 567 l 1
 87 597 l 1
 293 597 l 1
 535 184 l 1
 586 549 l 1
 586 554 l 2
 586 564 582 569 573 569 c 2
 521 567 l 1
 525 597 l 1
 693 597 l 1
 689 567 l 1
 648 569 l 2
EndSplineSet
EndChar

StartChar: Ncommaaccent
Encoding: 325 325 57
Width: 672
Flags: MW
HStem: -141 107<268.5 338.5> 0 27<46 52.5 121 126> 569 28<122 122 573 577.5 642.5 648>
VStem: 245 141<-110 -84.5 -135 -84>
LayerCount: 2
Fore
SplineSet
648 569 m 2
 637 569 630 562 628 548 c 2
 550 -6 l 1
 490 -6 l 1
 177 524 l 1
 111 49 l 1
 111 43 l 2
 111 32 116 27 126 27 c 2
 175 29 l 1
 171 0 l 1
 3 0 l 1
 7 29 l 1
 46 27 l 2
 59 27 67 34 69 49 c 2
 139 553 l 1
 139 562 133 570 122 569 c 2
 83 567 l 1
 87 597 l 1
 293 597 l 1
 535 184 l 1
 586 549 l 1
 586 554 l 2
 586 564 582 569 573 569 c 2
 521 567 l 1
 525 597 l 1
 693 597 l 1
 689 567 l 1
 648 569 l 2
249 -229 m 1
 276 -213 304 -187 304 -166 c 1
 305 -146 293 -141 280 -141 c 0
 257 -141 245 -121 245 -99 c 0
 245 -69 268 -34 316 -34 c 0
 361 -34 386 -67 386 -102 c 0
 386 -168 325 -224 266 -251 c 1
 249 -229 l 1
EndSplineSet
EndChar

StartChar: Ntilde
Encoding: 209 209 58
Width: 672
Flags: MW
HStem: 0 27<46 52.5 121 126> 569 28<122 122 573 577.5 642.5 648> 671 61<458 486.5 458 487> 711 60<300.5 329>
VStem: 244 28<672 672> 515 28<770 770>
LayerCount: 2
Fore
SplineSet
244 672 m 1xdc
 252 729 277 771 322 771 c 0xdc
 370 771 439 732 477 732 c 0
 496 732 512 747 515 770 c 1
 543 770 l 1
 535 713 509 671 465 671 c 0xec
 416 671 348 711 310 711 c 0
 291 711 275 696 272 672 c 1
 244 672 l 1xdc
648 569 m 2
 637 569 630 562 628 548 c 2
 550 -6 l 1
 490 -6 l 1
 177 524 l 1
 111 49 l 1
 111 43 l 2
 111 32 116 27 126 27 c 2
 175 29 l 1
 171 0 l 1
 3 0 l 1
 7 29 l 1
 46 27 l 2
 59 27 67 34 69 49 c 2
 139 553 l 1
 139 562 133 570 122 569 c 2
 83 567 l 1
 87 597 l 1
 293 597 l 1
 535 184 l 1
 586 549 l 1
 586 554 l 2
 586 564 582 569 573 569 c 2
 521 567 l 1
 525 597 l 1
 693 597 l 1
 689 567 l 1
 648 569 l 2
EndSplineSet
Position2: "'cpsp' Capital Spacing lookup 0 per glyph data 2" dx=5 dy=0 dh=10 dv=0
EndChar

StartChar: O
Encoding: 79 79 59
Width: 677
Flags: MW
HStem: -10 35<265.5 362.5 265.5 406> 573 34<338.5 439>
VStem: 39 146<188 223.5 188 370> 516 146<365 438 230.5 448>
LayerCount: 2
Fore
SplineSet
39 254 m 0
 39 486 198 607 393 607 c 0
 551 607 662 531 662 345 c 0
 662 116 504 -10 308 -10 c 0
 152 -10 39 66 39 254 c 0
185 188 m 0
 186 92 214 25 317 25 c 0
 408 25 450 82 477 161 c 0
 502 235 516 329 516 401 c 0
 516 495 492 573 386 573 c 0
 291 573 247 510 220 425 c 0
 196 350 185 259 185 188 c 0
EndSplineSet
Substitution2: "Single Substitution lookup 21 subtable" ordmasculine
Substitution2: "'aalt' Access All Alternates lookup 0 subtable" ordmasculine
Position2: "'cpsp' Capital Spacing lookup 0 per glyph data 2" dx=5 dy=0 dh=10 dv=0
EndChar

StartChar: Oacute
Encoding: 211 211 60
Width: 677
Flags: MW
HStem: -10 35<265.5 362.5 265.5 406> 573 34<338.5 439>
VStem: 39 146<188 223.5 188 370> 516 146<365 438 230.5 448>
LayerCount: 2
Fore
SplineSet
451 802 m 2
 470 820 475 826 490 826 c 0
 513 826 552 804 552 790 c 0
 552 783 548 778 537 772 c 2
 358 669 l 2
 352 665 341 660 333 660 c 0
 326 660 323 663 323 669 c 0
 323 677 328 683 343 697 c 2
 451 802 l 2
39 254 m 0
 39 486 198 607 393 607 c 0
 551 607 662 531 662 345 c 0
 662 116 504 -10 308 -10 c 0
 152 -10 39 66 39 254 c 0
185 188 m 0
 186 92 214 25 317 25 c 0
 408 25 450 82 477 161 c 0
 502 235 516 329 516 401 c 0
 516 495 492 573 386 573 c 0
 291 573 247 510 220 425 c 0
 196 350 185 259 185 188 c 0
EndSplineSet
Position2: "'cpsp' Capital Spacing lookup 0 per glyph data 2" dx=5 dy=0 dh=10 dv=0
EndChar

StartChar: Ocircumflex
Encoding: 212 212 61
Width: 677
Flags: MW
HStem: -10 35<265.5 362.5 265.5 406> 573 34<338.5 439> 744 60<378 402>
VStem: 39 146<188 223.5 188 370> 516 146<365 438 230.5 448>
LayerCount: 2
Fore
SplineSet
284 678 m 2
 276 673 262 666 250 666 c 0
 241 666 239 670 239 673 c 0
 239 682 277 709 325 756 c 1
 378 804 l 2
 391 816 404 822 414 822 c 0
 424 822 435 816 444 804 c 2
 483 756 l 1
 517 710 547 684 547 675 c 0
 547 672 545 666 533 666 c 0
 522 666 509 673 502 678 c 2
 402 744 l 1
 284 678 l 2
39 254 m 0
 39 486 198 607 393 607 c 0
 551 607 662 531 662 345 c 0
 662 116 504 -10 308 -10 c 0
 152 -10 39 66 39 254 c 0
185 188 m 0
 186 92 214 25 317 25 c 0
 408 25 450 82 477 161 c 0
 502 235 516 329 516 401 c 0
 516 495 492 573 386 573 c 0
 291 573 247 510 220 425 c 0
 196 350 185 259 185 188 c 0
EndSplineSet
Position2: "'cpsp' Capital Spacing lookup 0 per glyph data 2" dx=5 dy=0 dh=10 dv=0
EndChar

StartChar: Odieresis
Encoding: 214 214 62
Width: 677
Flags: MW
HStem: -10 35<265.5 362.5 265.5 406> 573 34<338.5 439> 677 125<291 323 484 516>
VStem: 39 146<188 223.5 188 370> 229 156<726 752> 422 156<726 752> 516 146<365 438 230.5 448>
LayerCount: 2
Fore
SplineSet
315 802 m 0xfa
 357 802 385 781 385 749 c 0
 385 703 348 677 298 677 c 0
 257 677 229 698 229 730 c 0
 229 774 267 802 315 802 c 0xfa
508 802 m 0xfc
 550 802 578 781 578 749 c 0
 578 703 541 677 491 677 c 0
 450 677 422 698 422 730 c 0
 422 774 460 802 508 802 c 0xfc
39 254 m 0
 39 486 198 607 393 607 c 0
 551 607 662 531 662 345 c 0xfa
 662 116 504 -10 308 -10 c 0
 152 -10 39 66 39 254 c 0
185 188 m 0
 186 92 214 25 317 25 c 0
 408 25 450 82 477 161 c 0
 502 235 516 329 516 401 c 0xfa
 516 495 492 573 386 573 c 0
 291 573 247 510 220 425 c 0
 196 350 185 259 185 188 c 0
EndSplineSet
Position2: "'cpsp' Capital Spacing lookup 0 per glyph data 2" dx=5 dy=0 dh=10 dv=0
EndChar

StartChar: Ograve
Encoding: 210 210 63
Width: 677
Flags: MW
HStem: -10 35<265.5 362.5 265.5 406> 573 34<338.5 439>
VStem: 39 146<188 223.5 188 370> 516 146<365 438 230.5 448>
LayerCount: 2
Fore
SplineSet
277 772 m 2
 270 777 267 782 267 789 c 0
 269 803 316 826 340 826 c 0
 355 826 357 821 371 802 c 2
 453 696 l 1
 461 684 465 678 464 670 c 0
 463 664 458 660 450 660 c 0
 442 660 433 665 427 669 c 2
 277 772 l 2
39 254 m 0
 39 486 198 607 393 607 c 0
 551 607 662 531 662 345 c 0
 662 116 504 -10 308 -10 c 0
 152 -10 39 66 39 254 c 0
185 188 m 0
 186 92 214 25 317 25 c 0
 408 25 450 82 477 161 c 0
 502 235 516 329 516 401 c 0
 516 495 492 573 386 573 c 0
 291 573 247 510 220 425 c 0
 196 350 185 259 185 188 c 0
EndSplineSet
Position2: "'cpsp' Capital Spacing lookup 0 per glyph data 2" dx=5 dy=0 dh=10 dv=0
EndChar

StartChar: Ohungarumlaut
Encoding: 336 336 64
Width: 677
Flags: MW
HStem: -10 35<265.5 362.5 265.5 406> 573 34<338.5 439>
VStem: 39 146<188 223.5 188 370> 516 146<365 438 230.5 448>
LayerCount: 2
Fore
SplineSet
382 826 m 0
 401 826 446 813 446 799 c 0
 446 796 443 791 438 786 c 0
 428 777 411 762 309 677 c 0
 297 667 290 665 283 665 c 0
 276 665 273 669 273 673 c 0
 273 677 275 681 278 685 c 0
 350 793 363 811 368 817 c 0
 374 825 377 826 382 826 c 0
508 826 m 0
 527 826 571 814 571 799 c 0
 571 796 569 792 563 786 c 0
 554 777 535 761 434 677 c 0
 422 667 415 665 408 665 c 0
 401 665 398 669 398 673 c 0
 398 676 400 681 403 685 c 0
 474 789 489 813 493 817 c 0
 500 825 502 826 508 826 c 0
39 254 m 0
 39 486 198 607 393 607 c 0
 551 607 662 531 662 345 c 0
 662 116 504 -10 308 -10 c 0
 152 -10 39 66 39 254 c 0
185 188 m 0
 186 92 214 25 317 25 c 0
 408 25 450 82 477 161 c 0
 502 235 516 329 516 401 c 0
 516 495 492 573 386 573 c 0
 291 573 247 510 220 425 c 0
 196 350 185 259 185 188 c 0
EndSplineSet
EndChar

StartChar: Omacron
Encoding: 332 332 65
Width: 677
Flags: MW
HStem: -10 35<265.5 362.5 265.5 406> 573 34<338.5 439> 677 47<279 512 272 519>
VStem: 39 146<188 223.5 188 370> 516 146<365 438 230.5 448>
LayerCount: 2
Fore
SplineSet
512 677 m 1
 272 677 l 1
 279 724 l 1
 519 724 l 1
 512 677 l 1
39 254 m 0
 39 486 198 607 393 607 c 0
 551 607 662 531 662 345 c 0
 662 116 504 -10 308 -10 c 0
 152 -10 39 66 39 254 c 0
185 188 m 0
 186 92 214 25 317 25 c 0
 408 25 450 82 477 161 c 0
 502 235 516 329 516 401 c 0
 516 495 492 573 386 573 c 0
 291 573 247 510 220 425 c 0
 196 350 185 259 185 188 c 0
EndSplineSet
EndChar

StartChar: Oslash
Encoding: 216 216 66
Width: 676
Flags: MW
HStem: -10 35<290 362.5 290 406> 573 34<338.5 409>
VStem: 39 146<203.5 223.5 177.5 370> 516 146<365 398.5 230.5 416>
LayerCount: 2
Fore
SplineSet
564 564 m 1
 625 523 662 452 662 345 c 0
 662 116 504 -10 308 -10 c 0
 255 -10 208 -1 167 17 c 1
 86 -95 l 1
 45 -71 l 1
 127 42 l 1
 72 84 39 153 39 254 c 0
 39 486 198 607 393 607 c 0
 440 607 483 600 520 586 c 1
 594 689 l 1
 635 662 l 1
 564 564 l 1
482 534 m 1
 462 558 432 573 386 573 c 0
 291 573 247 510 220 425 c 0
 196 350 185 259 185 188 c 0
 185 167 187 148 190 130 c 1
 482 534 l 1
210 75 m 1
 229 44 263 25 317 25 c 0
 408 25 450 82 477 161 c 0
 502 235 516 329 516 401 c 0
 516 431 514 460 507 485 c 1
 210 75 l 1
EndSplineSet
Position2: "'cpsp' Capital Spacing lookup 0 per glyph data 2" dx=5 dy=0 dh=10 dv=0
EndChar

StartChar: Otilde
Encoding: 213 213 67
Width: 677
Flags: MW
HStem: -10 35<265.5 362.5 265.5 406> 573 34<338.5 439> 671 61<464 492.5 464 493> 711 60<306.5 335>
VStem: 39 146<188 223.5 188 370> 250 28<672 672> 516 146<365 438 230.5 448> 521 28<770 770>
LayerCount: 2
Fore
SplineSet
250 672 m 1xde
 258 729 283 771 328 771 c 0xde
 376 771 445 732 483 732 c 0
 502 732 518 747 521 770 c 1
 549 770 l 1
 541 713 515 671 471 671 c 0xed
 422 671 354 711 316 711 c 0
 297 711 281 696 278 672 c 1
 250 672 l 1xde
39 254 m 0
 39 486 198 607 393 607 c 0
 551 607 662 531 662 345 c 0
 662 116 504 -10 308 -10 c 0
 152 -10 39 66 39 254 c 0
185 188 m 0
 186 92 214 25 317 25 c 0
 408 25 450 82 477 161 c 0
 502 235 516 329 516 401 c 0
 516 495 492 573 386 573 c 0
 291 573 247 510 220 425 c 0
 196 350 185 259 185 188 c 0
EndSplineSet
Position2: "'cpsp' Capital Spacing lookup 0 per glyph data 2" dx=5 dy=0 dh=10 dv=0
EndChar

StartChar: OE
Encoding: 338 338 68
Width: 887
Flags: MW
HStem: -10 35<263.5 322> 0 35<542 645 645 690> 290 35<572 632 566 638> 406 20G<727 762 762 762> 443 155<813 848 813 813> 562 36<613 617 617 690> 573 34<337.5 414.5 281.5 417>
VStem: 39 145<187 221 187 356> 727 35<426 426>
LayerCount: 2
Fore
SplineSet
415 0 m 1x7580
 375 -5 335 -10 309 -10 c 0
 135 -10 39 79 39 253 c 0xb380
 39 459 168 607 395 607 c 0
 434 607 469 598 502 598 c 2
 870 598 l 1x7580
 848 443 l 1
 813 443 l 1x7980
 814 453 815 463 815 471 c 0
 815 535 776 562 690 562 c 2
 617 562 l 2
 609 562 604 557 603 548 c 2
 572 325 l 1
 638 325 l 2
 681 325 718 362 727 426 c 1
 762 426 l 1
 729 191 l 1
 694 191 l 1
 695 197 695 204 695 210 c 0
 695 257 668 290 632 290 c 2
 566 290 l 1
 533 48 l 2
 533 47 533 46 533 45 c 0
 533 38 536 35 542 35 c 2
 645 35 l 2
 735 35 790 87 803 179 c 1
 838 179 l 1
 813 -3 l 1
 798 -1 761 0 718 0 c 2
 415 0 l 1x7580
464 529 m 1xb380
 463 551 446 573 388 573 c 0
 287 573 242 507 216 420 c 1
 192 344 184 255 184 187 c 0
 185 95 212 25 315 25 c 0
 367 25 389 50 400 78 c 1
 464 529 l 1xb380
EndSplineSet
Position2: "'cpsp' Capital Spacing lookup 0 per glyph data 2" dx=5 dy=0 dh=10 dv=0
EndChar

StartChar: P
Encoding: 80 80 69
Width: 544
Flags: MW
HStem: 0 35<48 50 50 56 219 224> 248 36<239 293 293 323 239 331 235 293> 562 35<120 120 288.5 291 291 330>
VStem: 407 145<407.5 487>
LayerCount: 2
Fore
SplineSet
353 597 m 2
 489 597 552 550 552 456 c 0
 552 332 463 248 331 248 c 2
 235 248 l 1
 208 57 l 2
 208 55 208 53 208 52 c 0
 208 40 214 35 224 35 c 2
 273 37 l 1
 268 0 l 1
 8 0 l 1
 13 37 l 1
 48 35 l 2
 49 35 49 35 50 35 c 0
 62 35 68 43 70 57 c 2
 138 540 l 2
 138 542 139 545 139 547 c 0
 139 557 134 563 120 562 c 2
 87 560 l 1
 92 597 l 1
 353 597 l 2
291 562 m 2
 286 562 278 557 277 550 c 2
 239 284 l 1
 293 284 l 2
 353 284 407 360 407 455 c 0
 407 519 379 562 330 562 c 2
 291 562 l 2
EndSplineSet
Position2: "'cpsp' Capital Spacing lookup 0 per glyph data 2" dx=5 dy=0 dh=10 dv=0
EndChar

StartChar: Thorn
Encoding: 222 222 70
Width: 540
Flags: MW
HStem: 0 27<48 50 50 55.5> 162 26<239 284 284 312 223 284> 471 25<266 343 270 309> 569 28<124 124 293.5 299>
VStem: 394 141<312 398.5>
LayerCount: 2
Fore
SplineSet
348 567 m 1
 299 569 l 2
 288 569 279 559 277 548 c 2
 270 496 l 1
 343 496 l 2
 473 496 535 460 535 364 c 0
 535 234 452 162 317 162 c 2
 223 162 l 1
 207 49 l 2
 207 47 207 45 207 43 c 0
 207 33 211 26 223 27 c 2
 272 29 l 1
 268 0 l 1
 8 0 l 1
 12 29 l 1
 48 27 l 2
 49 27 49 27 50 27 c 0
 61 27 67 37 69 49 c 2
 139 548 l 2
 139 550 139 551 139 553 c 0
 139 562 134 570 124 569 c 2
 88 567 l 1
 92 597 l 1
 352 597 l 1
 348 567 l 1
266 471 m 1
 228 201 l 2
 228 200 228 200 228 199 c 0
 228 193 233 188 239 188 c 2
 284 188 l 2
 340 188 394 260 394 364 c 0
 394 433 364 471 309 471 c 2
 266 471 l 1
EndSplineSet
Position2: "'cpsp' Capital Spacing lookup 0 per glyph data 2" dx=5 dy=0 dh=10 dv=0
EndChar

StartChar: Q
Encoding: 81 81 71
Width: 677
Flags: MW
HStem: -179 81<464 561> -10 35<265.5 308> 573 34<338.5 439>
VStem: 39 146<188 223.5 188 370> 516 146<365 438 250.5 448>
LayerCount: 2
Fore
SplineSet
634 -112 m 1
 582 -157 538 -179 496 -179 c 0
 432 -179 375 -126 308 -10 c 1
 152 -10 39 66 39 254 c 0
 39 486 198 607 393 607 c 0
 551 607 662 531 662 345 c 0
 662 156 554 37 406 1 c 1
 461 -75 502 -98 549 -98 c 0
 573 -98 598 -93 627 -86 c 1
 634 -112 l 1
185 188 m 0
 186 92 214 25 317 25 c 0
 408 25 450 82 477 161 c 0
 502 235 516 329 516 401 c 0
 516 495 492 573 386 573 c 0
 291 573 247 510 220 425 c 0
 196 350 185 259 185 188 c 0
EndSplineSet
Position2: "'cpsp' Capital Spacing lookup 0 per glyph data 2" dx=5 dy=0 dh=10 dv=0
EndChar

StartChar: R
Encoding: 82 82 72
Width: 587
Flags: MW
HStem: -10 44 0 35<48 50 50 56 219 224> 271 35<243 274 238 305> 562 35<120 127 287 291 291 322>
VStem: 356 138<35.5 204> 404 136<425 499.5>
LayerCount: 2
Fore
SplineSet
350 597 m 2x74
 478 597 540 556 540 470 c 0x74
 540 380 480 320 392 295 c 1
 464 286 494 238 494 170 c 0
 494 148 490 93 490 74 c 0
 490 46 498 34 519 34 c 0
 527 34 534 36 540 40 c 1
 548 17 l 1
 522 4 475 -10 434 -10 c 0
 382 -10 356 10 356 61 c 0
 356 89 364 139 364 163 c 0
 364 220 350 270 274 271 c 1xb8
 238 271 l 1
 208 55 l 2
 208 53 208 52 208 50 c 0
 208 40 214 35 224 35 c 2
 273 37 l 1
 268 0 l 1
 8 0 l 1
 13 37 l 1
 48 35 l 2
 49 35 49 35 50 35 c 0
 62 35 68 43 70 57 c 2
 138 539 l 2
 138 540 138 542 138 543 c 0
 138 554 134 562 120 562 c 2
 87 560 l 1
 92 597 l 1
 350 597 l 2x74
291 562 m 2
 283 562 278 559 277 552 c 2
 243 306 l 1
 305 306 l 2
 360 306 404 370 404 466 c 0
 404 533 376 562 322 562 c 2
 291 562 l 2
EndSplineSet
Position2: "'cpsp' Capital Spacing lookup 0 per glyph data 2" dx=5 dy=0 dh=10 dv=0
EndChar

StartChar: Racute
Encoding: 340 340 73
Width: 587
Flags: MW
HStem: -10 44 0 35<48 50 50 56 219 224> 271 35<243 274 238 305> 562 35<120 127 287 291 291 322>
VStem: 356 138<35.5 204> 404 136<425 499.5>
LayerCount: 2
Fore
SplineSet
415 802 m 2x74
 434 820 439 826 454 826 c 0
 477 826 516 804 516 790 c 0
 516 783 512 778 501 772 c 2
 322 669 l 2
 316 665 305 660 297 660 c 0
 290 660 287 663 287 669 c 0
 287 677 292 683 307 697 c 2
 415 802 l 2x74
350 597 m 2
 478 597 540 556 540 470 c 0x74
 540 380 480 320 392 295 c 1
 464 286 494 238 494 170 c 0
 494 148 490 93 490 74 c 0
 490 46 498 34 519 34 c 0
 527 34 534 36 540 40 c 1
 548 17 l 1
 522 4 475 -10 434 -10 c 0
 382 -10 356 10 356 61 c 0
 356 89 364 139 364 163 c 0
 364 220 350 270 274 271 c 1xb8
 238 271 l 1
 208 55 l 1
 208 50 l 2
 208 40 214 35 224 35 c 2
 273 37 l 1
 268 0 l 1
 8 0 l 1
 13 37 l 1
 48 35 l 1
 50 35 l 2
 62 35 68 43 70 57 c 2
 138 539 l 1
 138 543 l 2
 138 554 134 562 120 562 c 2
 87 560 l 1
 92 597 l 1
 350 597 l 2
291 562 m 2
 283 562 278 559 277 552 c 2
 243 306 l 1
 305 306 l 2
 360 306 404 370 404 466 c 0
 404 533 376 562 322 562 c 2
 291 562 l 2
EndSplineSet
EndChar

StartChar: Rcaron
Encoding: 344 344 74
Width: 587
Flags: MW
HStem: -10 44 0 35<48 50 50 56 219 224> 271 35<243 274 238 305> 562 35<120 127 287 291 291 322> 686 60<325 367 367 391>
VStem: 356 138<35.5 204> 404 136<425 499.5>
LayerCount: 2
Fore
SplineSet
485 812 m 2x7a
 493 817 507 824 519 824 c 0
 528 824 530 820 530 817 c 0
 530 808 492 781 444 734 c 1
 391 686 l 2
 378 674 365 668 355 668 c 0
 345 668 334 674 325 686 c 2
 286 734 l 1
 252 780 222 806 222 815 c 0
 222 818 224 824 236 824 c 0
 247 824 260 817 267 812 c 2
 367 746 l 1
 485 812 l 2x7a
350 597 m 2
 478 597 540 556 540 470 c 0x7a
 540 380 480 320 392 295 c 1
 464 286 494 238 494 170 c 0
 494 148 490 93 490 74 c 0
 490 46 498 34 519 34 c 0
 527 34 534 36 540 40 c 1
 548 17 l 1
 522 4 475 -10 434 -10 c 0
 382 -10 356 10 356 61 c 0
 356 89 364 139 364 163 c 0
 364 220 350 270 274 271 c 1xbc
 238 271 l 1
 208 55 l 1
 208 50 l 2
 208 40 214 35 224 35 c 2
 273 37 l 1
 268 0 l 1
 8 0 l 1
 13 37 l 1
 48 35 l 1
 50 35 l 2
 62 35 68 43 70 57 c 2
 138 539 l 1
 138 543 l 2
 138 554 134 562 120 562 c 2
 87 560 l 1
 92 597 l 1
 350 597 l 2
291 562 m 2
 283 562 278 559 277 552 c 2
 243 306 l 1
 305 306 l 2
 360 306 404 370 404 466 c 0
 404 533 376 562 322 562 c 2
 291 562 l 2
EndSplineSet
EndChar

StartChar: Rcommaaccent
Encoding: 342 342 75
Width: 587
Flags: MW
HStem: -141 107<216.5 286.5> -10 44 0 35<48 50 50 56 219 224> 271 35<243 274 238 305> 562 35<120 127 287 291 291 322>
VStem: 193 141<-110 -84.5 -135 -84> 356 138<35.5 204> 404 136<425 499.5>
LayerCount: 2
Fore
SplineSet
350 597 m 2x3d
 478 597 540 556 540 470 c 0x3d
 540 380 480 320 392 295 c 1
 464 286 494 238 494 170 c 0
 494 148 490 93 490 74 c 0
 490 46 498 34 519 34 c 0
 527 34 534 36 540 40 c 1
 548 17 l 1
 522 4 475 -10 434 -10 c 0
 382 -10 356 10 356 61 c 0
 356 89 364 139 364 163 c 0
 364 220 350 270 274 271 c 1x5e
 238 271 l 1
 208 55 l 1
 208 50 l 2
 208 40 214 35 224 35 c 2
 273 37 l 1
 268 0 l 1
 8 0 l 1
 13 37 l 1
 48 35 l 1
 50 35 l 2
 62 35 68 43 70 57 c 2
 138 539 l 1
 138 543 l 2
 138 554 134 562 120 562 c 2
 87 560 l 1
 92 597 l 1
 350 597 l 2x3d
291 562 m 2
 283 562 278 559 277 552 c 2
 243 306 l 1
 305 306 l 2
 360 306 404 370 404 466 c 0
 404 533 376 562 322 562 c 2
 291 562 l 2
197 -229 m 1
 224 -213 252 -187 252 -166 c 1
 253 -146 241 -141 228 -141 c 0
 205 -141 193 -121 193 -99 c 0
 193 -69 216 -34 264 -34 c 0
 309 -34 334 -67 334 -102 c 0xbd
 334 -168 273 -224 214 -251 c 1
 197 -229 l 1
EndSplineSet
EndChar

StartChar: S
Encoding: 83 83 76
Width: 496
Flags: MW
HStem: -10 36<207.5 252.5 173.5 302> 434 138<458.5 468 458.5 476 442 468> 573 34<284 330.5 229 353>
VStem: 40 32<139 203> 76 119<461.5 471> 340 127<135 146> 443 31<454 483 454 490>
LayerCount: 2
Fore
SplineSet
182 265 m 2xac
 120 298 76 343 76 420 c 0
 76 522 155 607 303 607 c 0xaa
 358 607 385 595 435 578 c 0
 446 574 454 572 463 572 c 0
 473 572 484 573 493 576 c 1
 489 560 474 507 474 459 c 0
 474 449 475 440 476 434 c 1
 442 434 l 1xd2
 443 441 443 448 443 455 c 0
 443 525 392 573 314 573 c 0
 254 573 195 545 195 484 c 0
 195 439 227 412 282 382 c 1xaa
 343 347 l 1
 422 304 467 267 467 189 c 0
 467 81 381 -10 223 -10 c 0
 192 -10 168 -6 132 3 c 0
 94 13 74 18 59 18 c 0
 42 18 18 13 16 12 c 1
 25 40 40 100 40 178 c 0
 40 182 40 199 38 200 c 1
 72 203 l 1xb4
 69 84 128 26 219 26 c 0
 286 26 340 65 340 122 c 0
 340 170 306 200 251 229 c 2
 182 265 l 2xac
EndSplineSet
Position2: "'cpsp' Capital Spacing lookup 0 per glyph data 2" dx=5 dy=0 dh=10 dv=0
EndChar

StartChar: Sacute
Encoding: 346 346 77
Width: 496
Flags: MW
HStem: -10 36<207.5 252.5 173.5 302> 434 138<458.5 468 458.5 476 442 468> 573 34<284 330.5 229 353>
VStem: 40 32<139 203> 76 119<461.5 471> 340 127<135 146> 443 31<454 483 454 490>
LayerCount: 2
Fore
SplineSet
378 802 m 2xb2
 397 820 402 826 417 826 c 0
 440 826 479 804 479 790 c 0
 479 783 475 778 464 772 c 2
 285 669 l 2
 279 665 268 660 260 660 c 0
 253 660 250 663 250 669 c 0
 250 677 255 683 270 697 c 2
 378 802 l 2xb2
182 265 m 2xac
 120 298 76 343 76 420 c 0
 76 522 155 607 303 607 c 0xaa
 358 607 385 595 435 578 c 0
 446 574 454 572 463 572 c 0
 473 572 484 573 493 576 c 1
 489 560 474 507 474 459 c 0
 474 449 475 440 476 434 c 1
 442 434 l 1xd2
 443 441 443 448 443 455 c 0
 443 525 392 573 314 573 c 0
 254 573 195 545 195 484 c 0
 195 439 227 412 282 382 c 1xaa
 343 347 l 1
 422 304 467 267 467 189 c 0
 467 81 381 -10 223 -10 c 0
 192 -10 168 -6 132 3 c 0
 94 13 74 18 59 18 c 0
 42 18 18 13 16 12 c 1
 25 40 40 100 40 178 c 0
 40 182 40 199 38 200 c 1
 72 203 l 1xb4
 69 84 128 26 219 26 c 0
 286 26 340 65 340 122 c 0
 340 170 306 200 251 229 c 2
 182 265 l 2xac
EndSplineSet
EndChar

StartChar: Scaron
Encoding: 352 352 78
Width: 496
Flags: MW
HStem: -10 36<207.5 252.5 173.5 302> 434 138<458.5 468 458.5 476 442 468> 573 34<284 330.5 229 353> 686 60<288 330 330 354>
VStem: 40 32<139 203> 76 119<461.5 471> 340 127<135 146> 443 31<454 483 454 490>
LayerCount: 2
Fore
SplineSet
448 812 m 2xb9
 456 817 470 824 482 824 c 0
 491 824 493 820 493 817 c 0
 493 808 455 781 407 734 c 1
 354 686 l 2
 341 674 328 668 318 668 c 0
 308 668 297 674 288 686 c 2
 249 734 l 1
 215 780 185 806 185 815 c 0
 185 818 187 824 199 824 c 0
 210 824 223 817 230 812 c 2
 330 746 l 1
 448 812 l 2xb9
182 265 m 2xb6
 120 298 76 343 76 420 c 0
 76 522 155 607 303 607 c 0xb5
 358 607 385 595 435 578 c 0
 446 574 454 572 463 572 c 0
 473 572 484 573 493 576 c 1
 489 560 474 507 474 459 c 0
 474 449 475 440 476 434 c 1
 442 434 l 1xd9
 443 441 443 448 443 455 c 0
 443 525 392 573 314 573 c 0
 254 573 195 545 195 484 c 0
 195 439 227 412 282 382 c 1xb5
 343 347 l 1
 422 304 467 267 467 189 c 0
 467 81 381 -10 223 -10 c 0
 192 -10 168 -6 132 3 c 0
 94 13 74 18 59 18 c 0
 42 18 18 13 16 12 c 1
 25 40 40 100 40 178 c 0
 40 182 40 199 38 200 c 1
 72 203 l 1xba
 69 84 128 26 219 26 c 0
 286 26 340 65 340 122 c 0
 340 170 306 200 251 229 c 2
 182 265 l 2xb6
EndSplineSet
Position2: "'cpsp' Capital Spacing lookup 0 per glyph data 2" dx=5 dy=0 dh=10 dv=0
EndChar

StartChar: Scedilla
Encoding: 350 350 79
Width: 496
Flags: MW
HStem: -214 35<173.5 180 159 211> -10 36<211 211> 434 138<442 468 458.5 468 458.5 476> 573 34<284 330.5 229 353>
VStem: 40 32<139 203> 76 119<461.5 471> 164 61<-67.5 -63.5> 222 89<-142.5 -122.5> 340 127<138.5 146> 443 31<454 483 454 490>
LayerCount: 2
Fore
SplineSet
442 434 m 1xe840
 443 441 443 448 443 455 c 0
 443 525 392 573 314 573 c 0
 254 573 195 545 195 484 c 0
 195 439 227 412 282 382 c 1xd440
 343 347 l 1
 422 304 467 267 467 189 c 0
 467 88 392 2 254 -9 c 1
 233 -36 l 2
 228 -44 225 -52 225 -56 c 0xda80
 225 -79 311 -63 311 -116 c 0
 311 -181 240 -214 182 -214 c 0
 165 -214 136 -213 115 -198 c 1
 133 -165 l 1
 140 -175 152 -179 166 -179 c 0
 194 -179 222 -155 222 -130 c 0
 222 -115 208 -102 194 -94 c 1xd940
 173 -80 l 2
 167 -75 164 -71 164 -66 c 0
 164 -61 166 -57 172 -52 c 2
 211 -10 l 1
 185 -9 163 -5 132 3 c 0
 94 13 74 18 59 18 c 0
 42 18 18 13 16 12 c 1
 25 40 40 100 40 178 c 0
 40 182 40 199 38 200 c 1
 72 203 l 1xda40
 69 84 128 26 219 26 c 0
 286 26 340 65 340 122 c 0
 340 170 306 200 251 229 c 2
 182 265 l 2
 120 298 76 343 76 420 c 0
 76 522 155 607 303 607 c 0xd480
 358 607 385 595 435 578 c 0
 446 574 454 572 463 572 c 0
 473 572 484 573 493 576 c 1
 489 560 474 507 474 459 c 0
 474 449 475 440 476 434 c 1
 442 434 l 1xe840
EndSplineSet
EndChar

StartChar: Scommaaccent
Encoding: 536 536 80
Width: 496
Flags: MW
HStem: -141 107<184.5 254.5> -10 36<207.5 252.5 173.5 302> 434 138<458.5 468 458.5 476 442 468> 573 34<284 330.5 229 353>
VStem: 40 32<139 203> 76 119<461.5 471> 161 141<-110 -84.5 -135 -84> 340 127<135 146> 443 31<454 483 454 490>
LayerCount: 2
Fore
SplineSet
182 265 m 2x55
 120 298 76 343 76 420 c 0
 76 522 155 607 303 607 c 0x5480
 358 607 385 595 435 578 c 0
 446 574 454 572 463 572 c 0
 473 572 484 573 493 576 c 1
 489 560 474 507 474 459 c 0
 474 449 475 440 476 434 c 1
 442 434 l 1x6880
 443 441 443 448 443 455 c 0
 443 525 392 573 314 573 c 0
 254 573 195 545 195 484 c 0
 195 439 227 412 282 382 c 1x5480
 343 347 l 1
 422 304 467 267 467 189 c 0
 467 81 381 -10 223 -10 c 0
 192 -10 168 -6 132 3 c 0
 94 13 74 18 59 18 c 0
 42 18 18 13 16 12 c 1
 25 40 40 100 40 178 c 0
 40 182 40 199 38 200 c 1
 72 203 l 1x59
 69 84 128 26 219 26 c 0
 286 26 340 65 340 122 c 0
 340 170 306 200 251 229 c 2
 182 265 l 2x55
165 -229 m 1xda80
 192 -213 220 -187 220 -166 c 1
 221 -146 209 -141 196 -141 c 0
 173 -141 161 -121 161 -99 c 0
 161 -69 184 -34 232 -34 c 0
 277 -34 302 -67 302 -102 c 0
 302 -168 241 -224 182 -251 c 1
 165 -229 l 1xda80
EndSplineSet
EndChar

StartChar: T
Encoding: 84 84 81
Width: 540
Flags: MW
HStem: 0 35<157 163 328 333> 444 154<47 532 47 532 523 532 532 545.5 116 557 523 523> 562 36<177 221 221 239 396.5 400 400 419>
VStem: 47 532<444 600>
LayerCount: 2
Fore
SplineSet
557 444 m 1xd0
 523 444 l 1xd0
 525 455 525 465 525 475 c 0
 525 534 495 562 419 562 c 2
 400 562 l 2
 393 562 388 558 386 551 c 1
 317 57 l 2
 317 55 317 53 317 52 c 0
 317 40 323 35 333 35 c 2
 386 37 l 1
 381 0 l 1
 99 0 l 1
 103 37 l 1
 157 35 l 2
 169 35 178 47 180 60 c 2
 248 550 l 2
 248 551 248 552 248 553 c 0
 248 559 245 562 239 562 c 2
 221 562 l 2xb0
 133 562 92 524 81 444 c 1
 47 444 l 1xd0
 69 600 l 1
 78 599 94 598 116 598 c 2
 532 598 l 2
 559 598 574 599 579 600 c 1xb0
 557 444 l 1xd0
EndSplineSet
Position2: "'cpsp' Capital Spacing lookup 0 per glyph data 2" dx=5 dy=0 dh=10 dv=0
EndChar

StartChar: Tcaron
Encoding: 356 356 82
Width: 540
Flags: MW
HStem: 0 35<157 163 328 333> 444 154<47 532 47 532 523 532 532 545.5 116 557 523 523> 562 36<177 221 221 239 396.5 400 400 419> 686 60<290 332 332 356>
VStem: 47 532<444 600>
LayerCount: 2
Fore
SplineSet
450 812 m 2xb8
 458 817 472 824 484 824 c 0
 493 824 495 820 495 817 c 0
 495 808 457 781 409 734 c 1
 356 686 l 2
 343 674 330 668 320 668 c 0
 310 668 299 674 290 686 c 2
 251 734 l 1
 217 780 187 806 187 815 c 0
 187 818 189 824 201 824 c 0
 212 824 225 817 232 812 c 2
 332 746 l 1
 450 812 l 2xb8
523 444 m 1xd8
 525 455 525 465 525 475 c 0
 525 534 495 562 419 562 c 2
 400 562 l 2
 393 562 388 558 386 551 c 1
 317 57 l 1
 317 52 l 2
 317 40 323 35 333 35 c 2
 386 37 l 1
 381 0 l 1
 99 0 l 1
 103 37 l 1
 157 35 l 2
 169 35 178 47 180 60 c 2
 248 550 l 1
 248 553 l 2
 248 559 245 562 239 562 c 2
 221 562 l 2xb8
 133 562 92 524 81 444 c 1
 47 444 l 1xd8
 69 600 l 1
 78 599 94 598 116 598 c 2
 532 598 l 2
 559 598 574 599 579 600 c 1xb8
 557 444 l 1
 523 444 l 1xd8
EndSplineSet
EndChar

StartChar: Tcedilla
Encoding: 354 354 83
Width: 540
Flags: MW
HStem: -214 35<174.5 181 160 212> 0 35<157 163 157 221 328 333> 444 154<47 532 47 532 523 532 532 545.5 116 557 523 523> 562 36<177 221 221 239 396.5 400 400 419>
VStem: 165 61<-67.5 -63.5> 223 89<-142.5 -122.5>
LayerCount: 2
Fore
SplineSet
532 598 m 2xd4
 559 598 574 599 579 600 c 1xd4
 557 444 l 1
 523 444 l 1xe4
 525 455 525 465 525 475 c 0
 525 534 495 562 419 562 c 2
 400 562 l 2
 393 562 388 558 386 551 c 1
 317 57 l 1
 317 52 l 2
 317 40 323 35 333 35 c 2
 386 37 l 1
 381 0 l 1
 262 0 l 1
 234 -36 l 2
 229 -44 226 -52 226 -56 c 0xd8
 226 -79 312 -63 312 -116 c 0
 312 -181 241 -214 183 -214 c 0
 166 -214 137 -213 116 -198 c 1
 134 -165 l 1
 141 -175 153 -179 167 -179 c 0
 195 -179 223 -155 223 -130 c 0
 223 -115 209 -102 195 -94 c 1xd4
 174 -80 l 2
 168 -75 165 -71 165 -66 c 0
 165 -61 167 -57 173 -52 c 1
 221 0 l 1
 99 0 l 1
 103 37 l 1
 157 35 l 2
 169 35 178 47 180 60 c 2
 248 550 l 1
 248 553 l 2
 248 559 245 562 239 562 c 2
 221 562 l 2xd8
 133 562 92 524 81 444 c 1
 47 444 l 1xe8
 69 600 l 1
 78 599 94 598 116 598 c 2
 532 598 l 2xd4
EndSplineSet
EndChar

StartChar: uni021A
Encoding: 538 538 84
Width: 540
Flags: MW
HStem: -141 107<185.5 255.5> 0 35<157 163 328 333> 444 154<47 532 47 532 523 532 532 545.5 116 557 523 523> 562 36<177 221 221 239 396.5 400 400 419>
VStem: 162 141<-110 -84.5 -135 -84>
LayerCount: 2
Fore
SplineSet
523 444 m 1x68
 525 455 525 465 525 475 c 0
 525 534 495 562 419 562 c 2
 400 562 l 2
 393 562 388 558 386 551 c 1
 317 57 l 1
 317 52 l 2
 317 40 323 35 333 35 c 2
 386 37 l 1
 381 0 l 1
 99 0 l 1
 103 37 l 1
 157 35 l 2
 169 35 178 47 180 60 c 2
 248 550 l 1
 248 553 l 2
 248 559 245 562 239 562 c 2
 221 562 l 2x58
 133 562 92 524 81 444 c 1
 47 444 l 1x68
 69 600 l 1
 78 599 94 598 116 598 c 2
 532 598 l 2
 559 598 574 599 579 600 c 1x58
 557 444 l 1
 523 444 l 1x68
166 -229 m 1xd8
 193 -213 221 -187 221 -166 c 1
 222 -146 210 -141 197 -141 c 0
 174 -141 162 -121 162 -99 c 0
 162 -69 185 -34 233 -34 c 0
 278 -34 303 -67 303 -102 c 0
 303 -168 242 -224 183 -251 c 1
 166 -229 l 1xd8
EndSplineSet
EndChar

StartChar: U
Encoding: 85 85 85
Width: 654
Flags: MW
HStem: -10 42<314 402> 562 35<122 127 292 298 559 564 633.5 639>
VStem: 86 138<116 165 116 166>
LayerCount: 2
Fore
SplineSet
677 560 m 1
 639 562 l 2
 628 562 618 554 617 542 c 2
 569 203 l 2
 550 68 479 -10 325 -10 c 0
 170 -10 86 43 86 160 c 0
 86 172 87 185 89 199 c 2
 138 541 l 2
 138 542 138 543 138 543 c 2
 138 553 132 562 122 562 c 2
 83 560 l 1
 89 597 l 1
 352 597 l 1
 346 560 l 1
 298 562 l 2
 286 562 277 554 276 542 c 2
 227 199 l 2
 225 185 224 171 224 159 c 0
 224 73 272 32 356 32 c 0
 467 32 512 99 526 203 c 2
 574 541 l 2
 574 542 574 543 574 544 c 0
 574 555 569 562 559 562 c 2
 510 560 l 1
 515 597 l 1
 683 597 l 1
 677 560 l 1
EndSplineSet
Position2: "'cpsp' Capital Spacing lookup 0 per glyph data 2" dx=5 dy=0 dh=10 dv=0
EndChar

StartChar: Uacute
Encoding: 218 218 86
Width: 654
Flags: MW
HStem: -10 42<314 402> 562 35<122 127 292 298 559 564 633.5 639>
VStem: 86 138<116 165 116 166>
LayerCount: 2
Fore
SplineSet
467 802 m 2
 486 820 491 826 506 826 c 0
 529 826 568 804 568 790 c 0
 568 783 564 778 553 772 c 2
 374 669 l 2
 368 665 357 660 349 660 c 0
 342 660 339 663 339 669 c 0
 339 677 344 683 359 697 c 2
 467 802 l 2
639 562 m 2
 628 562 618 554 617 542 c 2
 569 203 l 2
 550 68 479 -10 325 -10 c 0
 170 -10 86 43 86 160 c 0
 86 172 87 185 89 199 c 2
 138 541 l 1
 138 543 l 2
 138 553 132 562 122 562 c 2
 83 560 l 1
 89 597 l 1
 352 597 l 1
 346 560 l 1
 298 562 l 2
 286 562 277 554 276 542 c 2
 227 199 l 2
 225 185 224 171 224 159 c 0
 224 73 272 32 356 32 c 0
 467 32 512 99 526 203 c 2
 574 541 l 1
 574 544 l 2
 574 555 569 562 559 562 c 2
 510 560 l 1
 515 597 l 1
 683 597 l 1
 677 560 l 1
 639 562 l 2
EndSplineSet
Position2: "'cpsp' Capital Spacing lookup 0 per glyph data 2" dx=5 dy=0 dh=10 dv=0
EndChar

StartChar: Ucircumflex
Encoding: 219 219 87
Width: 654
Flags: MW
HStem: -10 42<314 402> 562 35<122 127 292 298 559 564 633.5 639> 744 60<394 418>
VStem: 86 138<116 165 116 166>
LayerCount: 2
Fore
SplineSet
300 678 m 2
 292 673 278 666 266 666 c 0
 257 666 255 670 255 673 c 0
 255 682 293 709 341 756 c 1
 394 804 l 2
 407 816 420 822 430 822 c 0
 440 822 451 816 460 804 c 2
 499 756 l 1
 533 710 563 684 563 675 c 0
 563 672 561 666 549 666 c 0
 538 666 525 673 518 678 c 2
 418 744 l 1
 300 678 l 2
639 562 m 2
 628 562 618 554 617 542 c 2
 569 203 l 2
 550 68 479 -10 325 -10 c 0
 170 -10 86 43 86 160 c 0
 86 172 87 185 89 199 c 2
 138 541 l 1
 138 543 l 2
 138 553 132 562 122 562 c 2
 83 560 l 1
 89 597 l 1
 352 597 l 1
 346 560 l 1
 298 562 l 2
 286 562 277 554 276 542 c 2
 227 199 l 2
 225 185 224 171 224 159 c 0
 224 73 272 32 356 32 c 0
 467 32 512 99 526 203 c 2
 574 541 l 1
 574 544 l 2
 574 555 569 562 559 562 c 2
 510 560 l 1
 515 597 l 1
 683 597 l 1
 677 560 l 1
 639 562 l 2
EndSplineSet
Position2: "'cpsp' Capital Spacing lookup 0 per glyph data 2" dx=5 dy=0 dh=10 dv=0
EndChar

StartChar: Udieresis
Encoding: 220 220 88
Width: 654
Flags: MW
HStem: -10 42<314 402> 562 35<122 127 292 298 559 564 633.5 639> 677 125<307 339 500 532>
VStem: 86 138<116 165 116 166> 245 156<726 752> 438 156<726 752>
LayerCount: 2
Fore
SplineSet
331 802 m 0
 373 802 401 781 401 749 c 0
 401 703 364 677 314 677 c 0
 273 677 245 698 245 730 c 0
 245 774 283 802 331 802 c 0
524 802 m 0
 566 802 594 781 594 749 c 0
 594 703 557 677 507 677 c 0
 466 677 438 698 438 730 c 0
 438 774 476 802 524 802 c 0
639 562 m 2
 628 562 618 554 617 542 c 2
 569 203 l 2
 550 68 479 -10 325 -10 c 0
 170 -10 86 43 86 160 c 0
 86 172 87 185 89 199 c 2
 138 541 l 1
 138 543 l 2
 138 553 132 562 122 562 c 2
 83 560 l 1
 89 597 l 1
 352 597 l 1
 346 560 l 1
 298 562 l 2
 286 562 277 554 276 542 c 2
 227 199 l 2
 225 185 224 171 224 159 c 0xd4
 224 73 272 32 356 32 c 0
 467 32 512 99 526 203 c 2
 574 541 l 1
 574 544 l 2
 574 555 569 562 559 562 c 2
 510 560 l 1
 515 597 l 1
 683 597 l 1
 677 560 l 1
 639 562 l 2
EndSplineSet
Position2: "'cpsp' Capital Spacing lookup 0 per glyph data 2" dx=5 dy=0 dh=10 dv=0
EndChar

StartChar: Ugrave
Encoding: 217 217 89
Width: 654
Flags: MW
HStem: -10 42<314 402> 562 35<122 127 292 298 559 564 633.5 639>
VStem: 86 138<116 165 116 166>
LayerCount: 2
Fore
SplineSet
293 772 m 2
 286 777 283 782 283 789 c 0
 285 803 332 826 356 826 c 0
 371 826 373 821 387 802 c 2
 469 696 l 1
 477 684 481 678 480 670 c 0
 479 664 474 660 466 660 c 0
 458 660 449 665 443 669 c 2
 293 772 l 2
639 562 m 2
 628 562 618 554 617 542 c 2
 569 203 l 2
 550 68 479 -10 325 -10 c 0
 170 -10 86 43 86 160 c 0
 86 172 87 185 89 199 c 2
 138 541 l 1
 138 543 l 2
 138 553 132 562 122 562 c 2
 83 560 l 1
 89 597 l 1
 352 597 l 1
 346 560 l 1
 298 562 l 2
 286 562 277 554 276 542 c 2
 227 199 l 2
 225 185 224 171 224 159 c 0
 224 73 272 32 356 32 c 0
 467 32 512 99 526 203 c 2
 574 541 l 1
 574 544 l 2
 574 555 569 562 559 562 c 2
 510 560 l 1
 515 597 l 1
 683 597 l 1
 677 560 l 1
 639 562 l 2
EndSplineSet
Position2: "'cpsp' Capital Spacing lookup 0 per glyph data 2" dx=5 dy=0 dh=10 dv=0
EndChar

StartChar: Uhungarumlaut
Encoding: 368 368 90
Width: 654
Flags: MW
HStem: -10 42<314 402> 562 35<122 127 292 298 559 564 633.5 639>
VStem: 86 138<116 165 116 166>
LayerCount: 2
Fore
SplineSet
398 826 m 0
 417 826 462 813 462 799 c 0
 462 796 459 791 454 786 c 0
 444 777 427 762 325 677 c 0
 313 667 306 665 299 665 c 0
 292 665 289 669 289 673 c 0
 289 677 291 681 294 685 c 0
 366 793 379 811 384 817 c 0
 390 825 393 826 398 826 c 0
524 826 m 0
 543 826 587 814 587 799 c 0
 587 796 585 792 579 786 c 0
 570 777 551 761 450 677 c 0
 438 667 431 665 424 665 c 0
 417 665 414 669 414 673 c 0
 414 676 416 681 419 685 c 0
 490 789 505 813 509 817 c 0
 516 825 518 826 524 826 c 0
639 562 m 2
 628 562 618 554 617 542 c 2
 569 203 l 2
 550 68 479 -10 325 -10 c 0
 170 -10 86 43 86 160 c 0
 86 172 87 185 89 199 c 2
 138 541 l 1
 138 543 l 2
 138 553 132 562 122 562 c 2
 83 560 l 1
 89 597 l 1
 352 597 l 1
 346 560 l 1
 298 562 l 2
 286 562 277 554 276 542 c 2
 227 199 l 2
 225 185 224 171 224 159 c 0
 224 73 272 32 356 32 c 0
 467 32 512 99 526 203 c 2
 574 541 l 1
 574 544 l 2
 574 555 569 562 559 562 c 2
 510 560 l 1
 515 597 l 1
 683 597 l 1
 677 560 l 1
 639 562 l 2
EndSplineSet
EndChar

StartChar: Umacron
Encoding: 362 362 91
Width: 654
Flags: MW
HStem: -10 42<314 402> 562 35<122 127 292 298 559 564 633.5 639> 677 47<295 528 288 535>
VStem: 86 138<116 165 116 166>
LayerCount: 2
Fore
SplineSet
528 677 m 1
 288 677 l 1
 295 724 l 1
 535 724 l 1
 528 677 l 1
639 562 m 2
 628 562 618 554 617 542 c 2
 569 203 l 2
 550 68 479 -10 325 -10 c 0
 170 -10 86 43 86 160 c 0
 86 172 87 185 89 199 c 2
 138 541 l 1
 138 543 l 2
 138 553 132 562 122 562 c 2
 83 560 l 1
 89 597 l 1
 352 597 l 1
 346 560 l 1
 298 562 l 2
 286 562 277 554 276 542 c 2
 227 199 l 2
 225 185 224 171 224 159 c 0
 224 73 272 32 356 32 c 0
 467 32 512 99 526 203 c 2
 574 541 l 1
 574 544 l 2
 574 555 569 562 559 562 c 2
 510 560 l 1
 515 597 l 1
 683 597 l 1
 677 560 l 1
 639 562 l 2
EndSplineSet
EndChar

StartChar: Uogonek
Encoding: 370 370 92
Width: 654
Flags: MW
HStem: -159 58<377.5 451.5> -10 42<314 334> 562 35<122 127 292 298 559 564 633.5 639>
VStem: 86 138<116 165 116 166> 324 72<-117 -46.5>
LayerCount: 2
Fore
SplineSet
683 597 m 1
 677 560 l 1
 639 562 l 2
 628 562 618 554 617 542 c 2
 569 203 l 2
 556 109 517 43 443 11 c 1
 414 -5 396 -32 396 -61 c 0
 396 -83 409 -101 440 -101 c 0
 463 -101 487 -93 511 -79 c 1
 521 -99 l 1
 483 -137 439 -159 396 -159 c 0
 359 -159 324 -138 324 -96 c 0
 324 -64 342 -32 377 -7 c 1
 361 -9 343 -10 325 -10 c 0
 170 -10 86 43 86 160 c 0
 86 172 87 185 89 199 c 2
 138 541 l 1
 138 543 l 2
 138 553 132 562 122 562 c 2
 83 560 l 1
 89 597 l 1
 352 597 l 1
 346 560 l 1
 298 562 l 2
 286 562 277 554 276 542 c 2
 227 199 l 2
 225 185 224 171 224 159 c 0
 224 73 272 32 356 32 c 0
 467 32 512 99 526 203 c 2
 574 541 l 1
 574 544 l 2
 574 555 569 562 559 562 c 2
 510 560 l 1
 515 597 l 1
 683 597 l 1
EndSplineSet
EndChar

StartChar: Uring
Encoding: 366 366 93
Width: 654
Flags: MW
HStem: -10 42<314 402> 562 35<122 127 292 298 559 564 633.5 639> 665 41<404.5 426.5 404.5 436> 789 42<413 435.5>
VStem: 86 138<116 165 116 166> 333 50<730.5 755 730.5 763.5> 457 51<740 764.5>
LayerCount: 2
Fore
SplineSet
333 737 m 0
 333 790 378 831 431 831 c 0
 478 831 508 801 508 759 c 0
 508 704 464 665 408 665 c 0
 362 665 333 694 333 737 c 0
383 741 m 0
 383 720 395 706 414 706 c 0
 439 706 457 726 457 754 c 0
 457 775 446 789 425 789 c 0
 401 789 383 769 383 741 c 0
639 562 m 2
 628 562 618 554 617 542 c 2
 569 203 l 2
 550 68 479 -10 325 -10 c 0
 170 -10 86 43 86 160 c 0
 86 172 87 185 89 199 c 2
 138 541 l 1
 138 543 l 2
 138 553 132 562 122 562 c 2
 83 560 l 1
 89 597 l 1
 352 597 l 1
 346 560 l 1
 298 562 l 2
 286 562 277 554 276 542 c 2
 227 199 l 2
 225 185 224 171 224 159 c 0
 224 73 272 32 356 32 c 0
 467 32 512 99 526 203 c 2
 574 541 l 1
 574 544 l 2
 574 555 569 562 559 562 c 2
 510 560 l 1
 515 597 l 1
 683 597 l 1
 677 560 l 1
 639 562 l 2
EndSplineSet
EndChar

StartChar: V
Encoding: 86 86 94
Width: 602
Flags: MW
HStem: 562 35<75 79.5 247 252 559 562.5 630.5 636>
VStem: 47 630<560 597>
LayerCount: 2
Fore
SplineSet
677 597 m 1
 671 560 l 1
 636 562 l 2
 625 562 621 554 612 539 c 2
 304 -4 l 1
 251 -4 l 1
 94 539 l 2
 89 554 84 562 75 562 c 2
 47 560 l 1
 52 597 l 1
 306 597 l 1
 301 560 l 1
 252 562 l 2
 242 562 237 549 239 538 c 1
 350 159 l 1
 560 530 l 2
 566 541 570 549 570 554 c 0
 570 559 566 562 559 562 c 2
 510 560 l 1
 516 597 l 1
 677 597 l 1
EndSplineSet
Position2: "'cpsp' Capital Spacing lookup 0 per glyph data 2" dx=5 dy=0 dh=10 dv=0
EndChar

StartChar: W
Encoding: 87 87 95
Width: 904
Flags: MW
HStem: 562 35<77 81 243.5 249 457 463.5 614 619 865 869 936.5 943>
VStem: 46 932<560 597>
LayerCount: 2
Fore
SplineSet
978 597 m 1
 972 560 l 1
 943 562 l 2
 930 562 920 550 916 541 c 2
 655 -10 l 1
 609 -10 l 1
 493 467 l 1
 267 -10 l 1
 217 -10 l 1
 93 540 l 1
 91 555 85 562 77 562 c 2
 46 560 l 1
 51 597 l 1
 305 597 l 1
 300 560 l 1
 249 562 l 2
 238 562 235 557 235 549 c 0
 235 547 235 543 236 540 c 2
 315 183 l 1
 479 526 l 1
 477 534 l 2
 473 549 470 562 457 562 c 2
 415 560 l 1
 420 597 l 1
 666 597 l 1
 661 560 l 1
 619 562 l 2
 609 562 604 549 606 540 c 2
 692 159 l 1
 873 542 l 2
 874 546 875 549 875 552 c 0
 875 558 873 562 865 562 c 2
 812 560 l 1
 819 597 l 1
 978 597 l 1
EndSplineSet
Position2: "'cpsp' Capital Spacing lookup 0 per glyph data 2" dx=5 dy=0 dh=10 dv=0
EndChar

StartChar: Wacute
Encoding: 7810 7810 96
Width: 904
Flags: MW
HStem: 562 35<77 81 243.5 249 457 463.5 614 619 865 869 936.5 943>
VStem: 46 932<560 597>
LayerCount: 2
Fore
SplineSet
603 802 m 2
 622 820 627 826 642 826 c 0
 665 826 704 804 704 790 c 0
 704 783 700 778 689 772 c 2
 510 669 l 2
 504 665 493 660 485 660 c 0
 478 660 475 663 475 669 c 0
 475 677 480 683 495 697 c 2
 603 802 l 2
972 560 m 1
 943 562 l 2
 930 562 920 550 916 541 c 2
 655 -10 l 1
 609 -10 l 1
 493 467 l 1
 267 -10 l 1
 217 -10 l 1
 93 540 l 1
 91 555 85 562 77 562 c 2
 46 560 l 1
 51 597 l 1
 305 597 l 1
 300 560 l 1
 249 562 l 2
 238 562 235 557 235 549 c 0
 235 547 235 543 236 540 c 2
 315 183 l 1
 479 526 l 1
 477 534 l 2
 473 549 470 562 457 562 c 2
 415 560 l 1
 420 597 l 1
 666 597 l 1
 661 560 l 1
 619 562 l 2
 609 562 604 549 606 540 c 2
 692 159 l 1
 873 542 l 2
 874 546 875 549 875 552 c 0
 875 558 873 562 865 562 c 2
 812 560 l 1
 819 597 l 1
 978 597 l 1
 972 560 l 1
EndSplineSet
Position2: "'cpsp' Capital Spacing lookup 0 per glyph data 2" dx=5 dy=0 dh=10 dv=0
EndChar

StartChar: Wcircumflex
Encoding: 372 372 97
Width: 904
Flags: MW
HStem: 562 35<77 81 243.5 249 457 463.5 614 619 865 869 936.5 943> 744 60<531 555>
VStem: 46 932<560 597>
LayerCount: 2
Fore
SplineSet
437 678 m 2
 429 673 415 666 403 666 c 0
 394 666 392 670 392 673 c 0
 392 682 430 709 478 756 c 1
 531 804 l 2
 544 816 557 822 567 822 c 0
 577 822 588 816 597 804 c 2
 636 756 l 1
 670 710 700 684 700 675 c 0
 700 672 698 666 686 666 c 0
 675 666 662 673 655 678 c 2
 555 744 l 1
 437 678 l 2
972 560 m 1
 943 562 l 2
 930 562 920 550 916 541 c 2
 655 -10 l 1
 609 -10 l 1
 493 467 l 1
 267 -10 l 1
 217 -10 l 1
 93 540 l 1
 91 555 85 562 77 562 c 2
 46 560 l 1
 51 597 l 1
 305 597 l 1
 300 560 l 1
 249 562 l 2
 238 562 235 557 235 549 c 0
 235 547 235 543 236 540 c 2
 315 183 l 1
 479 526 l 1
 477 534 l 2
 473 549 470 562 457 562 c 2
 415 560 l 1
 420 597 l 1
 666 597 l 1
 661 560 l 1
 619 562 l 2
 609 562 604 549 606 540 c 2
 692 159 l 1
 873 542 l 2
 874 546 875 549 875 552 c 0
 875 558 873 562 865 562 c 2
 812 560 l 1
 819 597 l 1
 978 597 l 1
 972 560 l 1
EndSplineSet
Position2: "'cpsp' Capital Spacing lookup 0 per glyph data 2" dx=5 dy=0 dh=10 dv=0
EndChar

StartChar: Wdieresis
Encoding: 7812 7812 98
Width: 904
Flags: MW
HStem: 562 35<77 81 243.5 249 457 463.5 614 619 865 869 936.5 943> 677 125<444 476 637 669>
VStem: 382 156<726 752> 575 156<726 752>
LayerCount: 2
Fore
SplineSet
468 802 m 0
 510 802 538 781 538 749 c 0
 538 703 501 677 451 677 c 0
 410 677 382 698 382 730 c 0
 382 774 420 802 468 802 c 0
661 802 m 0
 703 802 731 781 731 749 c 0
 731 703 694 677 644 677 c 0
 603 677 575 698 575 730 c 0
 575 774 613 802 661 802 c 0
972 560 m 1
 943 562 l 2
 930 562 920 550 916 541 c 2
 655 -10 l 1
 609 -10 l 1
 493 467 l 1
 267 -10 l 1
 217 -10 l 1
 93 540 l 1
 91 555 85 562 77 562 c 2
 46 560 l 1
 51 597 l 1
 305 597 l 1
 300 560 l 1
 249 562 l 2
 238 562 235 557 235 549 c 0
 235 547 235 543 236 540 c 2
 315 183 l 1
 479 526 l 1
 477 534 l 2
 473 549 470 562 457 562 c 2
 415 560 l 1
 420 597 l 1
 666 597 l 1
 661 560 l 1
 619 562 l 2
 609 562 604 549 606 540 c 2
 692 159 l 1
 873 542 l 2
 874 546 875 549 875 552 c 0
 875 558 873 562 865 562 c 2
 812 560 l 1
 819 597 l 1
 978 597 l 1
 972 560 l 1
EndSplineSet
Position2: "'cpsp' Capital Spacing lookup 0 per glyph data 2" dx=5 dy=0 dh=10 dv=0
EndChar

StartChar: Wgrave
Encoding: 7808 7808 99
Width: 904
Flags: MW
HStem: 562 35<77 81 243.5 249 457 463.5 614 619 865 869 936.5 943>
VStem: 46 932<560 597>
LayerCount: 2
Fore
SplineSet
429 772 m 2
 422 777 419 782 419 789 c 0
 421 803 468 826 492 826 c 0
 507 826 509 821 523 802 c 2
 605 696 l 1
 613 684 617 678 616 670 c 0
 615 664 610 660 602 660 c 0
 594 660 585 665 579 669 c 2
 429 772 l 2
972 560 m 1
 943 562 l 2
 930 562 920 550 916 541 c 2
 655 -10 l 1
 609 -10 l 1
 493 467 l 1
 267 -10 l 1
 217 -10 l 1
 93 540 l 1
 91 555 85 562 77 562 c 2
 46 560 l 1
 51 597 l 1
 305 597 l 1
 300 560 l 1
 249 562 l 2
 238 562 235 557 235 549 c 0
 235 547 235 543 236 540 c 2
 315 183 l 1
 479 526 l 1
 477 534 l 2
 473 549 470 562 457 562 c 2
 415 560 l 1
 420 597 l 1
 666 597 l 1
 661 560 l 1
 619 562 l 2
 609 562 604 549 606 540 c 2
 692 159 l 1
 873 542 l 2
 874 546 875 549 875 552 c 0
 875 558 873 562 865 562 c 2
 812 560 l 1
 819 597 l 1
 978 597 l 1
 972 560 l 1
EndSplineSet
Position2: "'cpsp' Capital Spacing lookup 0 per glyph data 2" dx=5 dy=0 dh=10 dv=0
EndChar

StartChar: X
Encoding: 88 88 100
Width: 581
Flags: MW
HStem: 0 34<338 340 340 346> 562 35<106 111.5 298.5 307 488 491.5 566.5 572>
VStem: -11 623<0 597>
LayerCount: 2
Fore
SplineSet
612 597 m 1
 606 560 l 1
 572 562 l 2
 561 562 549 555 539 542 c 2
 378 331 l 1
 505 51 l 2
 509 42 518 32 532 34 c 2
 564 37 l 1
 559 0 l 1
 284 0 l 1
 289 37 l 1
 338 34 l 2
 339 34 339 34 340 34 c 0
 352 34 353 45 347 57 c 2
 261 250 l 1
 112 55 l 2
 109 50 107 46 107 43 c 0
 107 38 110 35 115 35 c 2
 161 38 l 1
 155 0 l 1
 -11 0 l 1
 -5 38 l 1
 30 36 l 2
 44 36 56 43 67 58 c 2
 246 293 l 1
 134 543 l 2
 128 558 117 562 106 562 c 2
 81 560 l 1
 86 597 l 1
 354 597 l 1
 349 560 l 1
 307 562 l 2
 290 562 286 550 291 541 c 1
 362 374 l 1
 492 542 l 2
 496 547 498 552 498 555 c 0
 498 559 495 562 488 562 c 2
 444 560 l 1
 449 597 l 1
 612 597 l 1
EndSplineSet
Position2: "'cpsp' Capital Spacing lookup 0 per glyph data 2" dx=5 dy=0 dh=10 dv=0
EndChar

StartChar: Y
Encoding: 89 89 101
Width: 555
Flags: MW
HStem: 0 35<178 184.5 347.5 354> 562 35<77 81.5 259.5 264 507 510 579 584>
VStem: 48 571<560 597>
LayerCount: 2
Fore
SplineSet
619 597 m 1
 613 560 l 1
 584 562 l 2
 574 562 563 554 554 541 c 2
 368 274 l 1
 337 56 l 2
 337 54 337 52 337 51 c 0
 337 41 341 35 354 35 c 2
 402 37 l 1
 397 0 l 1
 124 0 l 1
 129 37 l 1
 178 35 l 2
 191 35 198 42 200 57 c 2
 228 256 l 1
 97 543 l 2
 91 556 86 562 77 562 c 2
 48 560 l 1
 54 597 l 1
 322 597 l 1
 317 560 l 1
 264 562 l 2
 255 562 252 556 252 549 c 0
 252 545 253 541 254 538 c 2
 354 318 l 1
 511 542 l 2
 513 545 515 550 515 554 c 0
 515 559 513 562 507 562 c 2
 455 560 l 1
 460 597 l 1
 619 597 l 1
EndSplineSet
Position2: "'cpsp' Capital Spacing lookup 0 per glyph data 2" dx=5 dy=0 dh=10 dv=0
EndChar

StartChar: Yacute
Encoding: 221 221 102
Width: 555
Flags: MW
HStem: 0 35<178 184.5 347.5 354> 562 35<77 81.5 259.5 264 507 510 579 584>
VStem: 48 571<560 597>
LayerCount: 2
Fore
SplineSet
421 802 m 2
 440 820 445 826 460 826 c 0
 483 826 522 804 522 790 c 0
 522 783 518 778 507 772 c 2
 328 669 l 2
 322 665 311 660 303 660 c 0
 296 660 293 663 293 669 c 0
 293 677 298 683 313 697 c 2
 421 802 l 2
613 560 m 1
 584 562 l 2
 574 562 563 554 554 541 c 2
 368 274 l 1
 337 56 l 1
 337 51 l 2
 337 41 341 35 354 35 c 2
 402 37 l 1
 397 0 l 1
 124 0 l 1
 129 37 l 1
 178 35 l 2
 191 35 198 42 200 57 c 2
 228 256 l 1
 97 543 l 2
 91 556 86 562 77 562 c 2
 48 560 l 1
 54 597 l 1
 322 597 l 1
 317 560 l 1
 264 562 l 2
 255 562 252 556 252 549 c 0
 252 545 253 541 254 538 c 2
 354 318 l 1
 511 542 l 2
 513 545 515 550 515 554 c 0
 515 559 513 562 507 562 c 2
 455 560 l 1
 460 597 l 1
 619 597 l 1
 613 560 l 1
EndSplineSet
Position2: "'cpsp' Capital Spacing lookup 0 per glyph data 2" dx=5 dy=0 dh=10 dv=0
EndChar

StartChar: Ycircumflex
Encoding: 374 374 103
Width: 555
Flags: MW
HStem: 0 35<178 184.5 347.5 354> 562 35<77 81.5 259.5 264 507 510 579 584> 744 60<348 372>
VStem: 48 571<560 597>
LayerCount: 2
Fore
SplineSet
254 678 m 2
 246 673 232 666 220 666 c 0
 211 666 209 670 209 673 c 0
 209 682 247 709 295 756 c 1
 348 804 l 2
 361 816 374 822 384 822 c 0
 394 822 405 816 414 804 c 2
 453 756 l 1
 487 710 517 684 517 675 c 0
 517 672 515 666 503 666 c 0
 492 666 479 673 472 678 c 2
 372 744 l 1
 254 678 l 2
613 560 m 1
 584 562 l 2
 574 562 563 554 554 541 c 2
 368 274 l 1
 337 56 l 1
 337 51 l 2
 337 41 341 35 354 35 c 2
 402 37 l 1
 397 0 l 1
 124 0 l 1
 129 37 l 1
 178 35 l 2
 191 35 198 42 200 57 c 2
 228 256 l 1
 97 543 l 2
 91 556 86 562 77 562 c 2
 48 560 l 1
 54 597 l 1
 322 597 l 1
 317 560 l 1
 264 562 l 2
 255 562 252 556 252 549 c 0
 252 545 253 541 254 538 c 2
 354 318 l 1
 511 542 l 2
 513 545 515 550 515 554 c 0
 515 559 513 562 507 562 c 2
 455 560 l 1
 460 597 l 1
 619 597 l 1
 613 560 l 1
EndSplineSet
Position2: "'cpsp' Capital Spacing lookup 0 per glyph data 2" dx=5 dy=0 dh=10 dv=0
EndChar

StartChar: Ydieresis
Encoding: 376 376 104
Width: 555
Flags: MW
HStem: 0 35<178 184.5 347.5 354> 562 35<77 81.5 259.5 264 507 510 579 584> 677 125<261 293 454 486>
VStem: 199 156<726 752> 392 156<726 752>
LayerCount: 2
Fore
SplineSet
285 802 m 0
 327 802 355 781 355 749 c 0
 355 703 318 677 268 677 c 0
 227 677 199 698 199 730 c 0
 199 774 237 802 285 802 c 0
478 802 m 0
 520 802 548 781 548 749 c 0
 548 703 511 677 461 677 c 0
 420 677 392 698 392 730 c 0
 392 774 430 802 478 802 c 0
613 560 m 1
 584 562 l 2
 574 562 563 554 554 541 c 2
 368 274 l 1
 337 56 l 1
 337 51 l 2
 337 41 341 35 354 35 c 2
 402 37 l 1
 397 0 l 1
 124 0 l 1
 129 37 l 1
 178 35 l 2
 191 35 198 42 200 57 c 2
 228 256 l 1
 97 543 l 2
 91 556 86 562 77 562 c 2
 48 560 l 1
 54 597 l 1
 322 597 l 1
 317 560 l 1
 264 562 l 2
 255 562 252 556 252 549 c 0
 252 545 253 541 254 538 c 2
 354 318 l 1
 511 542 l 2
 513 545 515 550 515 554 c 0
 515 559 513 562 507 562 c 2
 455 560 l 1
 460 597 l 1
 619 597 l 1
 613 560 l 1
EndSplineSet
Position2: "'cpsp' Capital Spacing lookup 0 per glyph data 2" dx=5 dy=0 dh=10 dv=0
EndChar

StartChar: Ygrave
Encoding: 7922 7922 105
Width: 555
Flags: MW
HStem: 0 35<178 184.5 347.5 354> 562 35<77 81.5 259.5 264 507 510 579 584>
VStem: 48 571<560 597>
LayerCount: 2
Fore
SplineSet
247 772 m 2
 240 777 237 782 237 789 c 0
 239 803 286 826 310 826 c 0
 325 826 327 821 341 802 c 2
 423 696 l 1
 431 684 435 678 434 670 c 0
 433 664 428 660 420 660 c 0
 412 660 403 665 397 669 c 2
 247 772 l 2
613 560 m 1
 584 562 l 2
 574 562 563 554 554 541 c 2
 368 274 l 1
 337 56 l 1
 337 51 l 2
 337 41 341 35 354 35 c 2
 402 37 l 1
 397 0 l 1
 124 0 l 1
 129 37 l 1
 178 35 l 2
 191 35 198 42 200 57 c 2
 228 256 l 1
 97 543 l 2
 91 556 86 562 77 562 c 2
 48 560 l 1
 54 597 l 1
 322 597 l 1
 317 560 l 1
 264 562 l 2
 255 562 252 556 252 549 c 0
 252 545 253 541 254 538 c 2
 354 318 l 1
 511 542 l 2
 513 545 515 550 515 554 c 0
 515 559 513 562 507 562 c 2
 455 560 l 1
 460 597 l 1
 619 597 l 1
 613 560 l 1
EndSplineSet
Position2: "'cpsp' Capital Spacing lookup 0 per glyph data 2" dx=5 dy=0 dh=10 dv=0
EndChar

StartChar: Z
Encoding: 90 90 106
Width: 543
Flags: MW
HStem: 0 35<176 315 315 360> 443 154<86 561 86 561> 562 35<231 278 278 389>
VStem: 1 560
LayerCount: 2
Fore
SplineSet
558 573 m 1xb0
 176 35 l 1
 315 35 l 2
 405 35 470 84 481 167 c 1
 516 167 l 1
 484 -4 l 1
 476 -1 439 0 373 0 c 2
 1 0 l 1
 5 27 l 1
 389 562 l 1
 278 562 l 2xb0
 184 562 133 525 121 443 c 1
 86 443 l 1xd0
 108 600 l 1
 127 600 178 597 217 597 c 2
 561 597 l 1
 558 573 l 1xb0
EndSplineSet
Position2: "'cpsp' Capital Spacing lookup 0 per glyph data 2" dx=5 dy=0 dh=10 dv=0
EndChar

StartChar: Zacute
Encoding: 377 377 107
Width: 543
Flags: MW
HStem: 0 35<176 315 315 360> 443 154<86 561 86 561> 562 35<231 278 278 389>
VStem: 1 560
LayerCount: 2
Fore
SplineSet
422 802 m 2xb0
 441 820 446 826 461 826 c 0
 484 826 523 804 523 790 c 0
 523 783 519 778 508 772 c 2
 329 669 l 2
 323 665 312 660 304 660 c 0
 297 660 294 663 294 669 c 0
 294 677 299 683 314 697 c 2
 422 802 l 2xb0
176 35 m 1
 315 35 l 2
 405 35 470 84 481 167 c 1
 516 167 l 1
 484 -4 l 1
 476 -1 439 0 373 0 c 2
 1 0 l 1
 5 27 l 1
 389 562 l 1
 278 562 l 2xb0
 184 562 133 525 121 443 c 1
 86 443 l 1xd0
 108 600 l 1
 127 600 178 597 217 597 c 2
 561 597 l 1
 558 573 l 1
 176 35 l 1
EndSplineSet
EndChar

StartChar: Zcaron
Encoding: 381 381 108
Width: 543
Flags: MW
HStem: 0 35<176 315 315 360> 443 154<86 561 86 561> 562 35<231 278 278 389> 686 60<333 375 375 399>
VStem: 1 560
LayerCount: 2
Fore
SplineSet
493 812 m 2xb8
 501 817 515 824 527 824 c 0
 536 824 538 820 538 817 c 0
 538 808 500 781 452 734 c 1
 399 686 l 2
 386 674 373 668 363 668 c 0
 353 668 342 674 333 686 c 2
 294 734 l 1
 260 780 230 806 230 815 c 0
 230 818 232 824 244 824 c 0
 255 824 268 817 275 812 c 2
 375 746 l 1
 493 812 l 2xb8
176 35 m 1
 315 35 l 2
 405 35 470 84 481 167 c 1
 516 167 l 1
 484 -4 l 1
 476 -1 439 0 373 0 c 2
 1 0 l 1
 5 27 l 1
 389 562 l 1
 278 562 l 2xb8
 184 562 133 525 121 443 c 1
 86 443 l 1xd8
 108 600 l 1
 127 600 178 597 217 597 c 2
 561 597 l 1
 558 573 l 1
 176 35 l 1
EndSplineSet
Position2: "'cpsp' Capital Spacing lookup 0 per glyph data 2" dx=5 dy=0 dh=10 dv=0
EndChar

StartChar: Zdotaccent
Encoding: 379 379 109
Width: 543
Flags: MW
HStem: 0 35<176 315 315 360> 443 154<86 561 86 561> 562 35<231 278 278 389> 679 125<357 389>
VStem: 1 560 295 156<728 754>
LayerCount: 2
Fore
SplineSet
381 804 m 0xb4
 423 804 451 783 451 751 c 0
 451 705 414 679 364 679 c 0
 323 679 295 700 295 732 c 0
 295 776 333 804 381 804 c 0xb4
176 35 m 1
 315 35 l 2
 405 35 470 84 481 167 c 1
 516 167 l 1
 484 -4 l 1
 476 -1 439 0 373 0 c 2
 1 0 l 1
 5 27 l 1
 389 562 l 1
 278 562 l 2xa8
 184 562 133 525 121 443 c 1
 86 443 l 1xc8
 108 600 l 1
 127 600 178 597 217 597 c 2
 561 597 l 1
 558 573 l 1
 176 35 l 1
EndSplineSet
EndChar

StartChar: a
Encoding: 97 97 110
Width: 511
Flags: MW
HStem: -10 78<88.5 216> 398 37<269 294 208 309>
VStem: 26 134<110 148 110 192>
LayerCount: 2
Fore
SplineSet
465 338 m 2
 441 238 422 128 422 92 c 0
 422 81 426 75 435 75 c 0
 445 75 460 79 473 88 c 1
 484 60 l 1
 442 19 376 -10 329 -10 c 0
 299 -10 293 5 293 36 c 0
 293 61 302 110 311 165 c 1
 252 34 181 -10 118 -10 c 0
 59 -10 26 36 26 112 c 0
 26 272 137 435 279 435 c 0
 309 435 338 422 353 397 c 1
 359 420 l 1
 488 434 l 1
 465 338 l 2
192 68 m 0
 240 68 340 255 340 353 c 0
 340 378 324 398 294 398 c 0
 244 398 200 333 176 241 c 1
 165 203 160 165 160 131 c 0
 160 89 173 68 192 68 c 0
EndSplineSet
Substitution2: "Single Substitution lookup 21 subtable" ordfeminine
Substitution2: "'aalt' Access All Alternates lookup 0 subtable" ordfeminine
EndChar

StartChar: aacute
Encoding: 225 225 111
Width: 511
Flags: MW
HStem: -10 78<88.5 216> 398 37<269 294 208 309>
VStem: 26 134<110 148 110 192>
LayerCount: 2
Fore
SplineSet
369 629 m 2
 388 647 393 653 408 653 c 0
 431 653 470 631 470 617 c 0
 470 610 466 605 455 599 c 2
 276 496 l 2
 270 492 259 487 251 487 c 0
 244 487 241 490 241 496 c 0
 241 504 246 510 261 524 c 2
 369 629 l 2
465 338 m 2
 441 238 422 128 422 92 c 0
 422 81 426 75 435 75 c 0
 445 75 460 79 473 88 c 1
 484 60 l 1
 442 19 376 -10 329 -10 c 0
 299 -10 293 5 293 36 c 0
 293 61 302 110 311 165 c 1
 252 34 181 -10 118 -10 c 0
 59 -10 26 36 26 112 c 0
 26 272 137 435 279 435 c 0
 309 435 338 422 353 397 c 1
 359 420 l 1
 488 434 l 1
 465 338 l 2
192 68 m 0
 240 68 340 255 340 353 c 0
 340 378 324 398 294 398 c 0
 244 398 200 333 176 241 c 1
 165 203 160 165 160 131 c 0
 160 89 173 68 192 68 c 0
EndSplineSet
EndChar

StartChar: abreve
Encoding: 259 259 112
Width: 511
Flags: MW
HStem: -10 78<88.5 216> 398 37<269 294 208 309> 511 65<295 349.5 295 353.5>
VStem: 26 134<110 148 110 192>
LayerCount: 2
Fore
SplineSet
466 642 m 1
 453 565 393 511 314 511 c 0
 241 511 199 556 199 622 c 0
 199 629 199 635 200 642 c 1
 247 642 l 1
 250 610 267 576 323 576 c 0
 376 576 407 610 419 642 c 1
 466 642 l 1
465 338 m 2
 441 238 422 128 422 92 c 0
 422 81 426 75 435 75 c 0
 445 75 460 79 473 88 c 1
 484 60 l 1
 442 19 376 -10 329 -10 c 0
 299 -10 293 5 293 36 c 0
 293 61 302 110 311 165 c 1
 252 34 181 -10 118 -10 c 0
 59 -10 26 36 26 112 c 0
 26 272 137 435 279 435 c 0
 309 435 338 422 353 397 c 1
 359 420 l 1
 488 434 l 1
 465 338 l 2
192 68 m 0
 240 68 340 255 340 353 c 0
 340 378 324 398 294 398 c 0
 244 398 200 333 176 241 c 1
 165 203 160 165 160 131 c 0
 160 89 173 68 192 68 c 0
EndSplineSet
EndChar

StartChar: acircumflex
Encoding: 226 226 113
Width: 511
Flags: MW
HStem: -10 78<88.5 216> 398 37<269 294 208 309> 570 60<298 322>
VStem: 26 134<110 148 110 192>
LayerCount: 2
Fore
SplineSet
204 504 m 2
 196 499 182 492 170 492 c 0
 161 492 159 496 159 499 c 0
 159 508 197 535 245 582 c 1
 298 630 l 2
 311 642 324 648 334 648 c 0
 344 648 355 642 364 630 c 2
 403 582 l 1
 437 536 467 510 467 501 c 0
 467 498 465 492 453 492 c 0
 442 492 429 499 422 504 c 2
 322 570 l 1
 204 504 l 2
465 338 m 2
 441 238 422 128 422 92 c 0
 422 81 426 75 435 75 c 0
 445 75 460 79 473 88 c 1
 484 60 l 1
 442 19 376 -10 329 -10 c 0
 299 -10 293 5 293 36 c 0
 293 61 302 110 311 165 c 1
 252 34 181 -10 118 -10 c 0
 59 -10 26 36 26 112 c 0
 26 272 137 435 279 435 c 0
 309 435 338 422 353 397 c 1
 359 420 l 1
 488 434 l 1
 465 338 l 2
192 68 m 0
 240 68 340 255 340 353 c 0
 340 378 324 398 294 398 c 0
 244 398 200 333 176 241 c 1
 165 203 160 165 160 131 c 0
 160 89 173 68 192 68 c 0
EndSplineSet
EndChar

StartChar: adieresis
Encoding: 228 228 114
Width: 511
Flags: MW
HStem: -10 78<88.5 216> 398 37<269 294 208 309> 532 125<214 246 407 439>
VStem: 26 134<110 148 110 192> 152 156<581 607> 345 156<581 607>
LayerCount: 2
Fore
SplineSet
238 657 m 0xec
 280 657 308 636 308 604 c 0
 308 558 271 532 221 532 c 0
 180 532 152 553 152 585 c 0
 152 629 190 657 238 657 c 0xec
431 657 m 0
 473 657 501 636 501 604 c 0
 501 558 464 532 414 532 c 0
 373 532 345 553 345 585 c 0
 345 629 383 657 431 657 c 0
465 338 m 2
 441 238 422 128 422 92 c 0
 422 81 426 75 435 75 c 0
 445 75 460 79 473 88 c 1
 484 60 l 1
 442 19 376 -10 329 -10 c 0
 299 -10 293 5 293 36 c 0
 293 61 302 110 311 165 c 1
 252 34 181 -10 118 -10 c 0
 59 -10 26 36 26 112 c 0xf4
 26 272 137 435 279 435 c 0
 309 435 338 422 353 397 c 1
 359 420 l 1
 488 434 l 1
 465 338 l 2
192 68 m 0xf4
 240 68 340 255 340 353 c 0
 340 378 324 398 294 398 c 0
 244 398 200 333 176 241 c 1
 165 203 160 165 160 131 c 0
 160 89 173 68 192 68 c 0xf4
EndSplineSet
EndChar

StartChar: agrave
Encoding: 224 224 115
Width: 511
Flags: MW
HStem: -10 78<88.5 216> 398 37<269 294 208 309>
VStem: 26 134<110 148 110 192>
LayerCount: 2
Fore
SplineSet
197 599 m 2
 190 604 187 609 187 616 c 0
 189 630 236 653 260 653 c 0
 275 653 277 648 291 629 c 2
 373 523 l 1
 381 511 385 505 384 497 c 0
 383 491 378 487 370 487 c 0
 362 487 353 492 347 496 c 2
 197 599 l 2
465 338 m 2
 441 238 422 128 422 92 c 0
 422 81 426 75 435 75 c 0
 445 75 460 79 473 88 c 1
 484 60 l 1
 442 19 376 -10 329 -10 c 0
 299 -10 293 5 293 36 c 0
 293 61 302 110 311 165 c 1
 252 34 181 -10 118 -10 c 0
 59 -10 26 36 26 112 c 0
 26 272 137 435 279 435 c 0
 309 435 338 422 353 397 c 1
 359 420 l 1
 488 434 l 1
 465 338 l 2
192 68 m 0
 240 68 340 255 340 353 c 0
 340 378 324 398 294 398 c 0
 244 398 200 333 176 241 c 1
 165 203 160 165 160 131 c 0
 160 89 173 68 192 68 c 0
EndSplineSet
EndChar

StartChar: amacron
Encoding: 257 257 116
Width: 511
Flags: MW
HStem: -10 78<88.5 216> 398 37<269 294 208 309> 560 47<207 440 200 447>
VStem: 26 134<110 148 110 192>
LayerCount: 2
Fore
SplineSet
440 560 m 1
 200 560 l 1
 207 607 l 1
 447 607 l 1
 440 560 l 1
465 338 m 2
 441 238 422 128 422 92 c 0
 422 81 426 75 435 75 c 0
 445 75 460 79 473 88 c 1
 484 60 l 1
 442 19 376 -10 329 -10 c 0
 299 -10 293 5 293 36 c 0
 293 61 302 110 311 165 c 1
 252 34 181 -10 118 -10 c 0
 59 -10 26 36 26 112 c 0
 26 272 137 435 279 435 c 0
 309 435 338 422 353 397 c 1
 359 420 l 1
 488 434 l 1
 465 338 l 2
192 68 m 0
 240 68 340 255 340 353 c 0
 340 378 324 398 294 398 c 0
 244 398 200 333 176 241 c 1
 165 203 160 165 160 131 c 0
 160 89 173 68 192 68 c 0
EndSplineSet
EndChar

StartChar: aogonek
Encoding: 261 261 117
Width: 511
Flags: MW
HStem: -159 58<345.5 419.5> -10 78<88.5 216> 398 37<269 294 208 309>
VStem: 26 134<110 148 110 192> 292 72<-117 -46.5>
LayerCount: 2
Fore
SplineSet
489 -99 m 1
 451 -137 407 -159 364 -159 c 0
 327 -159 292 -138 292 -96 c 0
 292 -65 309 -34 341 -9 c 1
 329 -10 l 1
 299 -10 293 5 293 36 c 0
 293 61 302 110 311 165 c 1
 252 34 181 -10 118 -10 c 0
 59 -10 26 36 26 112 c 0
 26 272 137 435 279 435 c 0
 309 435 338 422 353 397 c 1
 359 420 l 1
 488 434 l 1
 465 338 l 2
 441 238 422 128 422 92 c 0
 422 81 426 75 435 75 c 0
 445 75 460 79 473 88 c 1
 484 60 l 1
 464 40 437 23 410 11 c 1
 381 -6 364 -32 364 -61 c 0
 364 -83 377 -101 408 -101 c 0
 431 -101 455 -93 479 -79 c 1
 489 -99 l 1
192 68 m 0
 240 68 340 255 340 353 c 0
 340 378 324 398 294 398 c 0
 244 398 200 333 176 241 c 1
 165 203 160 165 160 131 c 0
 160 89 173 68 192 68 c 0
EndSplineSet
EndChar

StartChar: aring
Encoding: 229 229 118
Width: 511
Flags: MW
HStem: -10 78<88.5 216> 398 37<269 294 208 309> 492 41<308.5 330.5 308.5 340> 616 42<317 339.5>
VStem: 26 134<110 148 110 192> 237 50<557.5 582 557.5 590.5> 361 51<567 591.5>
LayerCount: 2
Fore
SplineSet
237 564 m 0
 237 617 282 658 335 658 c 0
 382 658 412 628 412 586 c 0
 412 531 368 492 312 492 c 0
 266 492 237 521 237 564 c 0
287 568 m 0
 287 547 299 533 318 533 c 0
 343 533 361 553 361 581 c 0
 361 602 350 616 329 616 c 0
 305 616 287 596 287 568 c 0
465 338 m 2
 441 238 422 128 422 92 c 0
 422 81 426 75 435 75 c 0
 445 75 460 79 473 88 c 1
 484 60 l 1
 442 19 376 -10 329 -10 c 0
 299 -10 293 5 293 36 c 0
 293 61 302 110 311 165 c 1
 252 34 181 -10 118 -10 c 0
 59 -10 26 36 26 112 c 0
 26 272 137 435 279 435 c 0
 309 435 338 422 353 397 c 1
 359 420 l 1
 488 434 l 1
 465 338 l 2
192 68 m 0
 240 68 340 255 340 353 c 0
 340 378 324 398 294 398 c 0
 244 398 200 333 176 241 c 1
 165 203 160 165 160 131 c 0
 160 89 173 68 192 68 c 0
EndSplineSet
EndChar

StartChar: atilde
Encoding: 227 227 119
Width: 511
Flags: MW
HStem: -10 78<88.5 216> 398 37<269 294 208 309> 525 61<386 414.5 386 415> 565 60<228.5 257>
VStem: 26 134<110 148 110 192> 172 28<526 526> 443 28<624 624>
LayerCount: 2
Fore
SplineSet
172 526 m 1xde
 180 583 205 625 250 625 c 0xde
 298 625 367 586 405 586 c 0
 424 586 440 601 443 624 c 1
 471 624 l 1
 463 567 437 525 393 525 c 0xea
 344 525 276 565 238 565 c 0
 219 565 203 550 200 526 c 1
 172 526 l 1xde
465 338 m 2xda
 441 238 422 128 422 92 c 0
 422 81 426 75 435 75 c 0
 445 75 460 79 473 88 c 1
 484 60 l 1
 442 19 376 -10 329 -10 c 0
 299 -10 293 5 293 36 c 0
 293 61 302 110 311 165 c 1
 252 34 181 -10 118 -10 c 0
 59 -10 26 36 26 112 c 0
 26 272 137 435 279 435 c 0
 309 435 338 422 353 397 c 1
 359 420 l 1
 488 434 l 1
 465 338 l 2xda
192 68 m 0
 240 68 340 255 340 353 c 0
 340 378 324 398 294 398 c 0
 244 398 200 333 176 241 c 1
 165 203 160 165 160 131 c 0
 160 89 173 68 192 68 c 0
EndSplineSet
EndChar

StartChar: ae
Encoding: 230 230 120
Width: 636
Flags: MW
HStem: -10 78<75 189> -9 71<439 445.5> 378 37<296 332.5> 400 35<485.5 514>
VStem: 12 131<111 146.5 111 186> 251 134<158 168 168 183 131.5 202.5> 539 107<320 367>
LayerCount: 2
Fore
SplineSet
606 92 m 1x5e
 560 32 483 -9 408 -9 c 0x5e
 332 -9 280 29 260 93 c 1
 211 18 157 -10 105 -10 c 0
 45 -10 12 37 12 110 c 0
 12 262 154 415 329 415 c 0xae
 350 415 371 411 388 401 c 1
 424 423 465 435 506 435 c 0
 590 435 646 397 646 341 c 0
 646 275 575 202 385 183 c 1
 385 168 l 2
 385 95 416 62 462 62 c 0
 499 62 544 80 584 112 c 1
 606 92 l 1x5e
500 400 m 0
 465 400 437 371 415 319 c 0
 401 286 392 251 388 216 c 1
 488 233 539 285 539 355 c 0
 539 379 528 400 500 400 c 0
251 158 m 1xae
 251 247 292 325 352 376 c 1
 345 377 337 378 328 378 c 0
 264 378 198 324 169 248 c 1
 151 207 143 164 143 129 c 0
 143 93 155 68 179 68 c 0
 199 68 226 97 252 139 c 1
 251 158 l 1xae
EndSplineSet
EndChar

StartChar: b
Encoding: 98 98 121
Width: 487
Flags: MW
HStem: -7 35<201 237.5 201 267.5> 358 77<284 405.5>
VStem: 50 114<72.5 132.5 64 147> 116 138<594.5 714.5> 342 134<275 314>
LayerCount: 2
Fore
SplineSet
53 698 m 1xd8
 112 720 170 730 208 730 c 0
 236 730 254 726 254 703 c 0
 254 676 206 440 183 247 c 1xd8
 230 375 305 435 374 435 c 0
 437 435 476 386 476 309 c 0
 476 170 356 -7 179 -7 c 0
 83 -7 50 43 50 102 c 0xe8
 50 192 116 550 116 639 c 0
 116 660 106 668 83 668 c 0
 76 668 66 667 59 666 c 1
 53 698 l 1xd8
309 358 m 0xe8
 259 358 164 177 164 88 c 0
 164 40 191 28 211 28 c 0
 264 28 304 105 324 176 c 0
 336 216 342 260 342 290 c 0
 342 338 326 358 309 358 c 0xe8
EndSplineSet
EndChar

StartChar: c
Encoding: 99 99 122
Width: 416
Flags: MW
HStem: -9 71<205.5 213> 400 35<249.5 280>
VStem: 18 134<132.5 194 132.5 236.5> 309 106<350.5 367 321 374>
LayerCount: 2
Fore
SplineSet
373 92 m 1
 327 32 250 -9 176 -9 c 0
 75 -9 18 54 18 158 c 0
 18 315 144 435 278 435 c 0
 356 435 415 395 415 339 c 0
 415 303 389 268 342 268 c 0
 321 268 293 275 293 306 c 0
 293 330 309 339 309 362 c 0
 309 386 292 400 268 400 c 0
 231 400 203 369 181 316 c 0
 161 269 152 219 152 169 c 0
 152 96 182 62 229 62 c 0
 267 62 314 82 351 112 c 1
 373 92 l 1
EndSplineSet
EndChar

StartChar: cacute
Encoding: 263 263 123
Width: 416
Flags: MW
HStem: -9 71<205.5 213> 400 35<249.5 280>
VStem: 18 134<132.5 194 132.5 236.5> 309 106<350.5 367 321 374>
LayerCount: 2
Fore
SplineSet
324 629 m 2
 343 647 348 653 363 653 c 0
 386 653 425 631 425 617 c 0
 425 610 421 605 410 599 c 2
 231 496 l 2
 225 492 214 487 206 487 c 0
 199 487 196 490 196 496 c 0
 196 504 201 510 216 524 c 2
 324 629 l 2
373 92 m 1
 327 32 250 -9 176 -9 c 0
 75 -9 18 54 18 158 c 0
 18 315 144 435 278 435 c 0
 356 435 415 395 415 339 c 0
 415 303 389 268 342 268 c 0
 321 268 293 275 293 306 c 0
 293 330 309 339 309 362 c 0
 309 386 292 400 268 400 c 0
 231 400 203 369 181 316 c 0
 161 269 152 219 152 169 c 0
 152 96 182 62 229 62 c 0
 267 62 314 82 351 112 c 1
 373 92 l 1
EndSplineSet
EndChar

StartChar: ccaron
Encoding: 269 269 124
Width: 416
Flags: MW
HStem: -9 71<205.5 213> 400 35<249.5 280> 519 60<237 279 279 303>
VStem: 18 134<132.5 194 132.5 236.5> 309 106<350.5 367 321 374>
LayerCount: 2
Fore
SplineSet
397 645 m 2
 405 650 419 657 431 657 c 0
 440 657 442 653 442 650 c 0
 442 641 404 614 356 567 c 1
 303 519 l 2
 290 507 277 501 267 501 c 0
 257 501 246 507 237 519 c 2
 198 567 l 1
 164 613 134 639 134 648 c 0
 134 651 136 657 148 657 c 0
 159 657 172 650 179 645 c 2
 279 579 l 1
 397 645 l 2
373 92 m 1
 327 32 250 -9 176 -9 c 0
 75 -9 18 54 18 158 c 0
 18 315 144 435 278 435 c 0
 356 435 415 395 415 339 c 0
 415 303 389 268 342 268 c 0
 321 268 293 275 293 306 c 0
 293 330 309 339 309 362 c 0
 309 386 292 400 268 400 c 0
 231 400 203 369 181 316 c 0
 161 269 152 219 152 169 c 0
 152 96 182 62 229 62 c 0
 267 62 314 82 351 112 c 1
 373 92 l 1
EndSplineSet
EndChar

StartChar: ccedilla
Encoding: 231 231 125
Width: 416
Flags: MW
HStem: -214 35<127.5 134 113 165> -9 71<166 248> 400 35<249.5 280>
VStem: 18 134<132.5 194 132.5 236.5> 118 61<-67.5 -63.5> 176 89<-142.5 -122.5> 309 106<350.5 367 321 374>
LayerCount: 2
Fore
SplineSet
166 -9 m 1xf2
 71 -5 18 58 18 158 c 0
 18 315 144 435 278 435 c 0
 356 435 415 395 415 339 c 0
 415 303 389 268 342 268 c 0
 321 268 293 275 293 306 c 0
 293 330 309 339 309 362 c 0
 309 386 292 400 268 400 c 0
 231 400 203 369 181 316 c 0
 161 269 152 219 152 169 c 0
 152 96 182 62 229 62 c 0xf2
 267 62 314 82 351 112 c 1
 373 92 l 1
 334 41 273 4 210 -6 c 1
 187 -36 l 2
 182 -44 179 -52 179 -56 c 0xea
 179 -79 265 -63 265 -116 c 0
 265 -181 194 -214 136 -214 c 0
 119 -214 90 -213 69 -198 c 1
 87 -165 l 1
 94 -175 106 -179 120 -179 c 0
 148 -179 176 -155 176 -130 c 0
 176 -115 162 -102 148 -94 c 1xf6
 127 -80 l 2
 121 -75 118 -71 118 -66 c 0
 118 -61 120 -57 126 -52 c 2xea
 166 -9 l 1xf2
EndSplineSet
EndChar

StartChar: d
Encoding: 100 100 126
Width: 511
Flags: MW
HStem: -10 78<86 204.5> 398 37<252.5 278 190.5 290.5>
VStem: 13 133<113.5 152.5 113.5 194> 291 131<22 102>
LayerCount: 2
Fore
SplineSet
307 698 m 1
 367 721 421 730 464 730 c 0
 491 730 508 726 508 701 c 0
 508 686 498 634 486 567 c 1
 463 424 425 189 422 102 c 0
 422 91 426 75 441 75 c 0
 445 75 459 77 473 86 c 1
 485 59 l 1
 433 14 377 -10 339 -10 c 0
 309 -10 291 7 291 37 c 0
 291 83 296 126 304 175 c 1
 252 38 175 -10 114 -10 c 0
 58 -10 13 38 13 114 c 0
 13 274 120 435 261 435 c 0
 295 435 327 421 340 393 c 1
 355 494 370 613 370 644 c 0
 370 660 357 668 336 668 c 0
 329 668 321 668 312 666 c 1
 307 698 l 1
181 68 m 0
 228 68 327 251 327 348 c 0
 327 381 304 398 277 398 c 0
 228 398 186 334 162 244 c 0
 152 207 146 169 146 136 c 0
 146 91 161 68 181 68 c 0
EndSplineSet
EndChar

StartChar: eth
Encoding: 240 240 127
Width: 462
Flags: MW
HStem: -10 43<185 222 185 265.5> 394 41<240 272.5 191 277.5> 532 20G<313 313> 578 29<116 139>
VStem: 18 131<112 156.5 97.5 231> 313 131<269.5 329>
LayerCount: 2
Fore
SplineSet
313 552 m 1
 390 498 444 405 444 268 c 0
 444 122 352 -10 179 -10 c 0
 64 -10 18 67 18 157 c 0
 18 305 113 435 269 435 c 0
 276 435 283 434 290 433 c 1
 278 464 259 492 238 512 c 1
 129 453 l 1
 115 483 l 1
 212 535 l 1
 178 560 144 575 116 578 c 1
 139 607 l 1
 188 606 237 594 281 571 c 1
 372 620 l 1
 384 590 l 1xfc
 313 552 l 1
290 144 m 1
 305 190 313 246 313 293 c 0
 313 365 293 394 262 394 c 0
 218 394 190 343 171 281 c 0
 157 235 149 180 149 133 c 0
 149 62 170 33 200 33 c 0
 244 33 272 82 290 144 c 1
EndSplineSet
EndChar

StartChar: dcaron
Encoding: 271 271 128
Width: 511
Flags: MW
HStem: -10 78<86 204.5> 398 37<252.5 278 190.5 290.5> 534 97<538.5 604>
VStem: 13 133<113.5 152.5 113.5 194> 291 131<22 102> 516 131<559 588 541.5 588.5>
LayerCount: 2
Fore
SplineSet
307 698 m 1
 367 721 421 730 464 730 c 0
 491 730 508 726 508 701 c 0
 508 686 498 634 486 567 c 1
 463 424 425 189 422 102 c 0
 422 91 426 75 441 75 c 0
 445 75 459 77 473 86 c 1
 485 59 l 1
 433 14 377 -10 339 -10 c 0
 309 -10 291 7 291 37 c 0
 291 83 296 126 304 175 c 1
 252 38 175 -10 114 -10 c 0
 58 -10 13 38 13 114 c 0
 13 274 120 435 261 435 c 0
 295 435 327 421 340 393 c 1
 355 494 370 613 370 644 c 0
 370 660 357 668 336 668 c 0
 329 668 321 668 312 666 c 1
 307 698 l 1
522 461 m 1
 543 474 567 494 567 515 c 0
 567 516 567 517 567 517 c 2
 567 530 558 534 549 534 c 0
 528 534 516 548 516 570 c 0
 516 607 548 631 586 631 c 0
 622 631 647 606 647 570 c 0
 647 513 590 461 540 439 c 1
 522 461 l 1
181 68 m 0
 228 68 327 251 327 348 c 0
 327 381 304 398 277 398 c 0
 228 398 186 334 162 244 c 0
 152 207 146 169 146 136 c 0
 146 91 161 68 181 68 c 0
EndSplineSet
EndChar

StartChar: dcroat
Encoding: 273 273 129
Width: 511
Flags: MW
HStem: -10 78<86 204.5> 398 37<252.5 278 190.5 290.5> 551 47<279 361 271 367 492 538>
VStem: 13 133<113.5 152.5 113.5 194> 291 131<22 102>
LayerCount: 2
Fore
SplineSet
483 551 m 1
 460 407 425 186 422 102 c 0
 422 91 426 75 441 75 c 0
 445 75 459 77 473 86 c 1
 485 59 l 1
 433 14 377 -10 339 -10 c 0
 309 -10 291 7 291 37 c 0
 291 83 296 126 304 175 c 1
 252 38 175 -10 114 -10 c 0
 58 -10 13 38 13 114 c 0
 13 274 120 435 261 435 c 0
 295 435 327 421 340 393 c 1
 348 446 356 504 361 551 c 1
 271 551 l 1
 279 598 l 1
 367 598 l 1
 369 619 370 635 370 644 c 0
 370 660 357 668 336 668 c 0
 329 668 321 668 312 666 c 1
 307 698 l 1
 367 721 421 730 464 730 c 0
 491 730 508 726 508 701 c 0
 508 688 501 650 492 598 c 1
 546 598 l 1
 538 551 l 1
 483 551 l 1
181 68 m 0
 228 68 327 251 327 348 c 0
 327 381 304 398 277 398 c 0
 228 398 186 334 162 244 c 0
 152 207 146 169 146 136 c 0
 146 91 161 68 181 68 c 0
EndSplineSet
EndChar

StartChar: e
Encoding: 101 101 130
Width: 408
Flags: MW
HStem: -9 71<206 212.5> 400 35<249.5 281>
VStem: 18 134<131.5 168 168 183 131.5 235.5> 306 107<320 367>
LayerCount: 2
Fore
SplineSet
373 92 m 1
 327 32 250 -9 175 -9 c 0
 76 -9 18 54 18 158 c 0
 18 313 143 435 273 435 c 0
 357 435 413 397 413 341 c 0
 413 275 342 202 152 183 c 1
 152 168 l 2
 152 95 183 62 229 62 c 0
 266 62 311 80 351 112 c 1
 373 92 l 1
267 400 m 0
 232 400 204 371 182 319 c 0
 168 286 159 251 155 216 c 1
 255 233 306 285 306 355 c 0
 306 379 295 400 267 400 c 0
EndSplineSet
EndChar

StartChar: eacute
Encoding: 233 233 131
Width: 408
Flags: MW
HStem: -9 71<206 212.5> 400 35<249.5 281>
VStem: 18 134<131.5 168 168 183 131.5 235.5> 306 107<320 367>
LayerCount: 2
Fore
SplineSet
339 629 m 2
 358 647 363 653 378 653 c 0
 401 653 440 631 440 617 c 0
 440 610 436 605 425 599 c 2
 246 496 l 2
 240 492 229 487 221 487 c 0
 214 487 211 490 211 496 c 0
 211 504 216 510 231 524 c 2
 339 629 l 2
373 92 m 1
 327 32 250 -9 175 -9 c 0
 76 -9 18 54 18 158 c 0
 18 313 143 435 273 435 c 0
 357 435 413 397 413 341 c 0
 413 275 342 202 152 183 c 1
 152 168 l 2
 152 95 183 62 229 62 c 0
 266 62 311 80 351 112 c 1
 373 92 l 1
267 400 m 0
 232 400 204 371 182 319 c 0
 168 286 159 251 155 216 c 1
 255 233 306 285 306 355 c 0
 306 379 295 400 267 400 c 0
EndSplineSet
EndChar

StartChar: ecaron
Encoding: 283 283 132
Width: 408
Flags: MW
HStem: -9 71<206 212.5> 400 35<249.5 281> 519 60<252 294 294 318>
VStem: 18 134<131.5 168 168 183 131.5 235.5> 306 107<320 367>
LayerCount: 2
Fore
SplineSet
412 645 m 2
 420 650 434 657 446 657 c 0
 455 657 457 653 457 650 c 0
 457 641 419 614 371 567 c 1
 318 519 l 2
 305 507 292 501 282 501 c 0
 272 501 261 507 252 519 c 2
 213 567 l 1
 179 613 149 639 149 648 c 0
 149 651 151 657 163 657 c 0
 174 657 187 650 194 645 c 2
 294 579 l 1
 412 645 l 2
373 92 m 1
 327 32 250 -9 175 -9 c 0
 76 -9 18 54 18 158 c 0
 18 313 143 435 273 435 c 0
 357 435 413 397 413 341 c 0
 413 275 342 202 152 183 c 1
 152 168 l 2
 152 95 183 62 229 62 c 0
 266 62 311 80 351 112 c 1
 373 92 l 1
267 400 m 0
 232 400 204 371 182 319 c 0
 168 286 159 251 155 216 c 1
 255 233 306 285 306 355 c 0
 306 379 295 400 267 400 c 0
EndSplineSet
EndChar

StartChar: ecircumflex
Encoding: 234 234 133
Width: 408
Flags: MW
HStem: -9 71<206 212.5> 400 35<249.5 281> 570 60<268 292>
VStem: 18 134<131.5 168 168 183 131.5 235.5> 306 107<320 367>
LayerCount: 2
Fore
SplineSet
174 504 m 2
 166 499 152 492 140 492 c 0
 131 492 129 496 129 499 c 0
 129 508 167 535 215 582 c 1
 268 630 l 2
 281 642 294 648 304 648 c 0
 314 648 325 642 334 630 c 2
 373 582 l 1
 407 536 437 510 437 501 c 0
 437 498 435 492 423 492 c 0
 412 492 399 499 392 504 c 2
 292 570 l 1
 174 504 l 2
373 92 m 1
 327 32 250 -9 175 -9 c 0
 76 -9 18 54 18 158 c 0
 18 313 143 435 273 435 c 0
 357 435 413 397 413 341 c 0
 413 275 342 202 152 183 c 1
 152 168 l 2
 152 95 183 62 229 62 c 0
 266 62 311 80 351 112 c 1
 373 92 l 1
267 400 m 0
 232 400 204 371 182 319 c 0
 168 286 159 251 155 216 c 1
 255 233 306 285 306 355 c 0
 306 379 295 400 267 400 c 0
EndSplineSet
EndChar

StartChar: edieresis
Encoding: 235 235 134
Width: 408
Flags: MW
HStem: -9 71<206 212.5> 400 35<249.5 281> 532 125<183 215 377 409>
VStem: 18 134<131.5 168 168 183 131.5 235.5> 121 156<581 607> 306 107<320 367> 315 156<581 607>
LayerCount: 2
Fore
SplineSet
207 657 m 0xea
 249 657 277 636 277 604 c 0
 277 558 240 532 190 532 c 0
 149 532 121 553 121 585 c 0
 121 629 159 657 207 657 c 0xea
401 657 m 0
 443 657 471 636 471 604 c 0
 471 558 434 532 384 532 c 0
 343 532 315 553 315 585 c 0
 315 629 353 657 401 657 c 0
373 92 m 1
 327 32 250 -9 175 -9 c 0
 76 -9 18 54 18 158 c 0
 18 313 143 435 273 435 c 0
 357 435 413 397 413 341 c 0xf4
 413 275 342 202 152 183 c 1
 152 168 l 2
 152 95 183 62 229 62 c 0xf2
 266 62 311 80 351 112 c 1
 373 92 l 1
267 400 m 0xf4
 232 400 204 371 182 319 c 0
 168 286 159 251 155 216 c 1
 255 233 306 285 306 355 c 0
 306 379 295 400 267 400 c 0xf4
EndSplineSet
EndChar

StartChar: edotaccent
Encoding: 279 279 135
Width: 408
Flags: MW
HStem: -9 71<206 212.5> 400 35<249.5 281> 532 125<278 310>
VStem: 18 134<131.5 168 168 183 131.5 235.5> 216 156<581 607> 306 107<320 367>
LayerCount: 2
Fore
SplineSet
302 657 m 0xf8
 344 657 372 636 372 604 c 0
 372 558 335 532 285 532 c 0
 244 532 216 553 216 585 c 0
 216 629 254 657 302 657 c 0xf8
373 92 m 1
 327 32 250 -9 175 -9 c 0
 76 -9 18 54 18 158 c 0
 18 313 143 435 273 435 c 0
 357 435 413 397 413 341 c 0xf4
 413 275 342 202 152 183 c 1
 152 168 l 2
 152 95 183 62 229 62 c 0
 266 62 311 80 351 112 c 1
 373 92 l 1
267 400 m 0xf4
 232 400 204 371 182 319 c 0
 168 286 159 251 155 216 c 1
 255 233 306 285 306 355 c 0
 306 379 295 400 267 400 c 0xf4
EndSplineSet
EndChar

StartChar: egrave
Encoding: 232 232 136
Width: 408
Flags: MW
HStem: -9 71<206 212.5> 400 35<249.5 281>
VStem: 18 134<131.5 168 168 183 131.5 235.5> 306 107<320 367>
LayerCount: 2
Fore
SplineSet
167 599 m 2
 160 604 157 609 157 616 c 0
 159 630 206 653 230 653 c 0
 245 653 247 648 261 629 c 2
 343 523 l 1
 351 511 355 505 354 497 c 0
 353 491 348 487 340 487 c 0
 332 487 323 492 317 496 c 2
 167 599 l 2
373 92 m 1
 327 32 250 -9 175 -9 c 0
 76 -9 18 54 18 158 c 0
 18 313 143 435 273 435 c 0
 357 435 413 397 413 341 c 0
 413 275 342 202 152 183 c 1
 152 168 l 2
 152 95 183 62 229 62 c 0
 266 62 311 80 351 112 c 1
 373 92 l 1
267 400 m 0
 232 400 204 371 182 319 c 0
 168 286 159 251 155 216 c 1
 255 233 306 285 306 355 c 0
 306 379 295 400 267 400 c 0
EndSplineSet
EndChar

StartChar: emacron
Encoding: 275 275 137
Width: 408
Flags: MW
HStem: -9 71<206 212.5> 400 35<249.5 281> 560 47<177 410 170 417>
VStem: 18 134<131.5 168 168 183 131.5 235.5> 306 107<320 367>
LayerCount: 2
Fore
SplineSet
410 560 m 1
 170 560 l 1
 177 607 l 1
 417 607 l 1
 410 560 l 1
373 92 m 1
 327 32 250 -9 175 -9 c 0
 76 -9 18 54 18 158 c 0
 18 313 143 435 273 435 c 0
 357 435 413 397 413 341 c 0
 413 275 342 202 152 183 c 1
 152 168 l 2
 152 95 183 62 229 62 c 0
 266 62 311 80 351 112 c 1
 373 92 l 1
267 400 m 0
 232 400 204 371 182 319 c 0
 168 286 159 251 155 216 c 1
 255 233 306 285 306 355 c 0
 306 379 295 400 267 400 c 0
EndSplineSet
EndChar

StartChar: eogonek
Encoding: 281 281 138
Width: 408
Flags: MW
HStem: -159 58<202.5 276.5> -9 71<125.5 247.5> 400 35<249.5 281>
VStem: 18 134<131.5 168 168 183 131.5 235.5> 149 72<-117 -46.5> 306 107<320 367>
LayerCount: 2
Fore
SplineSet
346 -99 m 1xb4
 308 -137 264 -159 221 -159 c 0
 184 -159 149 -138 149 -96 c 0
 149 -64 167 -32 201 -7 c 1xec
 192 -8 184 -9 175 -9 c 0
 76 -9 18 54 18 158 c 0
 18 313 143 435 273 435 c 0
 357 435 413 397 413 341 c 0
 413 275 342 202 152 183 c 1
 152 168 l 2
 152 95 183 62 229 62 c 0xf4
 266 62 311 80 351 112 c 1
 373 92 l 1
 347 58 310 29 269 12 c 1
 239 -5 221 -32 221 -61 c 0
 221 -83 234 -101 265 -101 c 0xec
 288 -101 312 -93 336 -79 c 1
 346 -99 l 1xb4
182 319 m 0
 168 286 159 251 155 216 c 1
 255 233 306 285 306 355 c 0
 306 379 295 400 267 400 c 0
 232 400 204 371 182 319 c 0
EndSplineSet
EndChar

StartChar: f
Encoding: 102 102 139
Width: 301
Flags: MW
HStem: -245 34<-25.5 5.5 -25.5 38> 389 39<51 102 33 107 238 293> 405 23<314 314> 696 34<312 340>
VStem: -154 107<-183.5 -169.5 -193 -143> 358 107<655 665 626.5 675>
LayerCount: 2
Fore
SplineSet
108 440 m 1xdc
 126 605 208 730 340 730 c 0
 415 730 465 689 465 641 c 0
 465 612 445 573 394 573 c 0
 364 573 343 587 343 609 c 0
 343 628 358 644 358 666 c 0
 358 684 350 696 330 696 c 0
 294 696 256 652 241 454 c 1
 238 428 l 1
 314 428 l 1xdc
 314 405 l 1xbc
 293 389 l 1
 234 389 l 1
 202 102 l 1
 178 -90 108 -245 -32 -245 c 0
 -100 -245 -154 -208 -154 -159 c 0
 -154 -127 -132 -91 -83 -91 c 0
 -55 -91 -33 -103 -33 -128 c 0
 -33 -147 -47 -158 -47 -181 c 0
 -47 -205 -32 -211 -19 -211 c 0
 30 -211 51 -123 67 72 c 1
 102 389 l 1
 33 389 l 1
 51 428 l 1
 107 428 l 1
 108 440 l 1xdc
EndSplineSet
Substitution2: "Single Substitution lookup 27 subtable" f.ss04
Substitution2: "Single Substitution lookup 26 subtable" f.ss06
Substitution2: "Single Substitution lookup 25 subtable" f.ss02
Substitution2: "Single Substitution lookup 24 subtable" f.ss01
Substitution2: "Single Substitution lookup 23 subtable" f.ss07
Substitution2: "Single Substitution lookup 22 subtable" f.ss03
Substitution2: "Single Substitution lookup 21 subtable" f.ss05
Substitution2: "'ss04' Style Set 4 lookup 19 subtable" f.ss04
Substitution2: "'ss03' Style Set 3 lookup 18 subtable" f.ss03
Substitution2: "'ss02' Style Set 2 lookup 17 subtable" f.ss02
Substitution2: "'ss01' Style Set 1 lookup 16 subtable" f.ss01
Substitution2: "'salt' Stylistic Alternatives lookup 15 subtable" f.ss01
AlternateSubs2: "'aalt' Access All Alternates lookup 1 subtable" f.ss01 f.ss02 f.ss03 f.ss04
Position2: "Single Positioning lookup 3 subtable" dx=0 dy=0 dh=50 dv=0
EndChar

StartChar: g
Encoding: 103 103 140
Width: 481
Flags: MW
HStem: -245 33<130 214 130 238.5> 127 31<202 235.5 202 276.5> 405 30<247 280> 410 20G 449 61<420 492>
VStem: -31 94<-163.5 -127> 20 103<18.5 104> 42 131<222 238.5 200 293> 308 132<323.5 341.5 269.5 361.5> 322 115<-141 -108>
LayerCount: 2
Fore
SplineSet
104 145 m 1xe140
 61 165 42 201 42 243 c 0
 42 343 125 435 286 435 c 0xe180
 307 435 326 433 342 430 c 1xd480
 380 473 428 510 476 510 c 0
 508 510 530 495 530 465 c 0
 530 446 517 414 481 414 c 0
 442 414 452 449 426 449 c 0
 414 449 391 440 372 420 c 1
 419 401 440 363 440 320 c 0
 440 219 356 127 197 127 c 0
 176 127 158 129 141 132 c 1
 131 122 123 110 123 98 c 0xea80
 123 64 186 57 256 43 c 0
 342 26 437 4 437 -90 c 0
 437 -192 319 -245 158 -245 c 0
 32 -245 -31 -212 -31 -152 c 0xe440
 -31 -102 17 -62 91 -36 c 1
 50 -22 20 -1 20 38 c 0
 20 68 39 95 78 125 c 2xe240
 104 145 l 1xe140
294 237 m 0xe180
 305 268 308 308 308 339 c 0
 308 384 293 405 267 405 c 0
 227 405 203 371 188 326 c 0
 178 294 173 254 173 223 c 0
 173 177 188 158 216 158 c 0
 255 158 278 191 294 237 c 0xe180
322 -130 m 0xe440
 322 -86 262 -72 195 -59 c 0
 173 -55 150 -51 128 -46 c 1
 96 -62 63 -102 63 -144 c 0
 63 -183 92 -212 168 -212 c 0
 260 -212 322 -173 322 -130 c 0xe440
EndSplineSet
EndChar

StartChar: gbreve
Encoding: 287 287 141
Width: 481
Flags: MW
HStem: -245 33<130 214 130 238.5> 127 31<202 235.5 202 276.5> 405 30<247 280> 410 20G 449 61<420 492> 511 65<254 308.5 254 312.5>
VStem: -31 94<-163.5 -127> 20 103<18.5 104> 42 131<222 238.5 200 293> 308 132<323.5 341.5 269.5 361.5> 322 115<-141 -108>
LayerCount: 2
Fore
SplineSet
425 642 m 1xe620
 412 565 352 511 273 511 c 0
 200 511 158 556 158 622 c 0
 158 629 158 635 159 642 c 1
 206 642 l 1
 209 610 226 576 282 576 c 0
 335 576 366 610 378 642 c 1
 425 642 l 1xe620
104 145 m 1xe4a0
 61 165 42 201 42 243 c 0
 42 343 125 435 286 435 c 0xe4c0
 307 435 326 433 342 430 c 1xd640
 380 473 428 510 476 510 c 0
 508 510 530 495 530 465 c 0
 530 446 517 414 481 414 c 0
 442 414 452 449 426 449 c 0
 414 449 391 440 372 420 c 1
 419 401 440 363 440 320 c 0
 440 219 356 127 197 127 c 0
 176 127 158 129 141 132 c 1
 131 122 123 110 123 98 c 0xe940
 123 64 186 57 256 43 c 0
 342 26 437 4 437 -90 c 0
 437 -192 319 -245 158 -245 c 0
 32 -245 -31 -212 -31 -152 c 0xe620
 -31 -102 17 -62 91 -36 c 1
 50 -22 20 -1 20 38 c 0
 20 68 39 95 78 125 c 2xe520
 104 145 l 1xe4a0
294 237 m 0xe4c0
 305 268 308 308 308 339 c 0
 308 384 293 405 267 405 c 0
 227 405 203 371 188 326 c 0
 178 294 173 254 173 223 c 0
 173 177 188 158 216 158 c 0
 255 158 278 191 294 237 c 0xe4c0
322 -130 m 0xe620
 322 -86 262 -72 195 -59 c 0
 173 -55 150 -51 128 -46 c 1
 96 -62 63 -102 63 -144 c 0
 63 -183 92 -212 168 -212 c 0
 260 -212 322 -173 322 -130 c 0xe620
EndSplineSet
EndChar

StartChar: gcommaaccent
Encoding: 291 291 142
Width: 481
Flags: MW
HStem: -245 33<130 214 130 238.5> 127 31<202 235.5 202 276.5> 405 30<247 280> 410 20G 449 61<420 492> 486 107<237.5 307.5>
VStem: -31 94<-163.5 -127> 20 103<18.5 104> 42 131<222 238.5 200 293> 190 141<536.5 562 536 587> 308 132<323.5 341.5 269.5 361.5> 322 115<-141 -108>
LayerCount: 2
Fore
SplineSet
327 681 m 1xe640
 300 665 272 639 272 618 c 1
 271 598 283 593 296 593 c 0
 319 593 331 573 331 551 c 0
 331 521 308 486 260 486 c 0
 215 486 190 519 190 554 c 0
 190 620 251 676 310 703 c 1
 327 681 l 1xe640
104 145 m 1xe090
 61 165 42 201 42 243 c 0
 42 343 125 435 286 435 c 0xe0a0
 307 435 326 433 342 430 c 1xd220
 380 473 428 510 476 510 c 0
 508 510 530 495 530 465 c 0
 530 446 517 414 481 414 c 0
 442 414 452 449 426 449 c 0
 414 449 391 440 372 420 c 1
 419 401 440 363 440 320 c 0
 440 219 356 127 197 127 c 0
 176 127 158 129 141 132 c 1
 131 122 123 110 123 98 c 0xe920
 123 64 186 57 256 43 c 0
 342 26 437 4 437 -90 c 0
 437 -192 319 -245 158 -245 c 0
 32 -245 -31 -212 -31 -152 c 0xe210
 -31 -102 17 -62 91 -36 c 1
 50 -22 20 -1 20 38 c 0
 20 68 39 95 78 125 c 2xe110
 104 145 l 1xe090
294 237 m 0xe0a0
 305 268 308 308 308 339 c 0
 308 384 293 405 267 405 c 0
 227 405 203 371 188 326 c 0
 178 294 173 254 173 223 c 0
 173 177 188 158 216 158 c 0
 255 158 278 191 294 237 c 0xe0a0
322 -130 m 0xe210
 322 -86 262 -72 195 -59 c 0
 173 -55 150 -51 128 -46 c 1
 96 -62 63 -102 63 -144 c 0
 63 -183 92 -212 168 -212 c 0
 260 -212 322 -173 322 -130 c 0xe210
EndSplineSet
EndChar

StartChar: h
Encoding: 104 104 143
Width: 520
Flags: MW
HStem: 350 85<292.5 416.5>
VStem: 118 139<608.5 713.5> 348 130<314.5 327>
LayerCount: 2
Fore
SplineSet
496 60 m 1
 441 16 378 -10 341 -10 c 0
 317 -10 299 7 299 35 c 0
 299 87 348 266 348 316 c 0
 348 338 338 350 319 350 c 0
 266 350 195 222 169 119 c 1
 155 0 l 1
 31 0 l 1
 45 86 118 573 118 644 c 0
 118 660 105 668 85 668 c 0
 78 668 70 668 61 666 c 1
 56 698 l 1
 117 722 177 730 208 730 c 0
 239 730 257 726 257 701 c 0
 257 693 253 670 247 640 c 0
 237 589 226 518 218 464 c 2
 187 247 l 1
 228 335 297 435 389 435 c 0
 444 435 478 398 478 345 c 0
 478 284 430 140 429 98 c 0
 429 91 431 75 448 75 c 0
 454 75 468 77 485 88 c 1
 496 60 l 1
EndSplineSet
EndChar

StartChar: i
Encoding: 105 105 144
Width: 276
Flags: MW
HStem: 411 20G<164.5 198> 532 125<162 194>
VStem: 51 129<20.5 113> 89 139<335 415> 100 156<581 607>
LayerCount: 2
Fore
SplineSet
186 657 m 0xc8
 228 657 256 636 256 604 c 0
 256 558 219 532 169 532 c 0
 128 532 100 553 100 585 c 0
 100 629 138 657 186 657 c 0xc8
245 60 m 1xe0
 190 16 138 -10 100 -10 c 0
 70 -10 51 5 51 36 c 0xe0
 51 68 66 146 77 223 c 0
 85 283 89 324 89 346 c 0
 89 367 73 371 59 371 c 0
 54 371 47 370 43 369 c 1
 38 405 l 1
 89 421 142 431 187 431 c 0
 209 431 228 428 228 402 c 0xd0
 228 388 210 310 196 230 c 0
 186 176 180 124 180 102 c 0
 180 91 181 75 197 75 c 0
 202 75 216 77 233 88 c 1
 245 60 l 1xe0
EndSplineSet
Substitution2: "'locl' Localized Forms in Latin lookup 7 subtable" i.loclTRK
Substitution2: "'locl' Localized Forms in Latin lookup 6 subtable" i.loclTRK
Substitution2: "'locl' Localized Forms in Latin lookup 4 subtable" i.loclTRK
Substitution2: "'locl' Localized Forms in Latin lookup 3 subtable" i.loclTRK
Substitution2: "'locl' Localized Forms in Latin lookup 2 subtable" i.loclTRK
Substitution2: "'aalt' Access All Alternates lookup 0 subtable" i.loclTRK
EndChar

StartChar: dotlessi
Encoding: 305 305 145
Width: 275
Flags: MW
HStem: 411 20G<164.5 198>
VStem: 51 129<20.5 113> 89 139<335 415>
LayerCount: 2
Fore
SplineSet
245 60 m 1xc0
 190 16 138 -10 100 -10 c 0
 70 -10 51 5 51 36 c 0xc0
 51 68 66 146 77 223 c 0
 85 283 89 324 89 346 c 0
 89 367 73 371 59 371 c 0
 54 371 47 370 43 369 c 1
 38 405 l 1
 89 421 142 431 187 431 c 0
 209 431 228 428 228 402 c 0xa0
 228 388 210 310 196 230 c 0
 186 176 180 124 180 102 c 0
 180 91 181 75 197 75 c 0
 202 75 216 77 233 88 c 1
 245 60 l 1xc0
EndSplineSet
EndChar

StartChar: iacute
Encoding: 237 237 146
Width: 275
Flags: MW
HStem: 411 20G<164.5 198>
VStem: 38 294<405 624> 51 129<20.5 113> 89 139<335 415>
LayerCount: 2
Fore
SplineSet
231 629 m 2xc0
 250 647 255 653 270 653 c 0
 293 653 332 631 332 617 c 0
 332 610 328 605 317 599 c 2
 138 496 l 2
 132 492 121 487 113 487 c 0
 106 487 103 490 103 496 c 0
 103 504 108 510 123 524 c 2
 231 629 l 2xc0
245 60 m 1xa0
 190 16 138 -10 100 -10 c 0
 70 -10 51 5 51 36 c 0xa0
 51 68 66 146 77 223 c 0
 85 283 89 324 89 346 c 0
 89 367 73 371 59 371 c 0
 54 371 47 370 43 369 c 1
 38 405 l 1
 89 421 142 431 187 431 c 0
 209 431 228 428 228 402 c 0x90
 228 388 210 310 196 230 c 0
 186 176 180 124 180 102 c 0
 180 91 181 75 197 75 c 0
 202 75 216 77 233 88 c 1
 245 60 l 1xa0
EndSplineSet
EndChar

StartChar: icircumflex
Encoding: 238 238 147
Width: 275
Flags: MW
HStem: 411 20G<164.5 198>
VStem: 38 269<405 507> 51 129<20.5 113> 89 139<335 415>
LayerCount: 2
Fore
SplineSet
171 644 m 2xc0
 181 655 189 659 196 659 c 0
 204 659 210 654 217 644 c 2
 294 528 l 2
 302 517 307 509 307 505 c 0
 307 498 302 493 294 493 c 0
 289 493 279 498 270 504 c 2
 183 569 l 1
 78 504 l 2
 67 498 55 493 50 493 c 0
 44 493 40 497 40 502 c 0
 40 507 48 516 59 528 c 2
 171 644 l 2xc0
245 60 m 1xa0
 190 16 138 -10 100 -10 c 0
 70 -10 51 5 51 36 c 0xa0
 51 68 66 146 77 223 c 0
 85 283 89 324 89 346 c 0
 89 367 73 371 59 371 c 0
 54 371 47 370 43 369 c 1
 38 405 l 1
 89 421 142 431 187 431 c 0
 209 431 228 428 228 402 c 0x90
 228 388 210 310 196 230 c 0
 186 176 180 124 180 102 c 0
 180 91 181 75 197 75 c 0
 202 75 216 77 233 88 c 1
 245 60 l 1xa0
EndSplineSet
EndChar

StartChar: idieresis
Encoding: 239 239 148
Width: 275
Flags: MW
HStem: 411 20G<164.5 198> 532 125<75 107 269 301>
VStem: 13 156<581 607> 51 129<20.5 113> 89 139<335 415> 207 156<581 607>
LayerCount: 2
Fore
SplineSet
99 657 m 0xe4
 141 657 169 636 169 604 c 0
 169 558 132 532 82 532 c 0
 41 532 13 553 13 585 c 0
 13 629 51 657 99 657 c 0xe4
293 657 m 0
 335 657 363 636 363 604 c 0
 363 558 326 532 276 532 c 0
 235 532 207 553 207 585 c 0
 207 629 245 657 293 657 c 0
245 60 m 1xd0
 190 16 138 -10 100 -10 c 0
 70 -10 51 5 51 36 c 0xd0
 51 68 66 146 77 223 c 0
 85 283 89 324 89 346 c 0
 89 367 73 371 59 371 c 0
 54 371 47 370 43 369 c 1
 38 405 l 1
 89 421 142 431 187 431 c 0
 209 431 228 428 228 402 c 0xc8
 228 388 210 310 196 230 c 0
 186 176 180 124 180 102 c 0
 180 91 181 75 197 75 c 0
 202 75 216 77 233 88 c 1
 245 60 l 1xd0
EndSplineSet
EndChar

StartChar: igrave
Encoding: 236 236 149
Width: 275
Flags: MW
HStem: 411 20G<164.5 198>
VStem: 38 208 51 129<20.5 113> 89 139<335 415>
LayerCount: 2
Fore
SplineSet
59 599 m 2xc0
 52 604 49 609 49 616 c 0
 51 630 98 653 122 653 c 0
 137 653 139 648 153 629 c 2
 235 523 l 1
 243 511 247 505 246 497 c 0
 245 491 240 487 232 487 c 0
 224 487 215 492 209 496 c 2
 59 599 l 2xc0
245 60 m 1xa0
 190 16 138 -10 100 -10 c 0
 70 -10 51 5 51 36 c 0xa0
 51 68 66 146 77 223 c 0
 85 283 89 324 89 346 c 0
 89 367 73 371 59 371 c 0
 54 371 47 370 43 369 c 1
 38 405 l 1
 89 421 142 431 187 431 c 0
 209 431 228 428 228 402 c 0x90
 228 388 210 310 196 230 c 0
 186 176 180 124 180 102 c 0
 180 91 181 75 197 75 c 0
 202 75 216 77 233 88 c 1
 245 60 l 1xa0
EndSplineSet
EndChar

StartChar: ij
Encoding: 307 307 150
Width: 539
Flags: MW
HStem: -245 34<247 272.5 247 303> 371 60 411 20G<164.5 198 439 472.5> 532 125<162 194 438 469.5>
VStem: 51 129<20.5 113> 89 139<335 415> 100 156<581 607> 119 107<-183.5 -169.5 -193 -143> 376 155<581 607>
LayerCount: 2
Fore
SplineSet
186 657 m 0xb280
 228 657 256 636 256 604 c 0
 256 558 219 532 169 532 c 0
 128 532 100 553 100 585 c 0
 100 629 138 657 186 657 c 0xb280
462 657 m 0
 504 657 531 636 531 604 c 0
 531 558 494 532 445 532 c 0
 403 532 376 553 376 585 c 0
 376 629 414 657 462 657 c 0
245 60 m 1xa880
 190 16 138 -10 100 -10 c 0
 70 -10 51 5 51 36 c 0xa880
 51 68 66 146 77 223 c 0
 85 283 89 324 89 346 c 0
 89 367 73 371 59 371 c 0
 54 371 47 370 43 369 c 1xc480
 38 405 l 1
 89 421 142 431 187 431 c 0
 209 431 228 428 228 402 c 0xa480
 228 388 210 310 196 230 c 0
 186 176 180 124 180 102 c 0
 180 91 181 75 197 75 c 0
 202 75 216 77 233 88 c 1
 245 60 l 1xa880
312 405 m 1xc180
 363 421 417 431 461 431 c 0
 484 431 502 428 502 402 c 0
 502 384 474 226 454 73 c 0
 431 -110 365 -245 241 -245 c 0
 173 -245 119 -208 119 -159 c 0
 119 -127 141 -91 190 -91 c 0
 218 -91 240 -103 240 -128 c 0
 240 -147 226 -158 226 -181 c 0
 226 -205 241 -211 253 -211 c 0
 292 -211 300 -159 323 36 c 1
 349 224 l 2
 358 285 363 324 363 344 c 0
 363 368 347 371 333 371 c 0
 328 371 321 370 317 369 c 1
 312 405 l 1xc180
EndSplineSet
EndChar

StartChar: imacron
Encoding: 299 299 151
Width: 275
Flags: MW
HStem: 411 20G<164.5 198> 560 47<69 302 62 309>
VStem: 38 271<405 607> 51 129<20.5 113> 89 139<335 415>
LayerCount: 2
Fore
SplineSet
302 560 m 1xe0
 62 560 l 1
 69 607 l 1
 309 607 l 1
 302 560 l 1xe0
245 60 m 1xd0
 190 16 138 -10 100 -10 c 0
 70 -10 51 5 51 36 c 0xd0
 51 68 66 146 77 223 c 0
 85 283 89 324 89 346 c 0
 89 367 73 371 59 371 c 0
 54 371 47 370 43 369 c 1
 38 405 l 1
 89 421 142 431 187 431 c 0
 209 431 228 428 228 402 c 0xc8
 228 388 210 310 196 230 c 0
 186 176 180 124 180 102 c 0
 180 91 181 75 197 75 c 0
 202 75 216 77 233 88 c 1
 245 60 l 1xd0
EndSplineSet
EndChar

StartChar: iogonek
Encoding: 303 303 152
Width: 275
Flags: MW
HStem: -160 58<103.5 177.5> 411 20G<164.5 198> 532 125<170 202>
VStem: 50 72<-118 -47.5> 51 129<20.5 113> 89 139<335 415> 108 156<581 607>
LayerCount: 2
Fore
SplineSet
177 532 m 0xe2
 136 532 108 553 108 585 c 0
 108 629 146 657 194 657 c 0
 236 657 264 636 264 604 c 0
 264 558 227 532 177 532 c 0xe2
175 13 m 0xe8
 173 12 171 11 170 10 c 0
 140 -6 122 -33 122 -62 c 0
 122 -84 135 -102 166 -102 c 0
 189 -102 213 -94 237 -80 c 1
 247 -100 l 1
 209 -138 165 -160 122 -160 c 0
 85 -160 50 -139 50 -97 c 0xf0
 50 -66 67 -35 100 -10 c 1
 70 -10 51 5 51 36 c 0xe8
 51 68 66 146 77 223 c 0
 85 283 89 324 89 346 c 0
 89 367 73 371 59 371 c 0
 54 371 47 370 43 369 c 1
 38 405 l 1
 89 421 142 431 187 431 c 0
 209 431 228 428 228 402 c 0xe4
 228 388 210 310 196 230 c 0
 186 176 180 124 180 102 c 0
 180 91 181 75 197 75 c 0
 202 75 216 77 233 88 c 1
 245 60 l 1
 221 41 197 25 175 13 c 0xe8
EndSplineSet
EndChar

StartChar: j
Encoding: 106 106 153
Width: 263
Flags: MW
HStem: -245 34<-29 -3.5 -29 27> 411 20G<163 196.5> 532 125<162 193.5>
VStem: -157 107<-183.5 -169.5 -193 -143> 100 155<581 607>
LayerCount: 2
Fore
SplineSet
186 657 m 0
 228 657 255 636 255 604 c 0
 255 558 218 532 169 532 c 0
 127 532 100 553 100 585 c 0
 100 629 138 657 186 657 c 0
36 405 m 1
 87 421 141 431 185 431 c 0
 208 431 226 428 226 402 c 0
 226 384 198 226 178 73 c 0
 155 -110 89 -245 -35 -245 c 0
 -103 -245 -157 -208 -157 -159 c 0
 -157 -127 -135 -91 -86 -91 c 0
 -58 -91 -36 -103 -36 -128 c 0
 -36 -147 -50 -158 -50 -181 c 0
 -50 -205 -35 -211 -23 -211 c 0
 16 -211 24 -159 47 36 c 1
 73 224 l 2
 82 285 87 324 87 344 c 0
 87 368 71 371 57 371 c 0
 52 371 45 370 41 369 c 1
 36 405 l 1
EndSplineSet
Substitution2: "Single Substitution lookup 23 subtable" j.ss01
EndChar

StartChar: dotlessj
Encoding: 567 567 154
Width: 263
Flags: MW
HStem: -245 34<-29 -3.5 -29 27> 411 20G<163 196.5>
VStem: -157 107<-183.5 -169.5 -193 -143>
LayerCount: 2
Fore
SplineSet
36 405 m 1
 87 421 141 431 185 431 c 0
 208 431 226 428 226 402 c 0
 226 384 198 226 178 73 c 0
 155 -110 89 -245 -35 -245 c 0
 -103 -245 -157 -208 -157 -159 c 0
 -157 -127 -135 -91 -86 -91 c 0
 -58 -91 -36 -103 -36 -128 c 0
 -36 -147 -50 -158 -50 -181 c 0
 -50 -205 -35 -211 -23 -211 c 0
 16 -211 24 -159 47 36 c 1
 73 224 l 2
 82 285 87 324 87 344 c 0
 87 368 71 371 57 371 c 0
 52 371 45 370 41 369 c 1
 36 405 l 1
EndSplineSet
EndChar

StartChar: k
Encoding: 107 107 155
Width: 506
Flags: MW
HStem: -6 80<338 431.5> 364 71<308 425>
VStem: 31 464<0 65> 359 125<336 344.5>
LayerCount: 2
Fore
SplineSet
495 65 m 1xe0
 446 22 396 -6 359 -6 c 0
 317 -6 300 14 288 45 c 1
 236 196 l 1
 330 237 359 298 359 335 c 0
 359 354 351 364 336 364 c 0
 280 364 202 254 173 148 c 1
 170 123 l 1
 155 0 l 1
 31 0 l 1
 45 86 118 573 118 644 c 0
 118 660 105 668 85 668 c 0
 78 668 70 668 61 666 c 1
 56 698 l 1
 117 722 177 730 208 730 c 0
 239 730 257 726 257 701 c 0
 257 693 252 670 247 640 c 0
 238 589 226 518 218 464 c 2
 189 258 l 1
 231 347 297 435 399 435 c 0
 451 435 484 402 484 362 c 0xd0
 484 310 430 264 352 228 c 1
 401 96 l 2
 405 83 411 74 426 74 c 0
 437 74 456 79 480 91 c 1
 495 65 l 1xe0
EndSplineSet
EndChar

StartChar: kcommaaccent
Encoding: 311 311 156
Width: 506
Flags: MW
HStem: -141 107<206.5 276.5> -6 80<338 431.5> 364 71<308 425>
VStem: 183 141<-110 -84.5 -135 -84> 359 125<336 344.5>
LayerCount: 2
Fore
SplineSet
495 65 m 1
 446 22 396 -6 359 -6 c 0
 317 -6 300 14 288 45 c 1
 236 196 l 1
 330 237 359 298 359 335 c 0
 359 354 351 364 336 364 c 0
 280 364 202 254 173 148 c 1
 170 123 l 1
 155 0 l 1
 31 0 l 1
 45 86 118 573 118 644 c 0
 118 660 105 668 85 668 c 0
 78 668 70 668 61 666 c 1
 56 698 l 1
 117 722 177 730 208 730 c 0
 239 730 257 726 257 701 c 0
 257 693 252 670 247 640 c 0
 238 589 226 518 218 464 c 2
 189 258 l 1
 231 347 297 435 399 435 c 0
 451 435 484 402 484 362 c 0
 484 310 430 264 352 228 c 1
 401 96 l 2
 405 83 411 74 426 74 c 0
 437 74 456 79 480 91 c 1
 495 65 l 1
187 -229 m 1
 214 -213 242 -187 242 -166 c 1
 243 -146 231 -141 218 -141 c 0
 195 -141 183 -121 183 -99 c 0
 183 -69 206 -34 254 -34 c 0
 299 -34 324 -67 324 -102 c 0xb8
 324 -168 263 -224 204 -251 c 1
 187 -229 l 1
EndSplineSet
EndChar

StartChar: l
Encoding: 108 108 157
Width: 261
Flags: MW
HStem: -10 740<72.5 224.5>
VStem: 37 131<20.5 102>
LayerCount: 2
Fore
SplineSet
241 60 m 1
 187 16 128 -10 87 -10 c 0
 58 -10 37 5 37 36 c 0
 37 63 61 219 83 370 c 0
 100 488 116 602 116 644 c 0
 116 660 103 668 83 668 c 0
 76 668 68 668 59 666 c 1
 54 698 l 1
 114 720 169 730 212 730 c 0
 237 730 255 726 255 701 c 0
 255 684 242 621 228 539 c 0
 203 387 171 180 168 102 c 0
 168 91 169 75 187 75 c 0
 192 75 211 77 228 88 c 1
 241 60 l 1
EndSplineSet
EndChar

StartChar: lacute
Encoding: 314 314 158
Width: 261
Flags: MW
HStem: -10 891<72.5 290>
VStem: 37 131<20.5 102> 37 295
LayerCount: 2
Fore
SplineSet
235 859 m 2xa0
 257 875 266 881 279 881 c 0
 301 881 332 856 332 841 c 0
 332 835 329 830 317 825 c 2
 141 755 l 2
 131 752 121 748 114 748 c 0
 107 748 104 751 104 757 c 0
 104 764 108 769 125 781 c 2
 235 859 l 2xa0
241 60 m 1xc0
 187 16 128 -10 87 -10 c 0
 58 -10 37 5 37 36 c 0
 37 63 61 219 83 370 c 0
 100 488 116 602 116 644 c 0
 116 660 103 668 83 668 c 0
 76 668 68 668 59 666 c 1
 54 698 l 1
 114 720 169 730 212 730 c 0
 237 730 255 726 255 701 c 0
 255 684 242 621 228 539 c 0
 203 387 171 180 168 102 c 0
 168 91 169 75 187 75 c 0
 192 75 211 77 228 88 c 1
 241 60 l 1xc0
EndSplineSet
EndChar

StartChar: lcaron
Encoding: 318 318 159
Width: 261
Flags: MW
HStem: -10 740<72.5 224.5> 534 97<288.5 354>
VStem: 37 131<20.5 102> 266 131<559 588 541.5 588.5>
LayerCount: 2
Fore
SplineSet
241 60 m 1xb0
 187 16 128 -10 87 -10 c 0
 58 -10 37 5 37 36 c 0
 37 63 61 219 83 370 c 0
 100 488 116 602 116 644 c 0
 116 660 103 668 83 668 c 0
 76 668 68 668 59 666 c 1
 54 698 l 1
 114 720 169 730 212 730 c 0
 237 730 255 726 255 701 c 0
 255 684 242 621 228 539 c 0
 203 387 171 180 168 102 c 0
 168 91 169 75 187 75 c 0
 192 75 211 77 228 88 c 1
 241 60 l 1xb0
272 461 m 1
 293 474 317 494 317 515 c 0
 317 516 317 517 317 517 c 2
 317 530 308 534 299 534 c 0
 278 534 266 548 266 570 c 0
 266 607 298 631 336 631 c 0
 372 631 397 606 397 570 c 0x70
 397 513 340 461 290 439 c 1
 272 461 l 1
EndSplineSet
EndChar

StartChar: lcommaaccent
Encoding: 316 316 160
Width: 261
Flags: MW
HStem: -251 981<47 224.5> -141 107<49.5 119.5>
VStem: 26 141<-110 -84.5 -135 -84> 37 131<20.5 102>
LayerCount: 2
Fore
SplineSet
241 60 m 1x90
 187 16 128 -10 87 -10 c 0
 58 -10 37 5 37 36 c 0
 37 63 61 219 83 370 c 0
 100 488 116 602 116 644 c 0
 116 660 103 668 83 668 c 0
 76 668 68 668 59 666 c 1
 54 698 l 1
 114 720 169 730 212 730 c 0
 237 730 255 726 255 701 c 0
 255 684 242 621 228 539 c 0
 203 387 171 180 168 102 c 0
 168 91 169 75 187 75 c 0
 192 75 211 77 228 88 c 1
 241 60 l 1x90
30 -229 m 1x60
 57 -213 85 -187 85 -166 c 1
 86 -146 74 -141 61 -141 c 0
 38 -141 26 -121 26 -99 c 0
 26 -69 49 -34 97 -34 c 0
 142 -34 167 -67 167 -102 c 0
 167 -168 106 -224 47 -251 c 1
 30 -229 l 1x60
EndSplineSet
EndChar

StartChar: ldot
Encoding: 320 320 161
Width: 304
Flags: MW
HStem: -10 740<72.5 224.5> 277 120<259 279>
VStem: 37 131<20.5 102> 216 106<324 349>
LayerCount: 2
Fore
SplineSet
241 60 m 1xb0
 187 16 128 -10 87 -10 c 0
 58 -10 37 5 37 36 c 0
 37 63 61 219 83 370 c 0
 100 488 116 602 116 644 c 0
 116 660 103 668 83 668 c 0
 76 668 68 668 59 666 c 1
 54 698 l 1
 114 720 169 730 212 730 c 0
 237 730 255 726 255 701 c 0
 255 684 242 621 228 539 c 0
 203 387 171 180 168 102 c 0
 168 91 169 75 187 75 c 0
 192 75 211 77 228 88 c 1
 241 60 l 1xb0
216 329 m 0x70
 216 369 241 397 277 397 c 0
 304 397 322 375 322 344 c 0
 322 304 297 277 261 277 c 0
 235 277 216 299 216 329 c 0x70
EndSplineSet
Ligature2: "Ligature Substitution lookup 20 subtable" l periodcentered
EndChar

StartChar: lslash
Encoding: 322 322 162
Width: 264
Flags: MW
HStem: -10 740<72.5 224.5>
VStem: 37 131<20.5 102>
LayerCount: 2
Fore
SplineSet
209 422 m 1
 189 294 170 161 168 102 c 0
 168 91 169 75 187 75 c 0
 192 75 211 77 228 88 c 1
 241 60 l 1
 187 16 128 -10 87 -10 c 0
 58 -10 37 5 37 36 c 0
 37 60 57 190 77 326 c 1
 30 290 l 1
 39 346 l 1
 85 381 l 1
 101 495 116 603 116 644 c 0
 116 660 103 668 83 668 c 0
 76 668 68 668 59 666 c 1
 54 698 l 1
 114 720 169 730 212 730 c 0
 237 730 255 726 255 701 c 0
 255 684 242 621 228 539 c 2
 218 477 l 1
 279 525 l 1
 270 468 l 1
 209 422 l 1
EndSplineSet
EndChar

StartChar: m
Encoding: 109 109 163
Width: 781
Flags: MW
HStem: 350 85<293 413.5> 411 20G<144.5 181>
VStem: 343 128<282.5 371.5> 609 129<314 325.5>
LayerCount: 2
Fore
SplineSet
757 60 m 1xb0
 703 16 641 -10 604 -10 c 0
 574 -10 560 7 560 35 c 0
 560 87 609 264 609 314 c 0
 609 337 598 350 580 350 c 0
 528 350 460 223 436 119 c 1
 421 0 l 1
 298 0 l 1
 315 93 343 254 343 311 c 0
 343 338 334 350 317 350 c 0xb0
 269 350 203 234 175 134 c 1
 174 130 l 1
 158 0 l 1
 35 0 l 1
 52 101 82 277 82 339 c 0
 82 359 73 371 53 371 c 0
 48 371 41 370 37 369 c 1
 33 405 l 1
 74 418 120 431 169 431 c 0
 193 431 218 427 218 405 c 0x70
 218 390 204 319 193 257 c 1
 235 343 301 435 390 435 c 0
 437 435 471 398 471 345 c 0
 471 328 468 304 463 278 c 1
 505 357 567 435 649 435 c 0
 704 435 738 398 738 345 c 0
 738 283 691 140 690 98 c 0
 690 91 692 75 709 75 c 0
 715 75 729 77 746 88 c 1
 757 60 l 1xb0
EndSplineSet
EndChar

StartChar: n
Encoding: 110 110 164
Width: 524
Flags: MW
HStem: 350 85<296.5 419.5> 411 20G<144.5 181>
VStem: 352 129<314.5 327>
LayerCount: 2
Fore
SplineSet
500 60 m 1x60
 445 16 381 -10 344 -10 c 0
 321 -10 302 7 302 35 c 0
 302 87 352 266 352 316 c 0
 352 338 341 350 322 350 c 0xa0
 271 350 201 227 174 124 c 1
 159 0 l 1
 36 0 l 1
 53 101 82 277 82 339 c 0
 82 359 73 371 53 371 c 0
 48 371 41 370 37 369 c 1
 33 405 l 1
 74 418 120 431 169 431 c 0
 193 431 218 427 218 405 c 0x60
 218 390 204 317 193 253 c 1
 234 340 302 435 392 435 c 0
 447 435 481 398 481 345 c 0xa0
 481 284 433 140 432 98 c 0
 432 91 434 75 451 75 c 0
 457 75 471 77 488 88 c 1
 500 60 l 1x60
EndSplineSet
EndChar

StartChar: nacute
Encoding: 324 324 165
Width: 524
Flags: MW
HStem: 350 85<296.5 419.5> 411 20G<144.5 181>
VStem: 352 129<314.5 327>
LayerCount: 2
Fore
SplineSet
375 629 m 2x60
 394 647 399 653 414 653 c 0
 437 653 476 631 476 617 c 0
 476 610 472 605 461 599 c 2
 282 496 l 2
 276 492 265 487 257 487 c 0
 250 487 247 490 247 496 c 0
 247 504 252 510 267 524 c 2
 375 629 l 2x60
500 60 m 1
 445 16 381 -10 344 -10 c 0
 321 -10 302 7 302 35 c 0
 302 87 352 266 352 316 c 0
 352 338 341 350 322 350 c 0xa0
 271 350 201 227 174 124 c 1
 159 0 l 1
 36 0 l 1
 53 101 82 277 82 339 c 0
 82 359 73 371 53 371 c 0
 48 371 41 370 37 369 c 1
 33 405 l 1
 74 418 120 431 169 431 c 0
 193 431 218 427 218 405 c 0x60
 218 390 204 317 193 253 c 1
 234 340 302 435 392 435 c 0
 447 435 481 398 481 345 c 0xa0
 481 284 433 140 432 98 c 0
 432 91 434 75 451 75 c 0
 457 75 471 77 488 88 c 1
 500 60 l 1
EndSplineSet
EndChar

StartChar: ncaron
Encoding: 328 328 166
Width: 524
Flags: MW
HStem: 350 85<296.5 419.5> 411 20G<144.5 181> 519 60<288 330 330 354>
VStem: 352 129<314.5 327>
LayerCount: 2
Fore
SplineSet
448 645 m 2x70
 456 650 470 657 482 657 c 0
 491 657 493 653 493 650 c 0
 493 641 455 614 407 567 c 1
 354 519 l 2
 341 507 328 501 318 501 c 0
 308 501 297 507 288 519 c 2
 249 567 l 1
 215 613 185 639 185 648 c 0
 185 651 187 657 199 657 c 0
 210 657 223 650 230 645 c 2
 330 579 l 1
 448 645 l 2x70
500 60 m 1
 445 16 381 -10 344 -10 c 0
 321 -10 302 7 302 35 c 0
 302 87 352 266 352 316 c 0
 352 338 341 350 322 350 c 0xb0
 271 350 201 227 174 124 c 1
 159 0 l 1
 36 0 l 1
 53 101 82 277 82 339 c 0
 82 359 73 371 53 371 c 0
 48 371 41 370 37 369 c 1
 33 405 l 1
 74 418 120 431 169 431 c 0
 193 431 218 427 218 405 c 0x70
 218 390 204 317 193 253 c 1
 234 340 302 435 392 435 c 0
 447 435 481 398 481 345 c 0xb0
 481 284 433 140 432 98 c 0
 432 91 434 75 451 75 c 0
 457 75 471 77 488 88 c 1
 500 60 l 1
EndSplineSet
EndChar

StartChar: ncommaaccent
Encoding: 326 326 167
Width: 524
Flags: MW
HStem: -141 107<197.5 267.5> 350 85<296.5 419.5> 411 20G<144.5 181>
VStem: 174 141<-110 -84.5 -135 -84> 352 129<314.5 327>
LayerCount: 2
Fore
SplineSet
500 60 m 1xb8
 445 16 381 -10 344 -10 c 0
 321 -10 302 7 302 35 c 0
 302 87 352 266 352 316 c 0
 352 338 341 350 322 350 c 0xd8
 271 350 201 227 174 124 c 1
 159 0 l 1
 36 0 l 1
 53 101 82 277 82 339 c 0
 82 359 73 371 53 371 c 0
 48 371 41 370 37 369 c 1
 33 405 l 1
 74 418 120 431 169 431 c 0
 193 431 218 427 218 405 c 0xb8
 218 390 204 317 193 253 c 1
 234 340 302 435 392 435 c 0
 447 435 481 398 481 345 c 0xd8
 481 284 433 140 432 98 c 0
 432 91 434 75 451 75 c 0
 457 75 471 77 488 88 c 1
 500 60 l 1xb8
178 -229 m 1
 205 -213 233 -187 233 -166 c 1
 234 -146 222 -141 209 -141 c 0
 186 -141 174 -121 174 -99 c 0
 174 -69 197 -34 245 -34 c 0
 290 -34 315 -67 315 -102 c 0
 315 -168 254 -224 195 -251 c 1
 178 -229 l 1
EndSplineSet
EndChar

StartChar: ntilde
Encoding: 241 241 168
Width: 524
Flags: MW
HStem: 350 85<296.5 419.5> 411 20G<144.5 181> 525 61<392 420.5 392 421> 565 60<234.5 263>
VStem: 178 28<526 526> 352 129<314.5 327> 449 28<624 624>
LayerCount: 2
Fore
SplineSet
178 526 m 1x5a
 186 583 211 625 256 625 c 0x5a
 304 625 373 586 411 586 c 0
 430 586 446 601 449 624 c 1
 477 624 l 1
 469 567 443 525 399 525 c 0x6a
 350 525 282 565 244 565 c 0
 225 565 209 550 206 526 c 1
 178 526 l 1x5a
500 60 m 1x9c
 445 16 381 -10 344 -10 c 0
 321 -10 302 7 302 35 c 0
 302 87 352 266 352 316 c 0
 352 338 341 350 322 350 c 0x9c
 271 350 201 227 174 124 c 1
 159 0 l 1
 36 0 l 1
 53 101 82 277 82 339 c 0
 82 359 73 371 53 371 c 0
 48 371 41 370 37 369 c 1
 33 405 l 1
 74 418 120 431 169 431 c 0
 193 431 218 427 218 405 c 0x5a
 218 390 204 317 193 253 c 1
 234 340 302 435 392 435 c 0
 447 435 481 398 481 345 c 0
 481 284 433 140 432 98 c 0
 432 91 434 75 451 75 c 0
 457 75 471 77 488 88 c 1
 500 60 l 1x9c
EndSplineSet
EndChar

StartChar: o
Encoding: 111 111 169
Width: 462
Flags: MW
HStem: -10 43<185 224.5 185 267.5> 393 42<238.5 278>
VStem: 18 131<111 155.5 97.5 229.5> 313 131<270.5 314.5 196 327.5>
LayerCount: 2
Fore
SplineSet
283 435 m 0
 396 435 444 362 444 267 c 0
 444 125 355 -10 180 -10 c 0
 66 -10 18 64 18 158 c 0
 18 301 107 435 283 435 c 0
262 393 m 0
 215 393 187 340 169 278 c 0
 156 231 149 178 149 133 c 0
 149 62 169 33 201 33 c 0
 248 33 277 87 295 152 c 0
 307 197 313 249 313 292 c 0
 313 363 294 393 262 393 c 0
EndSplineSet
Substitution2: "Single Substitution lookup 21 subtable" ordmasculine
Substitution2: "'aalt' Access All Alternates lookup 0 subtable" ordmasculine
EndChar

StartChar: oacute
Encoding: 243 243 170
Width: 462
Flags: MW
HStem: -10 43<185 224.5 185 267.5> 393 42<238.5 278>
VStem: 18 131<111 155.5 97.5 229.5> 313 131<270.5 314.5 196 327.5>
LayerCount: 2
Fore
SplineSet
345 629 m 2
 364 647 369 653 384 653 c 0
 407 653 446 631 446 617 c 0
 446 610 442 605 431 599 c 2
 252 496 l 2
 246 492 235 487 227 487 c 0
 220 487 217 490 217 496 c 0
 217 504 222 510 237 524 c 2
 345 629 l 2
283 435 m 0
 396 435 444 362 444 267 c 0
 444 125 355 -10 180 -10 c 0
 66 -10 18 64 18 158 c 0
 18 301 107 435 283 435 c 0
262 393 m 0
 215 393 187 340 169 278 c 0
 156 231 149 178 149 133 c 0
 149 62 169 33 201 33 c 0
 248 33 277 87 295 152 c 0
 307 197 313 249 313 292 c 0
 313 363 294 393 262 393 c 0
EndSplineSet
EndChar

StartChar: ocircumflex
Encoding: 244 244 171
Width: 462
Flags: MW
HStem: -10 43<185 224.5 185 267.5> 393 42<238.5 278> 570 60<274 298>
VStem: 18 131<111 155.5 97.5 229.5> 313 131<270.5 314.5 196 327.5>
LayerCount: 2
Fore
SplineSet
180 504 m 2
 172 499 158 492 146 492 c 0
 137 492 135 496 135 499 c 0
 135 508 173 535 221 582 c 1
 274 630 l 2
 287 642 300 648 310 648 c 0
 320 648 331 642 340 630 c 2
 379 582 l 1
 413 536 443 510 443 501 c 0
 443 498 441 492 429 492 c 0
 418 492 405 499 398 504 c 2
 298 570 l 1
 180 504 l 2
283 435 m 0
 396 435 444 362 444 267 c 0
 444 125 355 -10 180 -10 c 0
 66 -10 18 64 18 158 c 0
 18 301 107 435 283 435 c 0
262 393 m 0
 215 393 187 340 169 278 c 0
 156 231 149 178 149 133 c 0
 149 62 169 33 201 33 c 0
 248 33 277 87 295 152 c 0
 307 197 313 249 313 292 c 0
 313 363 294 393 262 393 c 0
EndSplineSet
EndChar

StartChar: odieresis
Encoding: 246 246 172
Width: 462
Flags: MW
HStem: -10 43<185 224.5 185 267.5> 393 42<238.5 278> 532 125<190 222 383 415>
VStem: 18 131<111 155.5 97.5 229.5> 128 156<581 607> 313 131<270.5 314.5 196 327.5> 321 156<581 607>
LayerCount: 2
Fore
SplineSet
214 657 m 0xea
 256 657 284 636 284 604 c 0
 284 558 247 532 197 532 c 0
 156 532 128 553 128 585 c 0
 128 629 166 657 214 657 c 0xea
407 657 m 0
 449 657 477 636 477 604 c 0
 477 558 440 532 390 532 c 0
 349 532 321 553 321 585 c 0
 321 629 359 657 407 657 c 0
283 435 m 0xd4
 396 435 444 362 444 267 c 0
 444 125 355 -10 180 -10 c 0
 66 -10 18 64 18 158 c 0
 18 301 107 435 283 435 c 0xd4
262 393 m 0
 215 393 187 340 169 278 c 0
 156 231 149 178 149 133 c 0
 149 62 169 33 201 33 c 0
 248 33 277 87 295 152 c 0
 307 197 313 249 313 292 c 0
 313 363 294 393 262 393 c 0
EndSplineSet
EndChar

StartChar: ograve
Encoding: 242 242 173
Width: 462
Flags: MW
HStem: -10 43<185 224.5 185 267.5> 393 42<238.5 278>
VStem: 18 131<111 155.5 97.5 229.5> 313 131<270.5 314.5 196 327.5>
LayerCount: 2
Fore
SplineSet
173 599 m 2
 166 604 163 609 163 616 c 0
 165 630 212 653 236 653 c 0
 251 653 253 648 267 629 c 2
 349 523 l 1
 357 511 361 505 360 497 c 0
 359 491 354 487 346 487 c 0
 338 487 329 492 323 496 c 2
 173 599 l 2
283 435 m 0
 396 435 444 362 444 267 c 0
 444 125 355 -10 180 -10 c 0
 66 -10 18 64 18 158 c 0
 18 301 107 435 283 435 c 0
262 393 m 0
 215 393 187 340 169 278 c 0
 156 231 149 178 149 133 c 0
 149 62 169 33 201 33 c 0
 248 33 277 87 295 152 c 0
 307 197 313 249 313 292 c 0
 313 363 294 393 262 393 c 0
EndSplineSet
EndChar

StartChar: ohungarumlaut
Encoding: 337 337 174
Width: 462
Flags: MW
HStem: -10 43<185 224.5 185 267.5> 393 42<238.5 278>
VStem: 18 131<111 155.5 97.5 229.5> 313 131<270.5 314.5 196 327.5>
LayerCount: 2
Fore
SplineSet
288 653 m 0
 307 653 352 640 352 626 c 0
 352 623 349 618 344 613 c 0
 334 604 317 589 215 504 c 0
 203 494 196 492 189 492 c 0
 182 492 179 496 179 500 c 0
 179 504 181 508 184 512 c 0
 256 620 269 638 274 644 c 0
 280 652 283 653 288 653 c 0
414 653 m 0
 433 653 477 641 477 626 c 0
 477 623 475 619 469 613 c 0
 460 604 441 588 340 504 c 0
 328 494 321 492 314 492 c 0
 307 492 304 496 304 500 c 0
 304 503 306 508 309 512 c 0
 380 616 395 640 399 644 c 0
 406 652 408 653 414 653 c 0
283 435 m 0
 396 435 444 362 444 267 c 0
 444 125 355 -10 180 -10 c 0
 66 -10 18 64 18 158 c 0
 18 301 107 435 283 435 c 0
262 393 m 0
 215 393 187 340 169 278 c 0
 156 231 149 178 149 133 c 0
 149 62 169 33 201 33 c 0
 248 33 277 87 295 152 c 0
 307 197 313 249 313 292 c 0
 313 363 294 393 262 393 c 0
EndSplineSet
EndChar

StartChar: omacron
Encoding: 333 333 175
Width: 462
Flags: MW
HStem: -10 43<185 224.5 185 267.5> 393 42<238.5 278> 560 47<183 416 176 423>
VStem: 18 131<111 155.5 97.5 229.5> 313 131<270.5 314.5 196 327.5>
LayerCount: 2
Fore
SplineSet
416 560 m 1
 176 560 l 1
 183 607 l 1
 423 607 l 1
 416 560 l 1
283 435 m 0
 396 435 444 362 444 267 c 0
 444 125 355 -10 180 -10 c 0
 66 -10 18 64 18 158 c 0
 18 301 107 435 283 435 c 0
262 393 m 0
 215 393 187 340 169 278 c 0
 156 231 149 178 149 133 c 0
 149 62 169 33 201 33 c 0
 248 33 277 87 295 152 c 0
 307 197 313 249 313 292 c 0
 313 363 294 393 262 393 c 0
EndSplineSet
EndChar

StartChar: oslash
Encoding: 248 248 176
Width: 459
Flags: MW
HStem: -10 43<191.5 224.5 191.5 267.5> 393 42<238.5 272.5>
VStem: 18 131<129 133 124 229.5> 313 131<271 293>
LayerCount: 2
Fore
SplineSet
389 403 m 1
 427 373 444 324 444 267 c 0
 444 125 355 -10 180 -10 c 0
 154 -10 132 -6 113 1 c 1
 54 -85 l 1
 18 -67 l 1
 77 19 l 1
 36 49 18 100 18 158 c 0
 18 301 107 435 283 435 c 0
 311 435 335 431 355 422 c 1
 411 504 l 1
 443 482 l 1
 389 403 l 1
306 352 m 1
 298 380 283 393 262 393 c 0
 215 393 187 340 169 278 c 0
 156 231 149 178 149 133 c 2
 149 124 l 1
 306 352 l 1
158 67 m 1
 167 43 182 33 201 33 c 0
 248 33 277 87 295 152 c 0
 307 197 313 249 313 293 c 1
 158 67 l 1
EndSplineSet
EndChar

StartChar: otilde
Encoding: 245 245 177
Width: 462
Flags: MW
HStem: -10 43<185 224.5 185 267.5> 393 42<238.5 278> 525 61<362 390.5 362 391> 565 60<204.5 233>
VStem: 18 131<111 155.5 97.5 229.5> 148 28<526 526> 313 131<270.5 314.5 196 327.5> 419 28<624 624>
LayerCount: 2
Fore
SplineSet
148 526 m 1xd6
 156 583 181 625 226 625 c 0xd6
 274 625 343 586 381 586 c 0
 400 586 416 601 419 624 c 1
 447 624 l 1
 439 567 413 525 369 525 c 0xe9
 320 525 252 565 214 565 c 0
 195 565 179 550 176 526 c 1
 148 526 l 1xd6
283 435 m 0xda
 396 435 444 362 444 267 c 0
 444 125 355 -10 180 -10 c 0
 66 -10 18 64 18 158 c 0
 18 301 107 435 283 435 c 0xda
262 393 m 0
 215 393 187 340 169 278 c 0
 156 231 149 178 149 133 c 0
 149 62 169 33 201 33 c 0
 248 33 277 87 295 152 c 0
 307 197 313 249 313 292 c 0
 313 363 294 393 262 393 c 0
EndSplineSet
EndChar

StartChar: oe
Encoding: 339 339 178
Width: 704
Flags: MW
HStem: -12 71<506 512.5> -10 43<185 215> 393 42<238.5 278> 397 35<549.5 581>
VStem: 18 131<111 155.5 97.5 229.5> 313 139<128.5 327.5> 606 107<317 364>
LayerCount: 2
Fore
SplineSet
673 89 m 1x9e
 627 29 550 -12 475 -12 c 0xae
 418 -12 375 9 348 46 c 1
 306 11 250 -10 180 -10 c 0
 66 -10 18 64 18 158 c 0
 18 301 107 435 283 435 c 0x6e
 349 435 392 410 417 371 c 1
 462 409 517 432 573 432 c 0
 657 432 713 394 713 338 c 0
 713 272 642 199 452 180 c 1
 452 165 l 2
 452 92 483 59 529 59 c 0
 566 59 611 77 651 109 c 1
 673 89 l 1x9e
482 316 m 0
 468 283 459 248 455 213 c 1
 555 230 606 282 606 352 c 0
 606 376 595 397 567 397 c 0
 532 397 504 368 482 316 c 0
295 152 m 0
 307 197 313 249 313 292 c 0
 313 363 294 393 262 393 c 0
 215 393 187 340 169 278 c 0
 156 231 149 178 149 133 c 0
 149 62 169 33 201 33 c 0x6e
 248 33 277 87 295 152 c 0
EndSplineSet
EndChar

StartChar: p
Encoding: 112 112 179
Width: 498
Flags: MW
HStem: -239 31<-4 -4 138 141> -10 38<220 245.5 206.5 307> 358 77<293 411.5> 411 20G<143.5 180>
VStem: 351 134<274 312>
LayerCount: 2
Fore
SplineSet
32 405 m 1xd8
 73 418 119 431 168 431 c 0
 192 431 217 427 217 406 c 0xd8
 217 390 202 310 190 244 c 1
 243 387 321 435 383 435 c 0xe8
 440 435 485 388 485 311 c 0
 485 151 378 -10 236 -10 c 0
 204 -10 173 3 159 30 c 1
 145 -65 133 -161 132 -196 c 0
 132 -204 135 -208 141 -208 c 2
 204 -206 l 1
 199 -239 l 1
 -40 -239 l 1
 -35 -206 l 1
 -4 -208 l 1
 4 -207 8 -201 10 -188 c 0
 27 -86 81 286 81 338 c 0
 81 358 72 370 52 370 c 0
 47 370 40 369 36 368 c 1
 32 405 l 1xd8
336 183 m 0
 346 220 351 258 351 290 c 0
 351 334 337 358 317 358 c 0xe8
 269 358 171 174 171 78 c 0
 171 44 193 28 220 28 c 0
 271 28 312 93 336 183 c 0
EndSplineSet
EndChar

StartChar: thorn
Encoding: 254 254 180
Width: 495
Flags: MW
HStem: -239 31<-7 -7 135 138> -10 38<217 239 203.5 304> 358 77<290 408.5>
VStem: 348 134<271.5 312>
LayerCount: 2
Fore
SplineSet
54 698 m 1
 114 721 169 730 211 730 c 0
 237 730 255 726 255 701 c 0
 255 685 237 596 225 520 c 0
 210 425 191 312 179 220 c 1
 231 381 314 435 380 435 c 0
 437 435 482 388 482 311 c 0
 482 151 375 -10 233 -10 c 0
 201 -10 170 3 156 30 c 1
 143 -65 130 -163 129 -196 c 0
 129 -204 132 -208 138 -208 c 2
 201 -206 l 1
 196 -239 l 1
 -43 -239 l 1
 -38 -206 l 1
 -7 -208 l 1
 1 -207 5 -201 7 -188 c 0
 21 -91 116 582 116 644 c 0
 116 660 103 668 83 668 c 0
 76 668 67 668 59 666 c 1
 54 698 l 1
326 163 m 1
 341 206 348 253 348 290 c 0
 348 334 334 358 314 358 c 0
 266 358 168 174 168 78 c 0
 168 44 190 28 217 28 c 0
 261 28 302 82 326 163 c 1
EndSplineSet
EndChar

StartChar: q
Encoding: 113 113 181
Width: 478
Flags: MW
HStem: -239 31<238 238 384 387> -10 78<86 205.5> 398 37<253 276 190.5 291.5>
VStem: 13 134<113.5 152 113.5 194>
LayerCount: 2
Fore
SplineSet
476 434 m 1
 424 230 378 -160 378 -195 c 0
 378 -204 381 -208 387 -208 c 2
 450 -206 l 1
 445 -239 l 1
 202 -239 l 1
 207 -206 l 1
 238 -208 l 1
 246 -207 250 -201 252 -188 c 0
 267 -73 287 64 308 184 c 1
 255 39 177 -10 114 -10 c 0
 58 -10 13 38 13 114 c 0
 13 274 120 435 261 435 c 0
 291 435 319 424 334 401 c 1
 341 420 l 1
 476 434 l 1
182 68 m 0
 229 68 327 251 327 348 c 0
 327 381 305 398 278 398 c 0
 228 398 186 333 163 244 c 0
 153 206 147 168 147 136 c 0
 147 91 162 68 182 68 c 0
EndSplineSet
EndChar

StartChar: r
Encoding: 114 114 182
Width: 421
Flags: MW
HStem: 268 160<343 378> 351 77<281.5 378.5> 411 20G<144.5 181>
VStem: 33 394<331 405> 306 121<289 368.5>
LayerCount: 2
Fore
SplineSet
33 405 m 1x30
 74 418 120 431 169 431 c 0
 193 431 218 427 218 405 c 0x30
 218 391 206 324 195 263 c 1
 229 349 284 428 353 428 c 0x48
 404 428 427 387 427 350 c 0
 427 312 404 268 352 268 c 0
 334 268 306 274 306 304 c 0x88
 306 320 313 328 313 339 c 0
 313 346 309 351 303 351 c 0x48
 260 351 197 227 173 115 c 1
 159 0 l 1
 36 0 l 1
 53 101 82 277 82 339 c 0
 82 359 73 371 53 371 c 0
 48 371 41 370 37 369 c 1
 33 405 l 1x30
EndSplineSet
EndChar

StartChar: racute
Encoding: 341 341 183
Width: 421
Flags: MW
HStem: 268 160<343 378> 351 77<281.5 378.5> 411 20G<144.5 181>
VStem: 33 394<331 405> 306 121<289 368.5>
LayerCount: 2
Fore
SplineSet
241 629 m 2x30
 260 647 265 653 280 653 c 0
 303 653 342 631 342 617 c 0
 342 610 338 605 327 599 c 2
 148 496 l 2
 142 492 131 487 123 487 c 0
 116 487 113 490 113 496 c 0
 113 504 118 510 133 524 c 2
 241 629 l 2x30
33 405 m 1
 74 418 120 431 169 431 c 0
 193 431 218 427 218 405 c 0x30
 218 391 206 324 195 263 c 1
 229 349 284 428 353 428 c 0x48
 404 428 427 387 427 350 c 0
 427 312 404 268 352 268 c 0
 334 268 306 274 306 304 c 0x88
 306 320 313 328 313 339 c 0
 313 346 309 351 303 351 c 0x48
 260 351 197 227 173 115 c 1
 159 0 l 1
 36 0 l 1
 53 101 82 277 82 339 c 0
 82 359 73 371 53 371 c 0
 48 371 41 370 37 369 c 1
 33 405 l 1
EndSplineSet
EndChar

StartChar: rcaron
Encoding: 345 345 184
Width: 421
Flags: MW
HStem: 268 160<343 378> 351 77<281.5 378.5> 411 20G<144.5 181> 519 60<154 196 196 220>
VStem: 33 394<331 405> 306 121<289 368.5>
LayerCount: 2
Fore
SplineSet
314 645 m 2x38
 322 650 336 657 348 657 c 0
 357 657 359 653 359 650 c 0
 359 641 321 614 273 567 c 1
 220 519 l 2
 207 507 194 501 184 501 c 0
 174 501 163 507 154 519 c 2
 115 567 l 1
 81 613 51 639 51 648 c 0
 51 651 53 657 65 657 c 0
 76 657 89 650 96 645 c 2
 196 579 l 1
 314 645 l 2x38
33 405 m 1
 74 418 120 431 169 431 c 0
 193 431 218 427 218 405 c 0x38
 218 391 206 324 195 263 c 1
 229 349 284 428 353 428 c 0x54
 404 428 427 387 427 350 c 0
 427 312 404 268 352 268 c 0
 334 268 306 274 306 304 c 0x94
 306 320 313 328 313 339 c 0
 313 346 309 351 303 351 c 0x54
 260 351 197 227 173 115 c 1
 159 0 l 1
 36 0 l 1
 53 101 82 277 82 339 c 0
 82 359 73 371 53 371 c 0
 48 371 41 370 37 369 c 1
 33 405 l 1
EndSplineSet
EndChar

StartChar: rcommaaccent
Encoding: 343 343 185
Width: 421
Flags: MW
HStem: -141 107<48.5 118.5> 268 160<343 378> 351 77<281.5 378.5> 411 20G<144.5 181>
VStem: 25 141<-110 -84.5 -135 -84> 306 121<289 368.5>
LayerCount: 2
Fore
SplineSet
33 405 m 1x9c
 74 418 120 431 169 431 c 0
 193 431 218 427 218 405 c 0x9c
 218 391 206 324 195 263 c 1
 229 349 284 428 353 428 c 0xac
 404 428 427 387 427 350 c 0
 427 312 404 268 352 268 c 0
 334 268 306 274 306 304 c 0xcc
 306 320 313 328 313 339 c 0
 313 346 309 351 303 351 c 0xac
 260 351 197 227 173 115 c 1
 159 0 l 1
 36 0 l 1
 53 101 82 277 82 339 c 0
 82 359 73 371 53 371 c 0
 48 371 41 370 37 369 c 1
 33 405 l 1x9c
29 -229 m 1
 56 -213 84 -187 84 -166 c 1
 85 -146 73 -141 60 -141 c 0
 37 -141 25 -121 25 -99 c 0
 25 -69 48 -34 96 -34 c 0
 141 -34 166 -67 166 -102 c 0
 166 -168 105 -224 46 -251 c 1
 29 -229 l 1
EndSplineSet
EndChar

StartChar: s
Encoding: 115 115 186
Width: 390
Flags: MW
HStem: -10 35<142 186.5 142 207> 401 34<199.5 238.5>
VStem: -2 103<57 71 50.5 100.5> 45 107 244 109<82 125> 281 99<354.5 368.5 324.5 375.5>
LayerCount: 2
Fore
SplineSet
318 278 m 0xd4
 289 278 268 293 268 315 c 0
 268 336 281 345 281 364 c 0xd4
 281 387 256 401 221 401 c 0
 178 401 153 373 152 341 c 1xd8
 155 257 353 258 353 131 c 0
 353 33 259 -10 155 -10 c 0
 62 -10 -2 31 -2 83 c 0
 -2 118 22 148 66 148 c 0
 89 148 115 141 115 111 c 0
 115 89 101 80 101 62 c 0xe8
 101 39 123 25 161 25 c 0
 212 25 244 49 244 82 c 0xd8
 244 168 45 163 45 296 c 0
 45 389 134 435 227 435 c 0
 315 435 380 394 380 343 c 0
 380 306 355 278 318 278 c 0xd4
EndSplineSet
EndChar

StartChar: sacute
Encoding: 347 347 187
Width: 390
Flags: MW
HStem: -10 35<142 186.5 142 207> 401 34<199.5 238.5>
VStem: -2 103<57 71 50.5 100.5> 45 107 244 109<82 125> 281 99<354.5 368.5 324.5 375.5>
LayerCount: 2
Fore
SplineSet
290 629 m 2xd8
 309 647 314 653 329 653 c 0
 352 653 391 631 391 617 c 0
 391 610 387 605 376 599 c 2
 197 496 l 2
 191 492 180 487 172 487 c 0
 165 487 162 490 162 496 c 0
 162 504 167 510 182 524 c 2
 290 629 l 2xd8
318 278 m 0xd4
 289 278 268 293 268 315 c 0
 268 336 281 345 281 364 c 0xd4
 281 387 256 401 221 401 c 0
 178 401 153 373 152 341 c 1xd8
 155 257 353 258 353 131 c 0
 353 33 259 -10 155 -10 c 0
 62 -10 -2 31 -2 83 c 0
 -2 118 22 148 66 148 c 0
 89 148 115 141 115 111 c 0
 115 89 101 80 101 62 c 0xe8
 101 39 123 25 161 25 c 0
 212 25 244 49 244 82 c 0xd8
 244 168 45 163 45 296 c 0
 45 389 134 435 227 435 c 0
 315 435 380 394 380 343 c 0
 380 306 355 278 318 278 c 0xd4
EndSplineSet
EndChar

StartChar: scaron
Encoding: 353 353 188
Width: 390
Flags: MW
HStem: -10 35<142 186.5 142 207> 401 34<199.5 238.5> 519 60<203 245 245 269>
VStem: -2 103<57 71 50.5 100.5> 45 107 244 109<82 125> 281 99<354.5 368.5 324.5 375.5>
LayerCount: 2
Fore
SplineSet
363 645 m 2xec
 371 650 385 657 397 657 c 0
 406 657 408 653 408 650 c 0
 408 641 370 614 322 567 c 1
 269 519 l 2
 256 507 243 501 233 501 c 0
 223 501 212 507 203 519 c 2
 164 567 l 1
 130 613 100 639 100 648 c 0
 100 651 102 657 114 657 c 0
 125 657 138 650 145 645 c 2
 245 579 l 1
 363 645 l 2xec
318 278 m 0xea
 289 278 268 293 268 315 c 0
 268 336 281 345 281 364 c 0xea
 281 387 256 401 221 401 c 0
 178 401 153 373 152 341 c 1xec
 155 257 353 258 353 131 c 0
 353 33 259 -10 155 -10 c 0
 62 -10 -2 31 -2 83 c 0
 -2 118 22 148 66 148 c 0
 89 148 115 141 115 111 c 0
 115 89 101 80 101 62 c 0xf4
 101 39 123 25 161 25 c 0
 212 25 244 49 244 82 c 0xec
 244 168 45 163 45 296 c 0
 45 389 134 435 227 435 c 0
 315 435 380 394 380 343 c 0
 380 306 355 278 318 278 c 0xea
EndSplineSet
EndChar

StartChar: scedilla
Encoding: 351 351 189
Width: 390
Flags: MW
HStem: -214 35<95.5 102 81 133> -9 34<133 186.5 176 176> 401 34<199.5 238.5>
VStem: -2 103<59 71 50.5 100.5> 45 107 86 61<-67.5 -63.5> 144 89<-142.5 -122.5> 244 109<85.5 125> 281 99<354.5 368.5 324.5 375.5>
LayerCount: 2
Fore
SplineSet
133 -9 m 1xf1
 52 -3 -2 35 -2 83 c 0
 -2 118 22 148 66 148 c 0
 89 148 115 141 115 111 c 0
 115 89 101 80 101 62 c 0xf1
 101 39 123 25 161 25 c 0
 212 25 244 49 244 82 c 0xe9
 244 168 45 163 45 296 c 0
 45 389 134 435 227 435 c 0
 315 435 380 394 380 343 c 0
 380 306 355 278 318 278 c 0
 289 278 268 293 268 315 c 0
 268 336 281 345 281 364 c 0xe880
 281 387 256 401 221 401 c 0
 178 401 153 373 152 341 c 1xe9
 155 257 353 258 353 131 c 0
 353 40 271 -4 176 -9 c 1
 155 -36 l 2
 150 -44 147 -52 147 -56 c 0xe5
 147 -79 233 -63 233 -116 c 0
 233 -181 162 -214 104 -214 c 0
 87 -214 58 -213 37 -198 c 1
 55 -165 l 1
 62 -175 74 -179 88 -179 c 0
 116 -179 144 -155 144 -130 c 0
 144 -115 130 -102 116 -94 c 1xe3
 95 -80 l 2
 89 -75 86 -71 86 -66 c 0
 86 -61 88 -57 94 -52 c 1xe5
 133 -9 l 1xf1
EndSplineSet
EndChar

StartChar: scommaaccent
Encoding: 537 537 190
Width: 390
Flags: MW
HStem: -141 107<106.5 176.5> -10 35<142 186.5 142 207> 401 34<199.5 238.5>
VStem: -2 103<57 71 50.5 100.5> 45 107 83 141<-110 -84.5 -135 -84> 244 109<82 125> 281 99<354.5 368.5 324.5 375.5>
LayerCount: 2
Fore
SplineSet
318 278 m 0x69
 289 278 268 293 268 315 c 0
 268 336 281 345 281 364 c 0x69
 281 387 256 401 221 401 c 0
 178 401 153 373 152 341 c 1x6a
 155 257 353 258 353 131 c 0
 353 33 259 -10 155 -10 c 0
 62 -10 -2 31 -2 83 c 0
 -2 118 22 148 66 148 c 0
 89 148 115 141 115 111 c 0
 115 89 101 80 101 62 c 0x72
 101 39 123 25 161 25 c 0
 212 25 244 49 244 82 c 0x6a
 244 168 45 163 45 296 c 0
 45 389 134 435 227 435 c 0
 315 435 380 394 380 343 c 0
 380 306 355 278 318 278 c 0x69
87 -229 m 1xe6
 114 -213 142 -187 142 -166 c 1
 143 -146 131 -141 118 -141 c 0
 95 -141 83 -121 83 -99 c 0
 83 -69 106 -34 154 -34 c 0
 199 -34 224 -67 224 -102 c 0
 224 -168 163 -224 104 -251 c 1
 87 -229 l 1xe6
EndSplineSet
EndChar

StartChar: germandbls
Encoding: 223 223 191
Width: 593
Flags: MW
HStem: -245 34<-25.5 5.5 -25.5 38> -9 29<358.5 386.5 358.5 420> 696 33<334 385>
VStem: -154 107<-183.5 -169.5 -193 -143> 247 94<41.5 50 35.5 82.5> 285 108<350 387> 421 125<591 639.5> 433 128<97 166.5>
LayerCount: 2
Fore
SplineSet
108 440 m 2xf5
 127 603 215 729 389 729 c 0
 479 729 546 692 546 629 c 0xf6
 546 553 474 516 433 481 c 0
 411 462 393 441 393 414 c 0xf5
 393 286 561 286 561 146 c 0
 561 48 476 -9 364 -9 c 0
 289 -9 247 19 247 64 c 0
 247 101 272 128 314 128 c 0
 344 128 355 114 355 95 c 0
 355 73 341 59 341 41 c 0xf9
 341 30 347 20 370 20 c 0
 403 20 433 46 433 103 c 0
 433 230 285 222 285 347 c 0xf5
 285 427 342 446 380 494 c 0
 404 524 421 565 421 614 c 0
 421 665 409 696 361 696 c 0xf6
 307 696 256 652 241 454 c 1
 202 102 l 1
 178 -90 108 -245 -32 -245 c 0
 -100 -245 -154 -208 -154 -159 c 0
 -154 -127 -132 -91 -83 -91 c 0
 -55 -91 -33 -103 -33 -128 c 0
 -33 -147 -47 -158 -47 -181 c 0
 -47 -205 -32 -211 -19 -211 c 0
 30 -211 51 -123 67 72 c 1
 108 440 l 2xf5
EndSplineSet
EndChar

StartChar: t
Encoding: 116 116 192
Width: 348
Flags: MW
HStem: -9 79<111.5 232.5> 387 38<54 109 31 115 244 312> 403 22<341 341> 520 20G<265 265>
VStem: 31 310<387 425> 59 134<39 117>
LayerCount: 2
Fore
SplineSet
237 387 m 1xd8
 214 262 l 2
 205 210 193 130 193 104 c 0
 193 84 201 70 221 70 c 0
 244 70 269 87 291 106 c 1
 314 84 l 1
 268 31 212 -9 142 -9 c 0
 81 -9 59 21 59 57 c 0
 59 86 69 143 82 226 c 2
 109 387 l 1
 31 387 l 1
 54 425 l 1
 115 425 l 1
 130 517 l 1xd4
 265 540 l 1
 244 425 l 1
 341 425 l 1xd8
 341 403 l 1xb8
 312 387 l 1
 237 387 l 1xd8
EndSplineSet
EndChar

StartChar: tcaron
Encoding: 357 357 193
Width: 348
Flags: MW
HStem: -9 79<111.5 232.5> 387 38<54 109 31 115 244 312> 403 22<341 341> 520 20G<265 265> 534 97<304.5 370>
VStem: 59 134<39 117> 282 131<559 588 541.5 588.5>
LayerCount: 2
Fore
SplineSet
288 461 m 1xd6
 309 474 333 494 333 515 c 0
 333 516 333 517 333 517 c 2
 333 530 324 534 315 534 c 0
 294 534 282 548 282 570 c 0
 282 607 314 631 352 631 c 0
 388 631 413 606 413 570 c 0xce
 413 513 356 461 306 439 c 1
 288 461 l 1xd6
214 262 m 2
 205 210 193 130 193 104 c 0
 193 84 201 70 221 70 c 0
 244 70 269 87 291 106 c 1
 314 84 l 1
 268 31 212 -9 142 -9 c 0
 81 -9 59 21 59 57 c 0
 59 86 69 143 82 226 c 2
 109 387 l 1
 31 387 l 1
 54 425 l 1
 115 425 l 1
 130 517 l 1
 265 540 l 1
 244 425 l 1
 341 425 l 1xd6
 341 403 l 1xb6
 312 387 l 1
 237 387 l 1
 214 262 l 2
EndSplineSet
EndChar

StartChar: tcedilla
Encoding: 355 355 194
Width: 348
Flags: MW
HStem: -214 35<93.5 100 79 131> 387 38<54 109 31 115 244 312> 403 22<341 341> 520 20G<265 265>
VStem: 59 134<40 117> 84 61<-67.5 -63.5> 142 89<-142.5 -122.5>
LayerCount: 2
Fore
SplineSet
214 262 m 2xd8
 205 210 193 130 193 104 c 0
 193 84 201 70 221 70 c 0
 244 70 269 87 291 106 c 1xd8
 314 84 l 1
 276 40 231 5 177 -6 c 1
 153 -36 l 1
 148 -44 145 -52 145 -56 c 0xd4
 145 -79 231 -63 231 -116 c 0
 231 -181 160 -214 102 -214 c 0
 85 -214 56 -213 35 -198 c 1
 53 -165 l 1
 60 -175 72 -179 86 -179 c 0
 114 -179 142 -155 142 -130 c 0
 142 -115 128 -102 114 -94 c 1xd2
 93 -80 l 2
 87 -75 84 -71 84 -66 c 0
 84 -61 86 -57 92 -52 c 2xd4
 132 -9 l 1
 79 -6 59 23 59 57 c 0
 59 86 69 143 82 226 c 2
 109 387 l 1
 31 387 l 1
 54 425 l 1
 115 425 l 1
 130 517 l 1
 265 540 l 1
 244 425 l 1
 341 425 l 1xd8
 341 403 l 1xb2
 312 387 l 1
 237 387 l 1
 214 262 l 2xd8
EndSplineSet
EndChar

StartChar: uni021B
Encoding: 539 539 195
Width: 348
Flags: MW
HStem: -141 107<104.5 174.5> -9 79<111.5 232.5> 387 38<54 109 31 115 244 312> 403 22<341 341> 520 20G<265 265>
VStem: 59 134<39 117> 81 141<-110 -84.5 -135 -84>
LayerCount: 2
Fore
SplineSet
214 262 m 2x6c
 205 210 193 130 193 104 c 0
 193 84 201 70 221 70 c 0
 244 70 269 87 291 106 c 1
 314 84 l 1
 268 31 212 -9 142 -9 c 0
 81 -9 59 21 59 57 c 0
 59 86 69 143 82 226 c 2
 109 387 l 1
 31 387 l 1
 54 425 l 1
 115 425 l 1
 130 517 l 1
 265 540 l 1
 244 425 l 1
 341 425 l 1x6c
 341 403 l 1x5a
 312 387 l 1
 237 387 l 1
 214 262 l 2x6c
85 -229 m 1xea
 112 -213 140 -187 140 -166 c 1
 141 -146 129 -141 116 -141 c 0
 93 -141 81 -121 81 -99 c 0
 81 -69 104 -34 152 -34 c 0
 197 -34 222 -67 222 -102 c 0
 222 -168 161 -224 102 -251 c 1
 85 -229 l 1xea
EndSplineSet
EndChar

StartChar: u
Encoding: 117 117 196
Width: 525
Flags: MW
HStem: -10 93<98 221> 411 20G<157.5 193.5> 413 20G<494 494>
VStem: 44 125<48 149> 94 130<326 415.5> 304 132<20.5 113>
LayerCount: 2
Fore
SplineSet
498 60 m 1xb4
 434 7 375 -10 336 -10 c 0
 311 -10 304 5 304 36 c 0
 304 63 311 109 319 165 c 1
 247 34 188 -10 126 -10 c 0
 70 -10 44 26 44 70 c 0xb4
 44 132 94 308 94 344 c 0
 94 366 77 371 57 371 c 0
 49 371 41 370 37 369 c 1
 33 405 l 1
 84 418 132 431 183 431 c 0
 204 431 224 426 224 405 c 0xcc
 224 377 169 176 169 122 c 0
 169 100 177 83 196 83 c 0
 246 83 319 211 338 295 c 1
 357 416 l 1
 494 433 l 1
 455 229 436 134 436 92 c 0
 436 81 440 75 449 75 c 0
 457 75 470 77 487 88 c 1
 498 60 l 1xb4
EndSplineSet
EndChar

StartChar: uacute
Encoding: 250 250 197
Width: 525
Flags: MW
HStem: -10 93<98 221> 411 20G<157.5 193.5> 413 20G<494 494>
VStem: 44 125<48 149> 94 130<326 415.5> 304 132<20.5 113>
LayerCount: 2
Fore
SplineSet
342 629 m 2xb4
 361 647 366 653 381 653 c 0
 404 653 443 631 443 617 c 0
 443 610 439 605 428 599 c 2
 249 496 l 2
 243 492 232 487 224 487 c 0
 217 487 214 490 214 496 c 0
 214 504 219 510 234 524 c 2
 342 629 l 2xb4
498 60 m 1
 434 7 375 -10 336 -10 c 0
 311 -10 304 5 304 36 c 0
 304 63 311 109 319 165 c 1
 247 34 188 -10 126 -10 c 0
 70 -10 44 26 44 70 c 0xb4
 44 132 94 308 94 344 c 0
 94 366 77 371 57 371 c 0
 49 371 41 370 37 369 c 1
 33 405 l 1
 84 418 132 431 183 431 c 0
 204 431 224 426 224 405 c 0xcc
 224 377 169 176 169 122 c 0
 169 100 177 83 196 83 c 0
 246 83 319 211 338 295 c 1
 357 416 l 1
 494 433 l 1
 455 229 436 134 436 92 c 0
 436 81 440 75 449 75 c 0
 457 75 470 77 487 88 c 1
 498 60 l 1
EndSplineSet
EndChar

StartChar: ucircumflex
Encoding: 251 251 198
Width: 525
Flags: MW
HStem: -10 93<98 221> 411 20G<157.5 193.5> 413 20G<494 494> 570 60<271 295>
VStem: 44 125<48 149> 94 130<326 415.5> 304 132<20.5 113>
LayerCount: 2
Fore
SplineSet
177 504 m 2xba
 169 499 155 492 143 492 c 0
 134 492 132 496 132 499 c 0
 132 508 170 535 218 582 c 1
 271 630 l 2
 284 642 297 648 307 648 c 0
 317 648 328 642 337 630 c 2
 376 582 l 1
 410 536 440 510 440 501 c 0
 440 498 438 492 426 492 c 0
 415 492 402 499 395 504 c 2
 295 570 l 1
 177 504 l 2xba
498 60 m 1
 434 7 375 -10 336 -10 c 0
 311 -10 304 5 304 36 c 0
 304 63 311 109 319 165 c 1
 247 34 188 -10 126 -10 c 0
 70 -10 44 26 44 70 c 0xba
 44 132 94 308 94 344 c 0
 94 366 77 371 57 371 c 0
 49 371 41 370 37 369 c 1
 33 405 l 1
 84 418 132 431 183 431 c 0
 204 431 224 426 224 405 c 0xd6
 224 377 169 176 169 122 c 0
 169 100 177 83 196 83 c 0
 246 83 319 211 338 295 c 1
 357 416 l 1
 494 433 l 1
 455 229 436 134 436 92 c 0
 436 81 440 75 449 75 c 0
 457 75 470 77 487 88 c 1
 498 60 l 1
EndSplineSet
EndChar

StartChar: udieresis
Encoding: 252 252 199
Width: 525
Flags: MW
HStem: -10 93<98 221> 411 20G<157.5 193.5> 413 20G<494 494> 532 125<186 218 380 412>
VStem: 44 125<48 149> 94 130<326 415.5> 124 156<581 607> 304 132<20.5 113> 318 156<581 607>
LayerCount: 2
Fore
SplineSet
210 657 m 0xb280
 252 657 280 636 280 604 c 0
 280 558 243 532 193 532 c 0
 152 532 124 553 124 585 c 0
 124 629 162 657 210 657 c 0xb280
404 657 m 0
 446 657 474 636 474 604 c 0
 474 558 437 532 387 532 c 0
 346 532 318 553 318 585 c 0
 318 629 356 657 404 657 c 0
498 60 m 1xb9
 434 7 375 -10 336 -10 c 0
 311 -10 304 5 304 36 c 0
 304 63 311 109 319 165 c 1
 247 34 188 -10 126 -10 c 0
 70 -10 44 26 44 70 c 0xb9
 44 132 94 308 94 344 c 0
 94 366 77 371 57 371 c 0
 49 371 41 370 37 369 c 1
 33 405 l 1
 84 418 132 431 183 431 c 0
 204 431 224 426 224 405 c 0xd480
 224 377 169 176 169 122 c 0
 169 100 177 83 196 83 c 0
 246 83 319 211 338 295 c 1
 357 416 l 1
 494 433 l 1
 455 229 436 134 436 92 c 0
 436 81 440 75 449 75 c 0
 457 75 470 77 487 88 c 1
 498 60 l 1xb9
EndSplineSet
EndChar

StartChar: ugrave
Encoding: 249 249 200
Width: 525
Flags: MW
HStem: -10 93<98 221> 411 20G<157.5 193.5> 413 20G<494 494>
VStem: 44 125<48 149> 94 130<326 415.5> 304 132<20.5 113>
LayerCount: 2
Fore
SplineSet
170 599 m 2xb4
 163 604 160 609 160 616 c 0
 162 630 209 653 233 653 c 0
 248 653 250 648 264 629 c 2
 346 523 l 1
 354 511 358 505 357 497 c 0
 356 491 351 487 343 487 c 0
 335 487 326 492 320 496 c 2
 170 599 l 2xb4
498 60 m 1
 434 7 375 -10 336 -10 c 0
 311 -10 304 5 304 36 c 0
 304 63 311 109 319 165 c 1
 247 34 188 -10 126 -10 c 0
 70 -10 44 26 44 70 c 0xb4
 44 132 94 308 94 344 c 0
 94 366 77 371 57 371 c 0
 49 371 41 370 37 369 c 1
 33 405 l 1
 84 418 132 431 183 431 c 0
 204 431 224 426 224 405 c 0xcc
 224 377 169 176 169 122 c 0
 169 100 177 83 196 83 c 0
 246 83 319 211 338 295 c 1
 357 416 l 1
 494 433 l 1
 455 229 436 134 436 92 c 0
 436 81 440 75 449 75 c 0
 457 75 470 77 487 88 c 1
 498 60 l 1
EndSplineSet
EndChar

StartChar: uhungarumlaut
Encoding: 369 369 201
Width: 525
Flags: MW
HStem: -10 93<98 221> 411 20G<157.5 193.5> 413 20G<494 494>
VStem: 44 125<48 149> 94 130<326 415.5> 304 132<20.5 113>
LayerCount: 2
Fore
SplineSet
285 653 m 0xb4
 304 653 349 640 349 626 c 0
 349 623 346 618 341 613 c 0
 331 604 314 589 212 504 c 0
 200 494 193 492 186 492 c 0
 179 492 176 496 176 500 c 0
 176 504 178 508 181 512 c 0
 253 620 266 638 271 644 c 0
 277 652 280 653 285 653 c 0xb4
411 653 m 0
 430 653 474 641 474 626 c 0
 474 623 472 619 466 613 c 0
 457 604 438 588 337 504 c 0
 325 494 318 492 311 492 c 0
 304 492 301 496 301 500 c 0
 301 503 303 508 306 512 c 0
 377 616 392 640 396 644 c 0
 403 652 405 653 411 653 c 0
498 60 m 1
 434 7 375 -10 336 -10 c 0
 311 -10 304 5 304 36 c 0
 304 63 311 109 319 165 c 1
 247 34 188 -10 126 -10 c 0
 70 -10 44 26 44 70 c 0xb4
 44 132 94 308 94 344 c 0
 94 366 77 371 57 371 c 0
 49 371 41 370 37 369 c 1
 33 405 l 1
 84 418 132 431 183 431 c 0
 204 431 224 426 224 405 c 0xcc
 224 377 169 176 169 122 c 0
 169 100 177 83 196 83 c 0
 246 83 319 211 338 295 c 1
 357 416 l 1
 494 433 l 1
 455 229 436 134 436 92 c 0
 436 81 440 75 449 75 c 0
 457 75 470 77 487 88 c 1
 498 60 l 1
EndSplineSet
EndChar

StartChar: umacron
Encoding: 363 363 202
Width: 525
Flags: MW
HStem: -10 93<98 221> 411 20G<157.5 193.5> 413 20G<494 494> 560 47<180 413 173 420>
VStem: 44 125<48 149> 94 130<326 415.5> 304 132<20.5 113>
LayerCount: 2
Fore
SplineSet
413 560 m 1xba
 173 560 l 1
 180 607 l 1
 420 607 l 1
 413 560 l 1xba
498 60 m 1
 434 7 375 -10 336 -10 c 0
 311 -10 304 5 304 36 c 0
 304 63 311 109 319 165 c 1
 247 34 188 -10 126 -10 c 0
 70 -10 44 26 44 70 c 0xba
 44 132 94 308 94 344 c 0
 94 366 77 371 57 371 c 0
 49 371 41 370 37 369 c 1
 33 405 l 1
 84 418 132 431 183 431 c 0
 204 431 224 426 224 405 c 0xd6
 224 377 169 176 169 122 c 0
 169 100 177 83 196 83 c 0
 246 83 319 211 338 295 c 1
 357 416 l 1
 494 433 l 1
 455 229 436 134 436 92 c 0
 436 81 440 75 449 75 c 0
 457 75 470 77 487 88 c 1
 498 60 l 1
EndSplineSet
EndChar

StartChar: uogonek
Encoding: 371 371 203
Width: 525
Flags: MW
HStem: -159 58<356.5 430.5> -10 93<98 221> 411 20G<157.5 193.5> 413 20G<494 494>
VStem: 44 125<48 149> 94 130<326 415.5> 303 72<-117 -45.5> 304 132<20.5 113>
LayerCount: 2
Fore
SplineSet
500 -99 m 1xda
 462 -137 418 -159 375 -159 c 0
 338 -159 303 -138 303 -96 c 0
 303 -65 320 -34 353 -9 c 1xda
 347 -10 341 -10 336 -10 c 0
 311 -10 304 5 304 36 c 0
 304 63 311 109 319 165 c 1
 247 34 188 -10 126 -10 c 0
 70 -10 44 26 44 70 c 0xd9
 44 132 94 308 94 344 c 0
 94 366 77 371 57 371 c 0
 49 371 41 370 37 369 c 1
 33 405 l 1
 84 418 132 431 183 431 c 0
 204 431 224 426 224 405 c 0xe6
 224 377 169 176 169 122 c 0
 169 100 177 83 196 83 c 0
 246 83 319 211 338 295 c 1
 357 416 l 1
 494 433 l 1
 455 229 436 134 436 92 c 0
 436 81 440 75 449 75 c 0
 457 75 470 77 487 88 c 1
 498 60 l 1xd9
 474 40 450 25 428 14 c 0
 395 -2 375 -30 375 -61 c 0
 375 -83 388 -101 419 -101 c 0
 442 -101 466 -93 490 -79 c 1
 500 -99 l 1xda
EndSplineSet
EndChar

StartChar: uring
Encoding: 367 367 204
Width: 525
Flags: MW
HStem: -10 93<98 221> 411 20G<157.5 193.5> 413 20G<494 494> 492 41<281.5 303.5 281.5 313> 616 42<290 312.5>
VStem: 44 125<48 149> 94 130<326 415.5> 210 50<557.5 582 557.5 590.5> 304 132<20.5 113> 334 51<567 591.5>
LayerCount: 2
Fore
SplineSet
210 564 m 0xbd40
 210 617 255 658 308 658 c 0
 355 658 385 628 385 586 c 0
 385 531 341 492 285 492 c 0
 239 492 210 521 210 564 c 0xbd40
260 568 m 0
 260 547 272 533 291 533 c 0
 316 533 334 553 334 581 c 0
 334 602 323 616 302 616 c 0
 278 616 260 596 260 568 c 0
498 60 m 1xbd80
 434 7 375 -10 336 -10 c 0
 311 -10 304 5 304 36 c 0
 304 63 311 109 319 165 c 1
 247 34 188 -10 126 -10 c 0
 70 -10 44 26 44 70 c 0xbd80
 44 132 94 308 94 344 c 0
 94 366 77 371 57 371 c 0
 49 371 41 370 37 369 c 1
 33 405 l 1
 84 418 132 431 183 431 c 0
 204 431 224 426 224 405 c 0xda40
 224 377 169 176 169 122 c 0
 169 100 177 83 196 83 c 0
 246 83 319 211 338 295 c 1
 357 416 l 1
 494 433 l 1
 455 229 436 134 436 92 c 0
 436 81 440 75 449 75 c 0
 457 75 470 77 487 88 c 1
 498 60 l 1xbd80
EndSplineSet
EndChar

StartChar: v
Encoding: 118 118 205
Width: 432
Flags: MW
HStem: 324 111<343 344.5> 411 20G<118.5 149.5> 415 20G<343 386>
VStem: 367 67<303 309>
LayerCount: 2
Fore
SplineSet
258 102 m 1x30
 316 166 367 242 367 299 c 0
 367 319 353 324 336 324 c 0x90
 310 324 296 343 296 375 c 0
 296 411 322 435 364 435 c 0
 408 435 434 407 434 361 c 0x30
 434 245 294 65 202 -5 c 1
 167 -5 l 1
 76 341 l 2
 70 366 61 374 47 374 c 0
 42 374 34 373 24 371 c 1
 18 405 l 1
 55 418 103 431 134 431 c 0
 165 431 188 420 200 364 c 2x50
 258 102 l 1x30
EndSplineSet
EndChar

StartChar: w
Encoding: 119 119 206
Width: 685
Flags: MW
HStem: 324 111<596 597.5> 405 20 411 20G<118.5 149.5> 415 20G<596 639>
VStem: 619 68<303 309>
LayerCount: 2
Fore
SplineSet
510 102 m 1x48
 568 167 619 243 619 299 c 0
 619 319 606 324 589 324 c 0x88
 563 324 549 343 549 375 c 0
 549 411 575 435 617 435 c 0
 661 435 687 407 687 361 c 0x18
 687 245 547 65 454 -5 c 1
 420 -5 l 1
 371 189 l 1
 322 110 254 35 202 -5 c 1
 167 -5 l 1
 76 341 l 2
 70 366 61 374 47 374 c 0
 42 374 34 373 24 371 c 1
 18 405 l 1
 55 418 103 431 134 431 c 0
 165 431 188 420 200 364 c 2x28
 258 102 l 1
 299 149 338 201 356 248 c 1
 326 354 l 2
 319 379 310 405 299 425 c 1
 439 425 l 1
 510 102 l 1x48
EndSplineSet
EndChar

StartChar: wacute
Encoding: 7811 7811 207
Width: 685
Flags: MW
HStem: 324 111<596 597.5> 405 20 411 20G<118.5 149.5> 415 20G<596 639>
VStem: 619 68<303 309>
LayerCount: 2
Fore
SplineSet
430 629 m 2x48
 449 647 454 653 469 653 c 0
 492 653 531 631 531 617 c 0
 531 610 527 605 516 599 c 2
 337 496 l 2
 331 492 320 487 312 487 c 0
 305 487 302 490 302 496 c 0
 302 504 307 510 322 524 c 2
 430 629 l 2x48
510 102 m 1
 568 167 619 243 619 299 c 0
 619 319 606 324 589 324 c 0x88
 563 324 549 343 549 375 c 0
 549 411 575 435 617 435 c 0
 661 435 687 407 687 361 c 0x18
 687 245 547 65 454 -5 c 1
 420 -5 l 1
 371 189 l 1
 322 110 254 35 202 -5 c 1
 167 -5 l 1
 76 341 l 2
 70 366 61 374 47 374 c 0
 42 374 34 373 24 371 c 1
 18 405 l 1
 55 418 103 431 134 431 c 0
 165 431 188 420 200 364 c 2x28
 258 102 l 1
 299 149 338 201 356 248 c 1
 326 354 l 2
 319 379 310 405 299 425 c 1
 439 425 l 1
 510 102 l 1
EndSplineSet
EndChar

StartChar: wcircumflex
Encoding: 373 373 208
Width: 685
Flags: MW
HStem: 324 111<596 597.5> 405 20 411 20G<118.5 149.5> 415 20G<596 639> 570 60<359 383>
VStem: 619 68<303 309>
LayerCount: 2
Fore
SplineSet
265 504 m 2x4c
 257 499 243 492 231 492 c 0
 222 492 220 496 220 499 c 0
 220 508 258 535 306 582 c 1
 359 630 l 2
 372 642 385 648 395 648 c 0
 405 648 416 642 425 630 c 2
 464 582 l 1
 498 536 528 510 528 501 c 0
 528 498 526 492 514 492 c 0
 503 492 490 499 483 504 c 2
 383 570 l 1
 265 504 l 2x4c
510 102 m 1
 568 167 619 243 619 299 c 0
 619 319 606 324 589 324 c 0x8c
 563 324 549 343 549 375 c 0
 549 411 575 435 617 435 c 0
 661 435 687 407 687 361 c 0x1c
 687 245 547 65 454 -5 c 1
 420 -5 l 1
 371 189 l 1
 322 110 254 35 202 -5 c 1
 167 -5 l 1
 76 341 l 2
 70 366 61 374 47 374 c 0
 42 374 34 373 24 371 c 1
 18 405 l 1
 55 418 103 431 134 431 c 0
 165 431 188 420 200 364 c 2x2c
 258 102 l 1
 299 149 338 201 356 248 c 1
 326 354 l 2
 319 379 310 405 299 425 c 1
 439 425 l 1
 510 102 l 1
EndSplineSet
EndChar

StartChar: wdieresis
Encoding: 7813 7813 209
Width: 685
Flags: MW
HStem: 324 111<596 597.5> 405 20 411 20G<118.5 149.5> 415 20G<596 639> 532 125<274 306 468 500>
VStem: 212 156<581 607> 406 156<581 607> 619 68<303 309>
LayerCount: 2
Fore
SplineSet
298 657 m 0x4f
 340 657 368 636 368 604 c 0
 368 558 331 532 281 532 c 0
 240 532 212 553 212 585 c 0
 212 629 250 657 298 657 c 0x4f
492 657 m 0
 534 657 562 636 562 604 c 0
 562 558 525 532 475 532 c 0
 434 532 406 553 406 585 c 0
 406 629 444 657 492 657 c 0
510 102 m 1
 568 167 619 243 619 299 c 0
 619 319 606 324 589 324 c 0x8f
 563 324 549 343 549 375 c 0
 549 411 575 435 617 435 c 0
 661 435 687 407 687 361 c 0x1f
 687 245 547 65 454 -5 c 1
 420 -5 l 1
 371 189 l 1
 322 110 254 35 202 -5 c 1
 167 -5 l 1
 76 341 l 2
 70 366 61 374 47 374 c 0
 42 374 34 373 24 371 c 1
 18 405 l 1
 55 418 103 431 134 431 c 0
 165 431 188 420 200 364 c 2x2f
 258 102 l 1
 299 149 338 201 356 248 c 1
 326 354 l 2
 319 379 310 405 299 425 c 1
 439 425 l 1
 510 102 l 1
EndSplineSet
EndChar

StartChar: wgrave
Encoding: 7809 7809 210
Width: 685
Flags: MW
HStem: 324 111<596 597.5> 405 20 411 20G<118.5 149.5> 415 20G<596 639>
VStem: 619 68<303 309>
LayerCount: 2
Fore
SplineSet
258 599 m 2x48
 251 604 248 609 248 616 c 0
 250 630 297 653 321 653 c 0
 336 653 338 648 352 629 c 2
 434 523 l 1
 442 511 446 505 445 497 c 0
 444 491 439 487 431 487 c 0
 423 487 414 492 408 496 c 2
 258 599 l 2x48
510 102 m 1
 568 167 619 243 619 299 c 0
 619 319 606 324 589 324 c 0x88
 563 324 549 343 549 375 c 0
 549 411 575 435 617 435 c 0
 661 435 687 407 687 361 c 0x18
 687 245 547 65 454 -5 c 1
 420 -5 l 1
 371 189 l 1
 322 110 254 35 202 -5 c 1
 167 -5 l 1
 76 341 l 2
 70 366 61 374 47 374 c 0
 42 374 34 373 24 371 c 1
 18 405 l 1
 55 418 103 431 134 431 c 0
 165 431 188 420 200 364 c 2x28
 258 102 l 1
 299 149 338 201 356 248 c 1
 326 354 l 2
 319 379 310 405 299 425 c 1
 439 425 l 1
 510 102 l 1
EndSplineSet
EndChar

StartChar: x
Encoding: 120 120 211
Width: 488
Flags: MW
HStem: -10 120<53 70.5 53 76.5> 314 119<424.5 458> 342 91<373 460> 374 57
VStem: -2 499<26 397>
LayerCount: 2
Fore
SplineSet
325 353 m 2xc8
 361 410 396 433 444 433 c 0
 476 433 497 414 497 380 c 0
 498 343 474 314 442 314 c 0xc8
 407 314 401 342 378 342 c 0
 368 342 358 339 344 319 c 2
 300 252 l 1xa8
 366 95 l 2
 371 83 377 80 386 80 c 0
 397 80 415 86 442 97 c 1
 456 73 l 1
 398 23 343 -6 310 -6 c 0
 289 -6 276 0 264 21 c 1
 214 138 l 1
 170 70 l 1
 135 14 100 -10 53 -10 c 0
 20 -10 -2 9 -2 43 c 1
 -4 81 21 109 53 110 c 1
 88 110 94 81 117 82 c 0
 127 82 137 85 151 105 c 2
 198 176 l 1
 127 341 l 2
 116 366 112 374 94 374 c 0
 81 374 67 373 49 371 c 1x98
 42 405 l 1
 84 418 146 431 184 431 c 0
 212 431 229 419 245 381 c 2
 284 289 l 1
 325 353 l 2xc8
EndSplineSet
EndChar

StartChar: y
Encoding: 121 121 212
Width: 417
Flags: MW
HStem: -239 131<-63.5 -29 -70 -1> 325 111<308 371> 412 20G<103.5 134.5>
VStem: 353 66<277.5 384.5>
LayerCount: 2
Fore
SplineSet
253 87 m 1xb0
 307 171 353 255 353 300 c 0
 353 320 340 324 321 325 c 1
 295 325 281 344 281 376 c 0
 281 412 307 436 349 436 c 0
 393 436 419 408 419 361 c 0xd0
 419 286 344 147 261 26 c 1
 153 -135 37 -239 -39 -239 c 0
 -88 -239 -113 -208 -113 -169 c 0
 -113 -134 -86 -108 -54 -108 c 0
 -4 -108 -6 -156 25 -157 c 0
 55 -157 106 -111 166 -36 c 1
 61 342 l 2
 55 367 46 375 32 375 c 0
 27 375 19 374 9 372 c 1
 3 406 l 1
 40 419 88 432 119 432 c 0
 150 432 171 422 185 365 c 2
 253 87 l 1xb0
EndSplineSet
Substitution2: "Single Substitution lookup 23 subtable" y.ss01
Substitution2: "'ss01' Style Set 1 lookup 16 subtable" y.ss01
Substitution2: "'salt' Stylistic Alternatives lookup 15 subtable" y.ss01
Substitution2: "'aalt' Access All Alternates lookup 0 subtable" y.ss01
EndChar

StartChar: yacute
Encoding: 253 253 213
Width: 417
Flags: MW
HStem: -239 131<-63.5 -29 -70 -1> 325 111<308 371> 412 20G<103.5 134.5>
VStem: 353 66<277.5 384.5>
LayerCount: 2
Fore
SplineSet
298 629 m 2xb0
 317 647 322 653 337 653 c 0
 360 653 399 631 399 617 c 0
 399 610 395 605 384 599 c 2
 205 496 l 2
 199 492 188 487 180 487 c 0
 173 487 170 490 170 496 c 0
 170 504 175 510 190 524 c 2
 298 629 l 2xb0
253 87 m 1
 307 171 353 255 353 300 c 0
 353 320 340 324 321 325 c 1
 295 325 281 344 281 376 c 0
 281 412 307 436 349 436 c 0
 393 436 419 408 419 361 c 0xd0
 419 286 344 147 261 26 c 1
 153 -135 37 -239 -39 -239 c 0
 -88 -239 -113 -208 -113 -169 c 0
 -113 -134 -86 -108 -54 -108 c 0
 -4 -108 -6 -156 25 -157 c 0
 55 -157 106 -111 166 -36 c 1
 61 342 l 2
 55 367 46 375 32 375 c 0
 27 375 19 374 9 372 c 1
 3 406 l 1
 40 419 88 432 119 432 c 0
 150 432 171 422 185 365 c 2
 253 87 l 1
EndSplineSet
Substitution2: "Single Substitution lookup 23 subtable" yacute.ss01
Substitution2: "'ss01' Style Set 1 lookup 16 subtable" yacute.ss01
Substitution2: "'salt' Stylistic Alternatives lookup 15 subtable" yacute.ss01
Substitution2: "'aalt' Access All Alternates lookup 0 subtable" yacute.ss01
EndChar

StartChar: ycircumflex
Encoding: 375 375 214
Width: 417
Flags: MW
HStem: -239 131<-63.5 -29 -70 -1> 325 111<308 371> 412 20G<103.5 134.5> 570 60<227 251>
VStem: 353 66<277.5 384.5>
LayerCount: 2
Fore
SplineSet
133 504 m 2xb8
 125 499 111 492 99 492 c 0
 90 492 88 496 88 499 c 0
 88 508 126 535 174 582 c 1
 227 630 l 2
 240 642 253 648 263 648 c 0
 273 648 284 642 293 630 c 2
 332 582 l 1
 366 536 396 510 396 501 c 0
 396 498 394 492 382 492 c 0
 371 492 358 499 351 504 c 2
 251 570 l 1
 133 504 l 2xb8
253 87 m 1
 307 171 353 255 353 300 c 0
 353 320 340 324 321 325 c 1
 295 325 281 344 281 376 c 0
 281 412 307 436 349 436 c 0
 393 436 419 408 419 361 c 0xd8
 419 286 344 147 261 26 c 1
 153 -135 37 -239 -39 -239 c 0
 -88 -239 -113 -208 -113 -169 c 0
 -113 -134 -86 -108 -54 -108 c 0
 -4 -108 -6 -156 25 -157 c 0
 55 -157 106 -111 166 -36 c 1
 61 342 l 2
 55 367 46 375 32 375 c 0
 27 375 19 374 9 372 c 1
 3 406 l 1
 40 419 88 432 119 432 c 0
 150 432 171 422 185 365 c 2
 253 87 l 1
EndSplineSet
Substitution2: "Single Substitution lookup 23 subtable" ycircumflex.ss01
Substitution2: "'ss01' Style Set 1 lookup 16 subtable" ycircumflex.ss01
Substitution2: "'salt' Stylistic Alternatives lookup 15 subtable" ycircumflex.ss01
Substitution2: "'aalt' Access All Alternates lookup 0 subtable" ycircumflex.ss01
EndChar

StartChar: ydieresis
Encoding: 255 255 215
Width: 417
Flags: MW
HStem: -239 131<-63.5 -29 -70 -1> 325 111<308 371> 412 20G<103.5 134.5> 532 125<143 175 336 368>
VStem: 81 156<581 607> 274 156<581 607> 353 66<277.5 384.5>
LayerCount: 2
Fore
SplineSet
167 657 m 0xba
 209 657 237 636 237 604 c 0
 237 558 200 532 150 532 c 0
 109 532 81 553 81 585 c 0
 81 629 119 657 167 657 c 0xba
360 657 m 0xbc
 402 657 430 636 430 604 c 0
 430 558 393 532 343 532 c 0
 302 532 274 553 274 585 c 0
 274 629 312 657 360 657 c 0xbc
253 87 m 1xba
 307 171 353 255 353 300 c 0
 353 320 340 324 321 325 c 1
 295 325 281 344 281 376 c 0
 281 412 307 436 349 436 c 0
 393 436 419 408 419 361 c 0xda
 419 286 344 147 261 26 c 1
 153 -135 37 -239 -39 -239 c 0
 -88 -239 -113 -208 -113 -169 c 0
 -113 -134 -86 -108 -54 -108 c 0
 -4 -108 -6 -156 25 -157 c 0
 55 -157 106 -111 166 -36 c 1
 61 342 l 2
 55 367 46 375 32 375 c 0
 27 375 19 374 9 372 c 1
 3 406 l 1
 40 419 88 432 119 432 c 0
 150 432 171 422 185 365 c 2
 253 87 l 1xba
EndSplineSet
Substitution2: "Single Substitution lookup 23 subtable" ydieresis.ss01
Substitution2: "'ss01' Style Set 1 lookup 16 subtable" ydieresis.ss01
Substitution2: "'salt' Stylistic Alternatives lookup 15 subtable" ydieresis.ss01
Substitution2: "'aalt' Access All Alternates lookup 0 subtable" ydieresis.ss01
EndChar

